  0
SECTION
  2
HEADER
  9
$ACADVER
  1
AC1024
  9
$ACADMAINTVER
 70
     6
  9
$DWGCODEPAGE
  3
UNDEFINED
  9
$INSBASE
 10
0.0
 20
0.0
 30
0.0
  9
$EXTMIN
 10
1.000000000000000E+20
 20
1.000000000000000E+20
 30
1.000000000000000E+20
  9
$EXTMAX
 10
-1.000000000000000E+20
 20
-1.000000000000000E+20
 30
-1.000000000000000E+20
  9
$LIMMIN
 10
0.0
 20
0.0
  9
$LIMMAX
 10
12.0
 20
9.0
  9
$ORTHOMODE
 70
     0
  9
$REGENMODE
 70
     1
  9
$FILLMODE
 70
     1
  9
$QTEXTMODE
 70
     0
  9
$MIRRTEXT
 70
     1
  9
$LTSCALE
 40
1.0
  9
$ATTMODE
 70
     1
  9
$TEXTSIZE
 40
0.2
  9
$TRACEWID
 40
0.05
  9
$TEXTSTYLE
  7
Standard
  9
$CLAYER
  8
0
  9
$CELTYPE
  6
ByLayer
  9
$CECOLOR
 62
   256
  9
$CELTSCALE
 40
1.0
  9
$DISPSILH
 70
     0
  9
$DIMSCALE
 40
1.0
  9
$DIMASZ
 40
0.18
  9
$DIMEXO
 40
0.0625
  9
$DIMDLI
 40
0.38
  9
$DIMRND
 40
0.0
  9
$DIMDLE
 40
0.0
  9
$DIMEXE
 40
0.18
  9
$DIMTP
 40
0.0
  9
$DIMTM
 40
0.0
  9
$DIMTXT
 40
0.18
  9
$DIMCEN
 40
0.09
  9
$DIMTSZ
 40
0.0
  9
$DIMTOL
 70
     0
  9
$DIMLIM
 70
     0
  9
$DIMTIH
 70
     1
  9
$DIMTOH
 70
     1
  9
$DIMSE1
 70
     0
  9
$DIMSE2
 70
     0
  9
$DIMTAD
 70
     0
  9
$DIMZIN
 70
     0
  9
$DIMBLK
  1

  9
$DIMASO
 70
     1
  9
$DIMSHO
 70
     1
  9
$DIMPOST
  1

  9
$DIMAPOST
  1

  9
$DIMALT
 70
     0
  9
$DIMALTD
 70
     2
  9
$DIMALTF
 40
25.4
  9
$DIMLFAC
 40
1.0
  9
$DIMTOFL
 70
     0
  9
$DIMTVP
 40
0.0
  9
$DIMTIX
 70
     0
  9
$DIMSOXD
 70
     0
  9
$DIMSAH
 70
     0
  9
$DIMBLK1
  1

  9
$DIMBLK2
  1

  9
$DIMSTYLE
  2
Standard
  9
$DIMCLRD
 70
     0
  9
$DIMCLRE
 70
     0
  9
$DIMCLRT
 70
     0
  9
$DIMTFAC
 40
1.0
  9
$DIMGAP
 40
0.09
  9
$DIMJUST
 70
     0
  9
$DIMSD1
 70
     0
  9
$DIMSD2
 70
     0
  9
$DIMTOLJ
 70
     1
  9
$DIMTZIN
 70
     0
  9
$DIMALTZ
 70
     0
  9
$DIMALTTZ
 70
     0
  9
$DIMUPT
 70
     0
  9
$DIMDEC
 70
     4
  9
$DIMTDEC
 70
     4
  9
$DIMALTU
 70
     2
  9
$DIMALTTD
 70
     2
  9
$DIMTXSTY
  7
Standard
  9
$DIMAUNIT
 70
     0
  9
$DIMADEC
 70
     0
  9
$DIMALTRND
 40
0.0
  9
$DIMAZIN
 70
     0
  9
$DIMDSEP
 70
    46
  9
$DIMATFIT
 70
     3
  9
$DIMFRAC
 70
     0
  9
$DIMLDRBLK
  1

  9
$DIMLUNIT
 70
     2
  9
$DIMLWD
 70
    -2
  9
$DIMLWE
 70
    -2
  9
$DIMTMOVE
 70
     0
  9
$DIMFXL
 40
1.0
  9
$DIMFXLON
 70
     0
  9
$DIMJOGANG
 40
0.7853981633974483
  9
$DIMTFILL
 70
     0
  9
$DIMTFILLCLR
 70
     0
  9
$DIMARCSYM
 70
     0
  9
$DIMLTYPE
  6

  9
$DIMLTEX1
  6

  9
$DIMLTEX2
  6

  9
$DIMTXTDIRECTION
 70
     0
  9
$LUNITS
 70
     2
  9
$LUPREC
 70
     4
  9
$SKETCHINC
 40
0.1
  9
$FILLETRAD
 40
0.5
  9
$AUNITS
 70
     0
  9
$AUPREC
 70
     0
  9
$MENU
  1
.
  9
$ELEVATION
 40
0.0
  9
$PELEVATION
 40
0.0
  9
$THICKNESS
 40
0.0
  9
$LIMCHECK
 70
     0
  9
$CHAMFERA
 40
0.5
  9
$CHAMFERB
 40
0.5
  9
$CHAMFERC
 40
1.0
  9
$CHAMFERD
 40
0.0
  9
$SKPOLY
 70
     0
  9
$TDCREATE
 40
2459125.853298599
  9
$TDUCREATE
 40
2459126.061631944
  9
$TDUPDATE
 40
2459125.853298599
  9
$TDUUPDATE
 40
2459126.061631944
  9
$TDINDWG
 40
0.0000000116
  9
$TDUSRTIMER
 40
0.0000000116
  9
$USRTIMER
 70
     1
  9
$ANGBASE
 50
0.0
  9
$ANGDIR
 70
     0
  9
$PDMODE
 70
     0
  9
$PDSIZE
 40
0.0
  9
$PLINEWID
 40
0.0
  9
$SPLFRAME
 70
     0
  9
$SPLINETYPE
 70
     6
  9
$SPLINESEGS
 70
     8
  9
$HANDSEED
  5
2DC
  9
$SURFTAB1
 70
     6
  9
$SURFTAB2
 70
     6
  9
$SURFTYPE
 70
     6
  9
$SURFU
 70
     6
  9
$SURFV
 70
     6
  9
$UCSBASE
  2

  9
$UCSNAME
  2

  9
$UCSORG
 10
0.0
 20
0.0
 30
0.0
  9
$UCSXDIR
 10
1.0
 20
0.0
 30
0.0
  9
$UCSYDIR
 10
0.0
 20
1.0
 30
0.0
  9
$UCSORTHOREF
  2

  9
$UCSORTHOVIEW
 70
     0
  9
$UCSORGTOP
 10
0.0
 20
0.0
 30
0.0
  9
$UCSORGBOTTOM
 10
0.0
 20
0.0
 30
0.0
  9
$UCSORGLEFT
 10
0.0
 20
0.0
 30
0.0
  9
$UCSORGRIGHT
 10
0.0
 20
0.0
 30
0.0
  9
$UCSORGFRONT
 10
0.0
 20
0.0
 30
0.0
  9
$UCSORGBACK
 10
0.0
 20
0.0
 30
0.0
  9
$PUCSBASE
  2

  9
$PUCSNAME
  2

  9
$PUCSORG
 10
0.0
 20
0.0
 30
0.0
  9
$PUCSXDIR
 10
1.0
 20
0.0
 30
0.0
  9
$PUCSYDIR
 10
0.0
 20
1.0
 30
0.0
  9
$PUCSORTHOREF
  2

  9
$PUCSORTHOVIEW
 70
     0
  9
$PUCSORGTOP
 10
0.0
 20
0.0
 30
0.0
  9
$PUCSORGBOTTOM
 10
0.0
 20
0.0
 30
0.0
  9
$PUCSORGLEFT
 10
0.0
 20
0.0
 30
0.0
  9
$PUCSORGRIGHT
 10
0.0
 20
0.0
 30
0.0
  9
$PUCSORGFRONT
 10
0.0
 20
0.0
 30
0.0
  9
$PUCSORGBACK
 10
0.0
 20
0.0
 30
0.0
  9
$USERI1
 70
     0
  9
$USERI2
 70
     0
  9
$USERI3
 70
     0
  9
$USERI4
 70
     0
  9
$USERI5
 70
     0
  9
$USERR1
 40
0.0
  9
$USERR2
 40
0.0
  9
$USERR3
 40
0.0
  9
$USERR4
 40
0.0
  9
$USERR5
 40
0.0
  9
$WORLDVIEW
 70
     1
  9
$SHADEDGE
 70
     3
  9
$SHADEDIF
 70
    70
  9
$TILEMODE
 70
     1
  9
$MAXACTVP
 70
    64
  9
$PINSBASE
 10
0.0
 20
0.0
 30
0.0
  9
$PLIMCHECK
 70
     0
  9
$PEXTMIN
 10
1.000000000000000E+20
 20
1.000000000000000E+20
 30
1.000000000000000E+20
  9
$PEXTMAX
 10
-1.000000000000000E+20
 20
-1.000000000000000E+20
 30
-1.000000000000000E+20
  9
$PLIMMIN
 10
0.0
 20
0.0
  9
$PLIMMAX
 10
12.0
 20
9.0
  9
$UNITMODE
 70
     0
  9
$VISRETAIN
 70
     1
  9
$PLINEGEN
 70
     0
  9
$PSLTSCALE
 70
     1
  9
$TREEDEPTH
 70
  3020
  9
$CMLSTYLE
  2
Standard
  9
$CMLJUST
 70
     0
  9
$CMLSCALE
 40
1.0
  9
$PROXYGRAPHICS
 70
     1
  9
$MEASUREMENT
 70
     0
  9
$CELWEIGHT
370
    -1
  9
$ENDCAPS
280
     0
  9
$JOINSTYLE
280
     0
  9
$LWDISPLAY
290
     1
  9
$INSUNITS
 70
     0
  9
$HYPERLINKBASE
  1

  9
$STYLESHEET
  1

  9
$XEDIT
290
     1
  9
$CEPSNTYPE
380
     0
  9
$PSTYLEMODE
290
     1
  9
$FINGERPRINTGUID
  2
{3E7A9D6B-63B7-A54C-EDDD-8F7AA8D1FE29}
  9
$VERSIONGUID
  2
{FAEB1C32-E019-11D5-929B-00C0DF256EC4}
  9
$EXTNAMES
290
     1
  9
$PSVPSCALE
 40
0.0
  9
$OLESTARTUP
290
     0
  9
$SORTENTS
280
   127
  9
$INDEXCTL
280
     0
  9
$HIDETEXT
280
     1
  9
$XCLIPFRAME
280
     2
  9
$HALOGAP
280
     0
  9
$OBSCOLOR
 70
   257
  9
$OBSLTYPE
280
     0
  9
$INTERSECTIONDISPLAY
280
     0
  9
$INTERSECTIONCOLOR
 70
   257
  9
$DIMASSOC
280
     2
  9
$PROJECTNAME
  1

  9
$CAMERADISPLAY
290
     0
  9
$LENSLENGTH
 40
50.0
  9
$CAMERAHEIGHT
 40
0.0
  9
$STEPSPERSEC
 40
2.0
  9
$STEPSIZE
 40
6.0
  9
$3DDWFPREC
 40
2.0
  9
$PSOLWIDTH
 40
0.25
  9
$PSOLHEIGHT
 40
4.0
  9
$LOFTANG1
 40
1.570796326794897
  9
$LOFTANG2
 40
1.570796326794897
  9
$LOFTMAG1
 40
0.0
  9
$LOFTMAG2
 40
0.0
  9
$LOFTPARAM
 70
     7
  9
$LOFTNORMALS
280
     1
  9
$LATITUDE
 40
37.795
  9
$LONGITUDE
 40
-122.394
  9
$NORTHDIRECTION
 40
0.0
  9
$TIMEZONE
 70
 -8000
  9
$LIGHTGLYPHDISPLAY
280
     1
  9
$TILEMODELIGHTSYNCH
280
     1
  9
$CMATERIAL
347
3C
  9
$SOLIDHIST
280
     1
  9
$SHOWHIST
280
     1
  9
$DWFFRAME
280
     2
  9
$DGNFRAME
280
     2
  9
$REALWORLDSCALE
290
     1
  9
$INTERFERECOLOR
 62
   256
  9
$CSHADOW
280
     0
  9
$SHADOWPLANELOCATION
 40
0.0
  0
ENDSEC
  0
SECTION
  2
CLASSES
  0
CLASS
  1
ACDBDICTIONARYWDFLT
  2
AcDbDictionaryWithDefault
  3
ObjectDBX Classes
 90
        0
 91
        4
280
     0
281
     0
  0
CLASS
  1
VISUALSTYLE
  2
AcDbVisualStyle
  3
ObjectDBX Classes
 90
     4095
 91
        4
280
     0
281
     0
  0
CLASS
  1
MATERIAL
  2
AcDbMaterial
  3
ObjectDBX Classes
 90
     1153
 91
        4
280
     0
281
     0
  0
CLASS
  1
SUN
  2
AcDbSun
  3
SCENEOE
 90
     1024
 91
        4
280
     0
281
     0
  0
ENDSEC
  0
SECTION
  2
TABLES
  0
TABLE
  2
VPORT
  5
8
330
0
100
AcDbSymbolTable
 70
     1
  0
VPORT
  5
29
330
8
100
AcDbSymbolTableRecord
100
AcDbViewportTableRecord
  2
*Active
 70
     0
 10
0.0
 20
0.0
 11
1.0
 21
1.0
 12
0.0
 22
0.0
 13
0.0
 23
0.0
 14
0.5
 24
0.5
 15
0.5
 25
0.5
 16
0.0
 26
0.0
 36
1.0
 17
297.6377868652344
 27
420.9448852539062
 37
0.0
 40
841.8897705078125
 41
0.7070706814401717
 42
50.0
 43
0.0
 44
0.0
 50
0.0
 51
0.0
 71
     0
 72
   100
 73
     1
 74
     3
 75
     0
 76
     0
 77
     0
 78
     0
281
     0
 65
     1
110
0.0
120
0.0
130
0.0
111
1.0
121
0.0
131
0.0
112
0.0
122
1.0
132
0.0
 79
     0
146
0.0
 60
     3
 61
     5
292
     1
282
     1
141
0.0
142
0.0
 63
   250
361
3F
  0
ENDTAB
  0
TABLE
  2
LTYPE
  5
5
330
0
100
AcDbSymbolTable
 70
     1
  0
LTYPE
  5
14
330
5
100
AcDbSymbolTableRecord
100
AcDbLinetypeTableRecord
  2
ByBlock
 70
     0
  3

 72
    65
 73
     0
 40
0.0
  0
LTYPE
  5
15
330
5
100
AcDbSymbolTableRecord
100
AcDbLinetypeTableRecord
  2
ByLayer
 70
     0
  3

 72
    65
 73
     0
 40
0.0
  0
LTYPE
  5
16
330
5
100
AcDbSymbolTableRecord
100
AcDbLinetypeTableRecord
  2
Continuous
 70
     0
  3
Solid line
 72
    65
 73
     0
 40
0.0
  0
ENDTAB
  0
TABLE
  2
LAYER
  5
2
330
0
100
AcDbSymbolTable
 70
     2
  0
LAYER
  5
10
330
2
100
AcDbSymbolTableRecord
100
AcDbLayerTableRecord
  2
0
 70
     0
 62
     7
  6
Continuous
370
    -3
390
F
347
3E
  0
LAYER
  5
40
330
2
100
AcDbSymbolTableRecord
100
AcDbLayerTableRecord
  2
svg1962
 70
     0
 62
     7
  6
Continuous
370
    -3
390
F
347
3E
  0
ENDTAB
  0
TABLE
  2
STYLE
  5
3
330
0
100
AcDbSymbolTable
 70
     1
  0
STYLE
  5
11
330
3
100
AcDbSymbolTableRecord
100
AcDbTextStyleTableRecord
  2
Standard
 70
     0
 40
0.0
 41
1.0
 50
0.0
 71
     0
 42
0.2
  3
txt
  4

  0
ENDTAB
  0
TABLE
  2
VIEW
  5
6
330
0
100
AcDbSymbolTable
 70
     0
  0
ENDTAB
  0
TABLE
  2
UCS
  5
7
330
0
100
AcDbSymbolTable
 70
     0
  0
ENDTAB
  0
TABLE
  2
APPID
  5
9
330
0
100
AcDbSymbolTable
 70
     1
  0
APPID
  5
12
330
9
100
AcDbSymbolTableRecord
100
AcDbRegAppTableRecord
  2
ACAD
 70
     0
  0
ENDTAB
  0
TABLE
  2
DIMSTYLE
  5
A
330
0
100
AcDbSymbolTable
 70
     1
100
AcDbDimStyleTable
  0
DIMSTYLE
105
27
330
A
100
AcDbSymbolTableRecord
100
AcDbDimStyleTableRecord
  2
Standard
 70
     0
178
     0
340
11
  0
ENDTAB
  0
TABLE
  2
BLOCK_RECORD
  5
1
330
0
100
AcDbSymbolTable
 70
    10
  0
BLOCK_RECORD
  5
1F
330
1
100
AcDbSymbolTableRecord
100
AcDbBlockTableRecord
  2
*Model_Space
340
22
 70
     0
280
     1
281
     0
  0
BLOCK_RECORD
  5
1B
330
1
100
AcDbSymbolTableRecord
100
AcDbBlockTableRecord
  2
*Paper_Space
340
1E
 70
     0
280
     1
281
     0
  0
BLOCK_RECORD
  5
23
330
1
100
AcDbSymbolTableRecord
100
AcDbBlockTableRecord
  2
*Paper_Space0
340
26
 70
     0
280
     1
281
     0
  0
BLOCK_RECORD
  5
41
330
1
100
AcDbSymbolTableRecord
100
AcDbBlockTableRecord
  2
block 2
340
0
102
{BLKREFS
331
42
102
}
 70
     0
280
     1
281
     0
  0
BLOCK_RECORD
  5
45
330
1
100
AcDbSymbolTableRecord
100
AcDbBlockTableRecord
  2
block 3
340
0
102
{BLKREFS
331
46
102
}
 70
     0
280
     1
281
     0
  0
BLOCK_RECORD
  5
152
330
1
100
AcDbSymbolTableRecord
100
AcDbBlockTableRecord
  2
block 4
340
0
102
{BLKREFS
331
153
102
}
 70
     0
280
     1
281
     0
  0
BLOCK_RECORD
  5
186
330
1
100
AcDbSymbolTableRecord
100
AcDbBlockTableRecord
  2
block 5
340
0
102
{BLKREFS
331
187
102
}
 70
     0
280
     1
281
     0
  0
BLOCK_RECORD
  5
293
330
1
100
AcDbSymbolTableRecord
100
AcDbBlockTableRecord
  2
block 6
340
0
102
{BLKREFS
331
294
102
}
 70
     0
280
     1
281
     0
  0
BLOCK_RECORD
  5
2C7
330
1
100
AcDbSymbolTableRecord
100
AcDbBlockTableRecord
  2
block 7
340
0
102
{BLKREFS
331
2C8
102
}
 70
     0
280
     1
281
     0
  0
BLOCK_RECORD
  5
2CB
330
1
100
AcDbSymbolTableRecord
100
AcDbBlockTableRecord
  2
block 8
340
0
102
{BLKREFS
331
2CC
102
}
 70
     0
280
     1
281
     0
  0
BLOCK_RECORD
  5
2D0
330
1
100
AcDbSymbolTableRecord
100
AcDbBlockTableRecord
  2
block 9
340
0
102
{BLKREFS
331
2D1
102
}
 70
     0
280
     1
281
     0
  0
BLOCK_RECORD
  5
2D5
330
1
100
AcDbSymbolTableRecord
100
AcDbBlockTableRecord
  2
block 10
340
0
102
{BLKREFS
331
2D6
102
}
 70
     0
280
     1
281
     0
  0
ENDTAB
  0
ENDSEC
  0
SECTION
  2
BLOCKS
  0
BLOCK
  5
20
330
1F
100
AcDbEntity
  8
0
100
AcDbBlockBegin
  2
*Model_Space
 70
     0
 10
0.0
 20
0.0
 30
0.0
  3
*Model_Space
  1

  0
ENDBLK
  5
21
330
1F
100
AcDbEntity
  8
0
100
AcDbBlockEnd
  0
BLOCK
  5
1C
330
1B
100
AcDbEntity
 67
     1
  8
0
100
AcDbBlockBegin
  2
*Paper_Space
 70
     0
 10
0.0
 20
0.0
 30
0.0
  3
*Paper_Space
  1

  0
ENDBLK
  5
1D
330
1B
100
AcDbEntity
 67
     1
  8
0
100
AcDbBlockEnd
  0
BLOCK
  5
24
330
23
100
AcDbEntity
  8
0
100
AcDbBlockBegin
  2
*Paper_Space0
 70
     0
 10
0.0
 20
0.0
 30
0.0
  3
*Paper_Space0
  1

  0
ENDBLK
  5
25
330
23
100
AcDbEntity
  8
0
100
AcDbBlockEnd
  0
BLOCK
  5
43
330
41
100
AcDbEntity
  8
0
100
AcDbBlockBegin
  2
block 2
 70
     0
 10
0.0
 20
0.0
 30
0.0
  3
block 2
  1

  0
ENDBLK
  5
44
330
41
100
AcDbEntity
  8
0
100
AcDbBlockEnd
  0
BLOCK
  5
47
330
45
100
AcDbEntity
  8
0
100
AcDbBlockBegin
  2
block 3
 70
     0
 10
0.0
 20
0.0
 30
0.0
  3
block 3
  1

  0
POLYLINE
  5
49
330
45
100
AcDbEntity
  8
svg1962
 62
     7
420
 16777215
370
    18
100
AcDb2dPolyline
 66
     1
 10
0.0
 20
0.0
 30
0.0
  0
VERTEX
  5
4A
330
49
100
AcDbEntity
  8
svg1962
 62
     7
420
 16777215
370
    18
100
AcDbVertex
100
AcDb2dVertex
 10
301.6680802756964
 20
457.4449284269303
 30
0.0
  0
VERTEX
  5
4B
330
49
100
AcDbEntity
  8
svg1962
 62
     7
420
 16777215
370
    18
100
AcDbVertex
100
AcDb2dVertex
 10
482.7979533723919
 20
457.4449284269303
 30
0.0
  0
VERTEX
  5
4C
330
49
100
AcDbEntity
  8
svg1962
 62
     7
420
 16777215
370
    18
100
AcDbVertex
100
AcDb2dVertex
 10
482.7979533723919
 20
125.6039009167125
 30
0.0
  0
VERTEX
  5
4D
330
49
100
AcDbEntity
  8
svg1962
 62
     7
420
 16777215
370
    18
100
AcDbVertex
100
AcDb2dVertex
 10
301.6680802756964
 20
125.6039009167125
 30
0.0
  0
VERTEX
  5
4E
330
49
100
AcDbEntity
  8
svg1962
 62
     7
420
 16777215
370
    18
100
AcDbVertex
100
AcDb2dVertex
 10
301.6680802756964
 20
457.4449284269303
 30
0.0
  0
SEQEND
  5
4F
330
49
100
AcDbEntity
  8
svg1962
 62
     7
420
 16777215
370
    18
  0
SPLINE
  5
50
330
45
100
AcDbEntity
  8
svg1962
 62
   178
420
   394758
370
    25
100
AcDbSpline
210
0.0
220
0.0
230
1.0
 70
    11
 71
     3
 72
    17
 73
    13
 74
     0
 42
0.0000000001
 43
0.0000000001
 12
1.0
 22
0.0
 32
0.0
 13
1.0
 23
0.0
 33
0.0
 40
0.0
 40
0.0
 40
0.0
 40
0.0
 40
1.0
 40
1.0
 40
1.0
 40
2.0
 40
2.0
 40
2.0
 40
3.0
 40
3.0
 40
3.0
 40
4.0
 40
4.0
 40
4.0
 40
4.0
 10
336.9261897189899
 20
396.6074045540608
 30
0.0
 10
336.9261897189899
 20
398.134677090502
 30
0.0
 10
335.6881084648667
 20
399.3727583446253
 30
0.0
 10
334.1608575550526
 20
399.3727583446253
 30
0.0
 10
332.6335850186115
 20
399.3727583446253
 30
0.0
 10
331.3955037644882
 20
398.134677090502
 30
0.0
 10
331.3955037644882
 20
396.6074045540608
 30
0.0
 10
331.3955037644882
 20
395.0801320176197
 30
0.0
 10
332.6335850186115
 20
393.8420507634964
 30
0.0
 10
334.1608575550526
 20
393.8420507634964
 30
0.0
 10
335.6881084648667
 20
393.8420507634964
 30
0.0
 10
336.9261897189899
 20
395.0801320176197
 30
0.0
 10
336.9261897189899
 20
396.6074045540608
 30
0.0
  0
SPLINE
  5
51
330
45
100
AcDbEntity
  8
svg1962
 62
   178
420
   394758
370
    25
100
AcDbSpline
210
0.0
220
0.0
230
1.0
 70
    11
 71
     3
 72
    17
 73
    13
 74
     0
 42
0.0000000001
 43
0.0000000001
 12
1.0
 22
0.0
 32
0.0
 13
1.0
 23
0.0
 33
0.0
 40
0.0
 40
0.0
 40
0.0
 40
0.0
 40
1.0
 40
1.0
 40
1.0
 40
2.0
 40
2.0
 40
2.0
 40
3.0
 40
3.0
 40
3.0
 40
4.0
 40
4.0
 40
4.0
 40
4.0
 10
453.0705298836001
 20
396.6074045540608
 30
0.0
 10
453.0705298836001
 20
398.134677090502
 30
0.0
 10
451.8324486294769
 20
399.3727583446253
 30
0.0
 10
450.3051977196628
 20
399.3727583446253
 30
0.0
 10
448.7779251832217
 20
399.3727583446253
 30
0.0
 10
447.5398439290984
 20
398.134677090502
 30
0.0
 10
447.5398439290984
 20
396.6074045540608
 30
0.0
 10
447.5398439290984
 20
395.0801320176197
 30
0.0
 10
448.7779251832217
 20
393.8420507634964
 30
0.0
 10
450.3051977196628
 20
393.8420507634964
 30
0.0
 10
451.8324486294769
 20
393.8420507634964
 30
0.0
 10
453.0705298836001
 20
395.0801320176197
 30
0.0
 10
453.0705298836001
 20
396.6074045540608
 30
0.0
  0
SPLINE
  5
52
330
45
100
AcDbEntity
  8
svg1962
 62
   178
420
   394758
370
    25
100
AcDbSpline
210
0.0
220
0.0
230
1.0
 70
    11
 71
     3
 72
    23
 73
    19
 74
     0
 42
0.0000000001
 43
0.0000000001
 12
1.0
 22
0.0
 32
0.0
 13
1.0
 23
0.0
 33
0.0
 40
0.0
 40
0.0
 40
0.0
 40
0.0
 40
1.0
 40
1.0
 40
1.0
 40
2.0
 40
2.0
 40
2.0
 40
3.0
 40
3.0
 40
3.0
 40
4.0
 40
4.0
 40
4.0
 40
5.0
 40
5.0
 40
5.0
 40
6.0
 40
6.0
 40
6.0
 40
6.0
 10
394.998359801295
 20
396.6074045540608
 30
0.0
 10
394.999289746338
 20
398.134677090502
 30
0.0
 10
393.7619437975991
 20
399.3734936500096
 30
0.0
 10
392.2346928877887
 20
399.3744019684254
 30
0.0
 10
390.7074419779747
 20
399.3753535400992
 30
0.0
 10
389.46860379184
 20
398.1380075913603
 30
0.0
 10
389.4676738467933
 20
396.6107350549191
 30
0.0
 10
389.4676738467933
 20
396.6096537234716
 30
0.0
 10
389.4676738467933
 20
396.6085291387662
 30
0.0
 10
389.4676738467933
 20
396.6074045540608
 30
0.0
 10
389.4667439017503
 20
395.0801320176197
 30
0.0
 10
390.7040898504893
 20
393.8413154581121
 30
0.0
 10
392.2313407602996
 20
393.8404071396963
 30
0.0
 10
393.7585916701137
 20
393.8394555680225
 30
0.0
 10
394.9974298562483
 20
395.0768015167614
 30
0.0
 10
394.998359801295
 20
396.6040740532026
 30
0.0
 10
394.998359801295
 20
396.6051553846501
 30
0.0
 10
394.998359801295
 20
396.6062799693555
 30
0.0
 10
394.998359801295
 20
396.6074045540608
 30
0.0
  0
SPLINE
  5
53
330
45
100
AcDbEntity
  8
svg1962
 62
   178
420
   394758
370
    25
100
AcDbSpline
210
0.0
220
0.0
230
1.0
 70
    11
 71
     3
 72
    17
 73
    13
 74
     0
 42
0.0000000001
 43
0.0000000001
 12
1.0
 22
0.0
 32
0.0
 13
1.0
 23
0.0
 33
0.0
 40
0.0
 40
0.0
 40
0.0
 40
0.0
 40
1.0
 40
1.0
 40
1.0
 40
2.0
 40
2.0
 40
2.0
 40
3.0
 40
3.0
 40
3.0
 40
4.0
 40
4.0
 40
4.0
 40
4.0
 10
416.4297651716515
 20
167.0839915088891
 30
0.0
 10
416.4297651716515
 20
168.6112640453302
 30
0.0
 10
415.1916839175283
 20
169.8493452994535
 30
0.0
 10
413.6644113810871
 20
169.8493452994535
 30
0.0
 10
412.1371604712767
 20
169.8493452994535
 30
0.0
 10
410.8990792171535
 20
168.6112640453302
 30
0.0
 10
410.8990792171535
 20
167.0839915088891
 30
0.0
 10
410.8990792171535
 20
165.5567189724479
 30
0.0
 10
412.1371604712767
 20
164.3186377183247
 30
0.0
 10
413.6644113810871
 20
164.3186377183247
 30
0.0
 10
415.1916839175283
 20
164.3186377183247
 30
0.0
 10
416.4297651716515
 20
165.5567189724479
 30
0.0
 10
416.4297651716515
 20
167.0839915088891
 30
0.0
  0
POLYLINE
  5
54
330
45
100
AcDbEntity
  8
svg1962
 62
   178
420
   394758
370
    25
100
AcDb2dPolyline
 66
     1
 10
0.0
 20
0.0
 30
0.0
  0
VERTEX
  5
55
330
54
100
AcDbEntity
  8
svg1962
 62
   178
420
   394758
370
    25
100
AcDbVertex
100
AcDb2dVertex
 10
352.8269091348484
 20
132.5172421398656
 30
0.0
  0
VERTEX
  5
56
330
54
100
AcDbEntity
  8
svg1962
 62
   178
420
   394758
370
    25
100
AcDbVertex
100
AcDb2dVertex
 10
352.8269091348484
 20
291.5244362984504
 30
0.0
  0
SEQEND
  5
57
330
54
100
AcDbEntity
  8
svg1962
 62
   178
420
   394758
370
    25
  0
POLYLINE
  5
58
330
45
100
AcDbEntity
  8
svg1962
 62
   178
420
   394758
370
    25
100
AcDb2dPolyline
 66
     1
 10
0.0
 20
0.0
 30
0.0
  0
VERTEX
  5
59
330
58
100
AcDbEntity
  8
svg1962
 62
   178
420
   394758
370
    25
100
AcDbVertex
100
AcDb2dVertex
 10
352.8269091348484
 20
291.5244362984504
 30
0.0
  0
VERTEX
  5
5A
330
58
100
AcDbEntity
  8
svg1962
 62
   178
420
   394758
370
    25
100
AcDbVertex
100
AcDb2dVertex
 10
477.267289044521
 20
291.5244362984504
 30
0.0
  0
SEQEND
  5
5B
330
58
100
AcDbEntity
  8
svg1962
 62
   178
420
   394758
370
    25
  0
POLYLINE
  5
5C
330
45
100
AcDbEntity
  8
svg1962
 62
   178
420
   394758
370
    25
100
AcDb2dPolyline
 66
     1
 10
0.0
 20
0.0
 30
0.0
  0
VERTEX
  5
5D
330
5C
100
AcDbEntity
  8
svg1962
 62
   178
420
   394758
370
    25
100
AcDbVertex
100
AcDb2dVertex
 10
477.267289044521
 20
291.5244362984504
 30
0.0
  0
VERTEX
  5
5E
330
5C
100
AcDbEntity
  8
svg1962
 62
   178
420
   394758
370
    25
100
AcDbVertex
100
AcDb2dVertex
 10
477.267289044521
 20
132.5172421398656
 30
0.0
  0
SEQEND
  5
5F
330
5C
100
AcDbEntity
  8
svg1962
 62
   178
420
   394758
370
    25
  0
POLYLINE
  5
60
330
45
100
AcDbEntity
  8
svg1962
 62
   178
420
   394758
370
    25
100
AcDb2dPolyline
 66
     1
 10
0.0
 20
0.0
 30
0.0
  0
VERTEX
  5
61
330
60
100
AcDbEntity
  8
svg1962
 62
   178
420
   394758
370
    25
100
AcDbVertex
100
AcDb2dVertex
 10
477.267289044521
 20
132.5172421398656
 30
0.0
  0
VERTEX
  5
62
330
60
100
AcDbEntity
  8
svg1962
 62
   178
420
   394758
370
    25
100
AcDbVertex
100
AcDb2dVertex
 10
352.8269091348484
 20
132.5172421398656
 30
0.0
  0
SEQEND
  5
63
330
60
100
AcDbEntity
  8
svg1962
 62
   178
420
   394758
370
    25
  0
POLYLINE
  5
64
330
45
100
AcDbEntity
  8
svg1962
 62
   178
420
   394758
370
    25
100
AcDb2dPolyline
 66
     1
 10
0.0
 20
0.0
 30
0.0
  0
VERTEX
  5
65
330
64
100
AcDbEntity
  8
svg1962
 62
   178
420
   394758
370
    25
100
AcDbVertex
100
AcDb2dVertex
 10
359.7402719846286
 20
277.8218474490586
 30
0.0
  0
VERTEX
  5
66
330
64
100
AcDbEntity
  8
svg1962
 62
   178
420
   394758
370
    25
100
AcDbVertex
100
AcDb2dVertex
 10
470.3539478213679
 20
277.8218474490586
 30
0.0
  0
VERTEX
  5
67
330
64
100
AcDbEntity
  8
svg1962
 62
   178
420
   394758
370
    25
100
AcDbVertex
100
AcDb2dVertex
 10
470.3539478213679
 20
139.4306266162766
 30
0.0
  0
VERTEX
  5
68
330
64
100
AcDbEntity
  8
svg1962
 62
   178
420
   394758
370
    25
100
AcDbVertex
100
AcDb2dVertex
 10
359.7402719846286
 20
139.4306266162766
 30
0.0
  0
VERTEX
  5
69
330
64
100
AcDbEntity
  8
svg1962
 62
   178
420
   394758
370
    25
100
AcDbVertex
100
AcDb2dVertex
 10
359.7402719846286
 20
277.8218474490586
 30
0.0
  0
SEQEND
  5
6A
330
64
100
AcDbEntity
  8
svg1962
 62
   178
420
   394758
370
    25
  0
POLYLINE
  5
6B
330
45
100
AcDbEntity
  8
svg1962
 62
   178
420
   394758
370
    25
100
AcDb2dPolyline
 66
     1
 10
0.0
 20
0.0
 30
0.0
  0
VERTEX
  5
6C
330
6B
100
AcDbEntity
  8
svg1962
 62
   178
420
   394758
370
    25
100
AcDbVertex
100
AcDb2dVertex
 10
366.6536132077817
 20
270.7843261224752
 30
0.0
  0
VERTEX
  5
6D
330
6B
100
AcDbEntity
  8
svg1962
 62
   178
420
   394758
370
    25
100
AcDbVertex
100
AcDb2dVertex
 10
463.4405633449569
 20
270.7843261224752
 30
0.0
  0
VERTEX
  5
6E
330
6B
100
AcDbEntity
  8
svg1962
 62
   178
420
   394758
370
    25
100
AcDbVertex
100
AcDb2dVertex
 10
463.4405633449569
 20
139.4306266162766
 30
0.0
  0
VERTEX
  5
6F
330
6B
100
AcDbEntity
  8
svg1962
 62
   178
420
   394758
370
    25
100
AcDbVertex
100
AcDb2dVertex
 10
366.6536132077817
 20
139.4306266162766
 30
0.0
  0
VERTEX
  5
70
330
6B
100
AcDbEntity
  8
svg1962
 62
   178
420
   394758
370
    25
100
AcDbVertex
100
AcDb2dVertex
 10
366.6536132077817
 20
270.7843261224752
 30
0.0
  0
SEQEND
  5
71
330
6B
100
AcDbEntity
  8
svg1962
 62
   178
420
   394758
370
    25
  0
POLYLINE
  5
72
330
45
100
AcDbEntity
  8
svg1962
 62
   178
420
   394758
370
    25
100
AcDb2dPolyline
 66
     1
 10
0.0
 20
0.0
 30
0.0
  0
VERTEX
  5
73
330
72
100
AcDbEntity
  8
svg1962
 62
   178
420
   394758
370
    25
100
AcDbVertex
100
AcDb2dVertex
 10
369.4189669983461
 20
265.2536617946043
 30
0.0
  0
VERTEX
  5
74
330
72
100
AcDbEntity
  8
svg1962
 62
   178
420
   394758
370
    25
100
AcDbVertex
100
AcDb2dVertex
 10
397.0723751442165
 20
265.2536617946043
 30
0.0
  0
SEQEND
  5
75
330
72
100
AcDbEntity
  8
svg1962
 62
   178
420
   394758
370
    25
  0
POLYLINE
  5
76
330
45
100
AcDbEntity
  8
svg1962
 62
   178
420
   394758
370
    25
100
AcDb2dPolyline
 66
     1
 10
0.0
 20
0.0
 30
0.0
  0
VERTEX
  5
77
330
76
100
AcDbEntity
  8
svg1962
 62
   178
420
   394758
370
    25
100
AcDbVertex
100
AcDb2dVertex
 10
397.0723535175894
 20
265.2536617946043
 30
0.0
  0
VERTEX
  5
78
330
76
100
AcDbEntity
  8
svg1962
 62
   178
420
   394758
370
    25
100
AcDbVertex
100
AcDb2dVertex
 10
383.2456494446524
 20
252.8096129903224
 30
0.0
  0
SEQEND
  5
79
330
76
100
AcDbEntity
  8
svg1962
 62
   178
420
   394758
370
    25
  0
POLYLINE
  5
7A
330
45
100
AcDbEntity
  8
svg1962
 62
   178
420
   394758
370
    25
100
AcDb2dPolyline
 66
     1
 10
0.0
 20
0.0
 30
0.0
  0
VERTEX
  5
7B
330
7A
100
AcDbEntity
  8
svg1962
 62
   178
420
   394758
370
    25
100
AcDbVertex
100
AcDb2dVertex
 10
383.2456710712831
 20
252.8096129903224
 30
0.0
  0
VERTEX
  5
7C
330
7A
100
AcDbEntity
  8
svg1962
 62
   178
420
   394758
370
    25
100
AcDbVertex
100
AcDb2dVertex
 10
369.4189669983461
 20
265.2536617946043
 30
0.0
  0
SEQEND
  5
7D
330
7A
100
AcDbEntity
  8
svg1962
 62
   178
420
   394758
370
    25
  0
POLYLINE
  5
7E
330
45
100
AcDbEntity
  8
svg1962
 62
   178
420
   394758
370
    25
100
AcDb2dPolyline
 66
     1
 10
0.0
 20
0.0
 30
0.0
  0
VERTEX
  5
7F
330
7E
100
AcDbEntity
  8
svg1962
 62
   178
420
   394758
370
    25
100
AcDbVertex
100
AcDb2dVertex
 10
401.220384203436
 20
265.2536617946043
 30
0.0
  0
VERTEX
  5
80
330
7E
100
AcDbEntity
  8
svg1962
 62
   178
420
   394758
370
    25
100
AcDbVertex
100
AcDb2dVertex
 10
428.8737923493063
 20
265.2536617946043
 30
0.0
  0
SEQEND
  5
81
330
7E
100
AcDbEntity
  8
svg1962
 62
   178
420
   394758
370
    25
  0
POLYLINE
  5
82
330
45
100
AcDbEntity
  8
svg1962
 62
   178
420
   394758
370
    25
100
AcDb2dPolyline
 66
     1
 10
0.0
 20
0.0
 30
0.0
  0
VERTEX
  5
83
330
82
100
AcDbEntity
  8
svg1962
 62
   178
420
   394758
370
    25
100
AcDbVertex
100
AcDb2dVertex
 10
428.8737923493063
 20
265.2536617946043
 30
0.0
  0
VERTEX
  5
84
330
82
100
AcDbEntity
  8
svg1962
 62
   178
420
   394758
370
    25
100
AcDbVertex
100
AcDb2dVertex
 10
415.0470666497422
 20
252.8096129903224
 30
0.0
  0
SEQEND
  5
85
330
82
100
AcDbEntity
  8
svg1962
 62
   178
420
   394758
370
    25
  0
POLYLINE
  5
86
330
45
100
AcDbEntity
  8
svg1962
 62
   178
420
   394758
370
    25
100
AcDb2dPolyline
 66
     1
 10
0.0
 20
0.0
 30
0.0
  0
VERTEX
  5
87
330
86
100
AcDbEntity
  8
svg1962
 62
   178
420
   394758
370
    25
100
AcDbVertex
100
AcDb2dVertex
 10
415.0470666497422
 20
252.8096129903224
 30
0.0
  0
VERTEX
  5
88
330
86
100
AcDbEntity
  8
svg1962
 62
   178
420
   394758
370
    25
100
AcDbVertex
100
AcDb2dVertex
 10
401.220384203436
 20
265.2536617946043
 30
0.0
  0
SEQEND
  5
89
330
86
100
AcDbEntity
  8
svg1962
 62
   178
420
   394758
370
    25
  0
POLYLINE
  5
8A
330
45
100
AcDbEntity
  8
svg1962
 62
   178
420
   394758
370
    25
100
AcDb2dPolyline
 66
     1
 10
0.0
 20
0.0
 30
0.0
  0
VERTEX
  5
8B
330
8A
100
AcDbEntity
  8
svg1962
 62
   178
420
   394758
370
    25
100
AcDbVertex
100
AcDb2dVertex
 10
433.0218230351529
 20
265.2536617946043
 30
0.0
  0
VERTEX
  5
8C
330
8A
100
AcDbEntity
  8
svg1962
 62
   178
420
   394758
370
    25
100
AcDbVertex
100
AcDb2dVertex
 10
460.6752311810233
 20
265.2536617946043
 30
0.0
  0
SEQEND
  5
8D
330
8A
100
AcDbEntity
  8
svg1962
 62
   178
420
   394758
370
    25
  0
POLYLINE
  5
8E
330
45
100
AcDbEntity
  8
svg1962
 62
   178
420
   394758
370
    25
100
AcDb2dPolyline
 66
     1
 10
0.0
 20
0.0
 30
0.0
  0
VERTEX
  5
8F
330
8E
100
AcDbEntity
  8
svg1962
 62
   178
420
   394758
370
    25
100
AcDbVertex
100
AcDb2dVertex
 10
460.6752311810233
 20
265.2536617946043
 30
0.0
  0
VERTEX
  5
90
330
8E
100
AcDbEntity
  8
svg1962
 62
   178
420
   394758
370
    25
100
AcDbVertex
100
AcDb2dVertex
 10
446.8485054814591
 20
252.8096129903224
 30
0.0
  0
SEQEND
  5
91
330
8E
100
AcDbEntity
  8
svg1962
 62
   178
420
   394758
370
    25
  0
POLYLINE
  5
92
330
45
100
AcDbEntity
  8
svg1962
 62
   178
420
   394758
370
    25
100
AcDb2dPolyline
 66
     1
 10
0.0
 20
0.0
 30
0.0
  0
VERTEX
  5
93
330
92
100
AcDbEntity
  8
svg1962
 62
   178
420
   394758
370
    25
100
AcDbVertex
100
AcDb2dVertex
 10
446.8485054814591
 20
252.8096129903224
 30
0.0
  0
VERTEX
  5
94
330
92
100
AcDbEntity
  8
svg1962
 62
   178
420
   394758
370
    25
100
AcDbVertex
100
AcDb2dVertex
 10
433.0218230351529
 20
265.2536617946043
 30
0.0
  0
SEQEND
  5
95
330
92
100
AcDbEntity
  8
svg1962
 62
   178
420
   394758
370
    25
  0
POLYLINE
  5
96
330
45
100
AcDbEntity
  8
svg1962
 62
   178
420
   394758
370
    25
100
AcDb2dPolyline
 66
     1
 10
0.0
 20
0.0
 30
0.0
  0
VERTEX
  5
97
330
96
100
AcDbEntity
  8
svg1962
 62
   178
420
   394758
370
    25
100
AcDbVertex
100
AcDb2dVertex
 10
384.6283479665653
 20
248.6616255577337
 30
0.0
  0
VERTEX
  5
98
330
96
100
AcDbEntity
  8
svg1962
 62
   178
420
   394758
370
    25
100
AcDbVertex
100
AcDb2dVertex
 10
412.2817344858049
 20
248.6616255577337
 30
0.0
  0
SEQEND
  5
99
330
96
100
AcDbEntity
  8
svg1962
 62
   178
420
   394758
370
    25
  0
POLYLINE
  5
9A
330
45
100
AcDbEntity
  8
svg1962
 62
   178
420
   394758
370
    25
100
AcDb2dPolyline
 66
     1
 10
0.0
 20
0.0
 30
0.0
  0
VERTEX
  5
9B
330
9A
100
AcDbEntity
  8
svg1962
 62
   178
420
   394758
370
    25
100
AcDbVertex
100
AcDb2dVertex
 10
412.2817344858049
 20
248.6616255577337
 30
0.0
  0
VERTEX
  5
9C
330
9A
100
AcDbEntity
  8
svg1962
 62
   178
420
   394758
370
    25
100
AcDbVertex
100
AcDb2dVertex
 10
398.4550520394987
 20
236.2175767534518
 30
0.0
  0
SEQEND
  5
9D
330
9A
100
AcDbEntity
  8
svg1962
 62
   178
420
   394758
370
    25
  0
POLYLINE
  5
9E
330
45
100
AcDbEntity
  8
svg1962
 62
   178
420
   394758
370
    25
100
AcDb2dPolyline
 66
     1
 10
0.0
 20
0.0
 30
0.0
  0
VERTEX
  5
9F
330
9E
100
AcDbEntity
  8
svg1962
 62
   178
420
   394758
370
    25
100
AcDbVertex
100
AcDb2dVertex
 10
398.4550520394987
 20
236.2175767534518
 30
0.0
  0
VERTEX
  5
A0
330
9E
100
AcDbEntity
  8
svg1962
 62
   178
420
   394758
370
    25
100
AcDbVertex
100
AcDb2dVertex
 10
384.6283479665653
 20
248.6616255577337
 30
0.0
  0
SEQEND
  5
A1
330
9E
100
AcDbEntity
  8
svg1962
 62
   178
420
   394758
370
    25
  0
POLYLINE
  5
A2
330
45
100
AcDbEntity
  8
svg1962
 62
   178
420
   394758
370
    25
100
AcDb2dPolyline
 66
     1
 10
0.0
 20
0.0
 30
0.0
  0
VERTEX
  5
A3
330
A2
100
AcDbEntity
  8
svg1962
 62
   178
420
   394758
370
    25
100
AcDbVertex
100
AcDb2dVertex
 10
417.8124420669337
 20
248.6616255577337
 30
0.0
  0
VERTEX
  5
A4
330
A2
100
AcDbEntity
  8
svg1962
 62
   178
420
   394758
370
    25
100
AcDbVertex
100
AcDb2dVertex
 10
445.4658502128041
 20
248.6616255577337
 30
0.0
  0
SEQEND
  5
A5
330
A2
100
AcDbEntity
  8
svg1962
 62
   178
420
   394758
370
    25
  0
POLYLINE
  5
A6
330
45
100
AcDbEntity
  8
svg1962
 62
   178
420
   394758
370
    25
100
AcDb2dPolyline
 66
     1
 10
0.0
 20
0.0
 30
0.0
  0
VERTEX
  5
A7
330
A6
100
AcDbEntity
  8
svg1962
 62
   178
420
   394758
370
    25
100
AcDbVertex
100
AcDb2dVertex
 10
445.4658502128041
 20
248.6616255577337
 30
0.0
  0
VERTEX
  5
A8
330
A6
100
AcDbEntity
  8
svg1962
 62
   178
420
   394758
370
    25
100
AcDbVertex
100
AcDb2dVertex
 10
431.6391245132399
 20
236.2175767534518
 30
0.0
  0
SEQEND
  5
A9
330
A6
100
AcDbEntity
  8
svg1962
 62
   178
420
   394758
370
    25
  0
POLYLINE
  5
AA
330
45
100
AcDbEntity
  8
svg1962
 62
   178
420
   394758
370
    25
100
AcDb2dPolyline
 66
     1
 10
0.0
 20
0.0
 30
0.0
  0
VERTEX
  5
AB
330
AA
100
AcDbEntity
  8
svg1962
 62
   178
420
   394758
370
    25
100
AcDbVertex
100
AcDb2dVertex
 10
431.6391245132399
 20
236.2175767534518
 30
0.0
  0
VERTEX
  5
AC
330
AA
100
AcDbEntity
  8
svg1962
 62
   178
420
   394758
370
    25
100
AcDbVertex
100
AcDb2dVertex
 10
417.8124420669337
 20
248.6616255577337
 30
0.0
  0
SEQEND
  5
AD
330
AA
100
AcDbEntity
  8
svg1962
 62
   178
420
   394758
370
    25
  0
POLYLINE
  5
AE
330
45
100
AcDbEntity
  8
svg1962
 62
   178
420
   394758
370
    25
100
AcDb2dPolyline
 66
     1
 10
0.0
 20
0.0
 30
0.0
  0
VERTEX
  5
AF
330
AE
100
AcDbEntity
  8
svg1962
 62
   178
420
   394758
370
    25
100
AcDbVertex
100
AcDb2dVertex
 10
369.4189669983461
 20
232.0695893208631
 30
0.0
  0
VERTEX
  5
B0
330
AE
100
AcDbEntity
  8
svg1962
 62
   178
420
   394758
370
    25
100
AcDbVertex
100
AcDb2dVertex
 10
397.0723751442165
 20
232.0695893208631
 30
0.0
  0
SEQEND
  5
B1
330
AE
100
AcDbEntity
  8
svg1962
 62
   178
420
   394758
370
    25
  0
POLYLINE
  5
B2
330
45
100
AcDbEntity
  8
svg1962
 62
   178
420
   394758
370
    25
100
AcDb2dPolyline
 66
     1
 10
0.0
 20
0.0
 30
0.0
  0
VERTEX
  5
B3
330
B2
100
AcDbEntity
  8
svg1962
 62
   178
420
   394758
370
    25
100
AcDbVertex
100
AcDb2dVertex
 10
397.0723535175894
 20
232.0695893208631
 30
0.0
  0
VERTEX
  5
B4
330
B2
100
AcDbEntity
  8
svg1962
 62
   178
420
   394758
370
    25
100
AcDbVertex
100
AcDb2dVertex
 10
383.2456494446524
 20
219.6255405165812
 30
0.0
  0
SEQEND
  5
B5
330
B2
100
AcDbEntity
  8
svg1962
 62
   178
420
   394758
370
    25
  0
POLYLINE
  5
B6
330
45
100
AcDbEntity
  8
svg1962
 62
   178
420
   394758
370
    25
100
AcDb2dPolyline
 66
     1
 10
0.0
 20
0.0
 30
0.0
  0
VERTEX
  5
B7
330
B6
100
AcDbEntity
  8
svg1962
 62
   178
420
   394758
370
    25
100
AcDbVertex
100
AcDb2dVertex
 10
383.2456710712831
 20
219.6255405165812
 30
0.0
  0
VERTEX
  5
B8
330
B6
100
AcDbEntity
  8
svg1962
 62
   178
420
   394758
370
    25
100
AcDbVertex
100
AcDb2dVertex
 10
369.4189669983461
 20
232.0695893208631
 30
0.0
  0
SEQEND
  5
B9
330
B6
100
AcDbEntity
  8
svg1962
 62
   178
420
   394758
370
    25
  0
POLYLINE
  5
BA
330
45
100
AcDbEntity
  8
svg1962
 62
   178
420
   394758
370
    25
100
AcDb2dPolyline
 66
     1
 10
0.0
 20
0.0
 30
0.0
  0
VERTEX
  5
BB
330
BA
100
AcDbEntity
  8
svg1962
 62
   178
420
   394758
370
    25
100
AcDbVertex
100
AcDb2dVertex
 10
401.220384203436
 20
232.0695893208631
 30
0.0
  0
VERTEX
  5
BC
330
BA
100
AcDbEntity
  8
svg1962
 62
   178
420
   394758
370
    25
100
AcDbVertex
100
AcDb2dVertex
 10
428.8737923493063
 20
232.0695893208631
 30
0.0
  0
SEQEND
  5
BD
330
BA
100
AcDbEntity
  8
svg1962
 62
   178
420
   394758
370
    25
  0
POLYLINE
  5
BE
330
45
100
AcDbEntity
  8
svg1962
 62
   178
420
   394758
370
    25
100
AcDb2dPolyline
 66
     1
 10
0.0
 20
0.0
 30
0.0
  0
VERTEX
  5
BF
330
BE
100
AcDbEntity
  8
svg1962
 62
   178
420
   394758
370
    25
100
AcDbVertex
100
AcDb2dVertex
 10
428.8737923493063
 20
232.0695893208631
 30
0.0
  0
VERTEX
  5
C0
330
BE
100
AcDbEntity
  8
svg1962
 62
   178
420
   394758
370
    25
100
AcDbVertex
100
AcDb2dVertex
 10
415.0470666497422
 20
219.6255405165812
 30
0.0
  0
SEQEND
  5
C1
330
BE
100
AcDbEntity
  8
svg1962
 62
   178
420
   394758
370
    25
  0
POLYLINE
  5
C2
330
45
100
AcDbEntity
  8
svg1962
 62
   178
420
   394758
370
    25
100
AcDb2dPolyline
 66
     1
 10
0.0
 20
0.0
 30
0.0
  0
VERTEX
  5
C3
330
C2
100
AcDbEntity
  8
svg1962
 62
   178
420
   394758
370
    25
100
AcDbVertex
100
AcDb2dVertex
 10
415.0470666497422
 20
219.6255405165812
 30
0.0
  0
VERTEX
  5
C4
330
C2
100
AcDbEntity
  8
svg1962
 62
   178
420
   394758
370
    25
100
AcDbVertex
100
AcDb2dVertex
 10
401.220384203436
 20
232.0695893208631
 30
0.0
  0
SEQEND
  5
C5
330
C2
100
AcDbEntity
  8
svg1962
 62
   178
420
   394758
370
    25
  0
POLYLINE
  5
C6
330
45
100
AcDbEntity
  8
svg1962
 62
   178
420
   394758
370
    25
100
AcDb2dPolyline
 66
     1
 10
0.0
 20
0.0
 30
0.0
  0
VERTEX
  5
C7
330
C6
100
AcDbEntity
  8
svg1962
 62
   178
420
   394758
370
    25
100
AcDbVertex
100
AcDb2dVertex
 10
433.0218230351529
 20
232.0695893208631
 30
0.0
  0
VERTEX
  5
C8
330
C6
100
AcDbEntity
  8
svg1962
 62
   178
420
   394758
370
    25
100
AcDbVertex
100
AcDb2dVertex
 10
460.6752311810233
 20
232.0695893208631
 30
0.0
  0
SEQEND
  5
C9
330
C6
100
AcDbEntity
  8
svg1962
 62
   178
420
   394758
370
    25
  0
POLYLINE
  5
CA
330
45
100
AcDbEntity
  8
svg1962
 62
   178
420
   394758
370
    25
100
AcDb2dPolyline
 66
     1
 10
0.0
 20
0.0
 30
0.0
  0
VERTEX
  5
CB
330
CA
100
AcDbEntity
  8
svg1962
 62
   178
420
   394758
370
    25
100
AcDbVertex
100
AcDb2dVertex
 10
460.6752311810233
 20
232.0695893208631
 30
0.0
  0
VERTEX
  5
CC
330
CA
100
AcDbEntity
  8
svg1962
 62
   178
420
   394758
370
    25
100
AcDbVertex
100
AcDb2dVertex
 10
446.8485054814591
 20
219.6255405165812
 30
0.0
  0
SEQEND
  5
CD
330
CA
100
AcDbEntity
  8
svg1962
 62
   178
420
   394758
370
    25
  0
POLYLINE
  5
CE
330
45
100
AcDbEntity
  8
svg1962
 62
   178
420
   394758
370
    25
100
AcDb2dPolyline
 66
     1
 10
0.0
 20
0.0
 30
0.0
  0
VERTEX
  5
CF
330
CE
100
AcDbEntity
  8
svg1962
 62
   178
420
   394758
370
    25
100
AcDbVertex
100
AcDb2dVertex
 10
446.8485054814591
 20
219.6255405165812
 30
0.0
  0
VERTEX
  5
D0
330
CE
100
AcDbEntity
  8
svg1962
 62
   178
420
   394758
370
    25
100
AcDbVertex
100
AcDb2dVertex
 10
433.0218230351529
 20
232.0695893208631
 30
0.0
  0
SEQEND
  5
D1
330
CE
100
AcDbEntity
  8
svg1962
 62
   178
420
   394758
370
    25
  0
POLYLINE
  5
D2
330
45
100
AcDbEntity
  8
svg1962
 62
   178
420
   394758
370
    25
100
AcDb2dPolyline
 66
     1
 10
0.0
 20
0.0
 30
0.0
  0
VERTEX
  5
D3
330
D2
100
AcDbEntity
  8
svg1962
 62
   178
420
   394758
370
    25
100
AcDbVertex
100
AcDb2dVertex
 10
370.8016222670012
 20
171.2320654479936
 30
0.0
  0
VERTEX
  5
D4
330
D2
100
AcDbEntity
  8
svg1962
 62
   178
420
   394758
370
    25
100
AcDbVertex
100
AcDb2dVertex
 10
398.4550304128716
 20
171.2320654479936
 30
0.0
  0
SEQEND
  5
D5
330
D2
100
AcDbEntity
  8
svg1962
 62
   178
420
   394758
370
    25
  0
POLYLINE
  5
D6
330
45
100
AcDbEntity
  8
svg1962
 62
   178
420
   394758
370
    25
100
AcDb2dPolyline
 66
     1
 10
0.0
 20
0.0
 30
0.0
  0
VERTEX
  5
D7
330
D6
100
AcDbEntity
  8
svg1962
 62
   178
420
   394758
370
    25
100
AcDbVertex
100
AcDb2dVertex
 10
398.4550520394987
 20
171.2320654479936
 30
0.0
  0
VERTEX
  5
D8
330
D6
100
AcDbEntity
  8
svg1962
 62
   178
420
   394758
370
    25
100
AcDbVertex
100
AcDb2dVertex
 10
384.6283479665653
 20
158.7880166437117
 30
0.0
  0
SEQEND
  5
D9
330
D6
100
AcDbEntity
  8
svg1962
 62
   178
420
   394758
370
    25
  0
POLYLINE
  5
DA
330
45
100
AcDbEntity
  8
svg1962
 62
   178
420
   394758
370
    25
100
AcDb2dPolyline
 66
     1
 10
0.0
 20
0.0
 30
0.0
  0
VERTEX
  5
DB
330
DA
100
AcDbEntity
  8
svg1962
 62
   178
420
   394758
370
    25
100
AcDbVertex
100
AcDb2dVertex
 10
384.6283479665653
 20
158.7879733904538
 30
0.0
  0
VERTEX
  5
DC
330
DA
100
AcDbEntity
  8
svg1962
 62
   178
420
   394758
370
    25
100
AcDbVertex
100
AcDb2dVertex
 10
370.8016438936284
 20
171.2320221947357
 30
0.0
  0
SEQEND
  5
DD
330
DA
100
AcDbEntity
  8
svg1962
 62
   178
420
   394758
370
    25
  0
POLYLINE
  5
DE
330
45
100
AcDbEntity
  8
svg1962
 62
   178
420
   394758
370
    25
100
AcDb2dPolyline
 66
     1
 10
0.0
 20
0.0
 30
0.0
  0
VERTEX
  5
DF
330
DE
100
AcDbEntity
  8
svg1962
 62
   178
420
   394758
370
    25
100
AcDbVertex
100
AcDb2dVertex
 10
402.6030394720874
 20
171.2320654479936
 30
0.0
  0
VERTEX
  5
E0
330
DE
100
AcDbEntity
  8
svg1962
 62
   178
420
   394758
370
    25
100
AcDbVertex
100
AcDb2dVertex
 10
430.2564908712156
 20
171.2320654479936
 30
0.0
  0
SEQEND
  5
E1
330
DE
100
AcDbEntity
  8
svg1962
 62
   178
420
   394758
370
    25
  0
POLYLINE
  5
E2
330
45
100
AcDbEntity
  8
svg1962
 62
   178
420
   394758
370
    25
100
AcDb2dPolyline
 66
     1
 10
0.0
 20
0.0
 30
0.0
  0
VERTEX
  5
E3
330
E2
100
AcDbEntity
  8
svg1962
 62
   178
420
   394758
370
    25
100
AcDbVertex
100
AcDb2dVertex
 10
430.2564692445885
 20
171.2320654479936
 30
0.0
  0
VERTEX
  5
E4
330
E2
100
AcDbEntity
  8
svg1962
 62
   178
420
   394758
370
    25
100
AcDbVertex
100
AcDb2dVertex
 10
416.4297435450244
 20
158.7880166437117
 30
0.0
  0
SEQEND
  5
E5
330
E2
100
AcDbEntity
  8
svg1962
 62
   178
420
   394758
370
    25
  0
POLYLINE
  5
E6
330
45
100
AcDbEntity
  8
svg1962
 62
   178
420
   394758
370
    25
100
AcDb2dPolyline
 66
     1
 10
0.0
 20
0.0
 30
0.0
  0
VERTEX
  5
E7
330
E6
100
AcDbEntity
  8
svg1962
 62
   178
420
   394758
370
    25
100
AcDbVertex
100
AcDb2dVertex
 10
416.4297651716515
 20
158.7879733904538
 30
0.0
  0
VERTEX
  5
E8
330
E6
100
AcDbEntity
  8
svg1962
 62
   178
420
   394758
370
    25
100
AcDbVertex
100
AcDb2dVertex
 10
402.6030394720874
 20
171.2320221947357
 30
0.0
  0
SEQEND
  5
E9
330
E6
100
AcDbEntity
  8
svg1962
 62
   178
420
   394758
370
    25
  0
POLYLINE
  5
EA
330
45
100
AcDbEntity
  8
svg1962
 62
   178
420
   394758
370
    25
100
AcDb2dPolyline
 66
     1
 10
0.0
 20
0.0
 30
0.0
  0
VERTEX
  5
EB
330
EA
100
AcDbEntity
  8
svg1962
 62
   178
420
   394758
370
    25
100
AcDbVertex
100
AcDb2dVertex
 10
434.4044783038044
 20
171.2320654479936
 30
0.0
  0
VERTEX
  5
EC
330
EA
100
AcDbEntity
  8
svg1962
 62
   178
420
   394758
370
    25
100
AcDbVertex
100
AcDb2dVertex
 10
462.0579080763055
 20
171.2320654479936
 30
0.0
  0
SEQEND
  5
ED
330
EA
100
AcDbEntity
  8
svg1962
 62
   178
420
   394758
370
    25
  0
POLYLINE
  5
EE
330
45
100
AcDbEntity
  8
svg1962
 62
   178
420
   394758
370
    25
100
AcDb2dPolyline
 66
     1
 10
0.0
 20
0.0
 30
0.0
  0
VERTEX
  5
EF
330
EE
100
AcDbEntity
  8
svg1962
 62
   178
420
   394758
370
    25
100
AcDbVertex
100
AcDb2dVertex
 10
462.0579080763055
 20
171.2320654479936
 30
0.0
  0
VERTEX
  5
F0
330
EE
100
AcDbEntity
  8
svg1962
 62
   178
420
   394758
370
    25
100
AcDbVertex
100
AcDb2dVertex
 10
448.2311823767413
 20
158.7880166437117
 30
0.0
  0
SEQEND
  5
F1
330
EE
100
AcDbEntity
  8
svg1962
 62
   178
420
   394758
370
    25
  0
POLYLINE
  5
F2
330
45
100
AcDbEntity
  8
svg1962
 62
   178
420
   394758
370
    25
100
AcDb2dPolyline
 66
     1
 10
0.0
 20
0.0
 30
0.0
  0
VERTEX
  5
F3
330
F2
100
AcDbEntity
  8
svg1962
 62
   178
420
   394758
370
    25
100
AcDbVertex
100
AcDb2dVertex
 10
448.2312040033685
 20
158.7879733904538
 30
0.0
  0
VERTEX
  5
F4
330
F2
100
AcDbEntity
  8
svg1962
 62
   178
420
   394758
370
    25
100
AcDbVertex
100
AcDb2dVertex
 10
434.4044783038044
 20
171.2320221947357
 30
0.0
  0
SEQEND
  5
F5
330
F2
100
AcDbEntity
  8
svg1962
 62
   178
420
   394758
370
    25
  0
POLYLINE
  5
F6
330
45
100
AcDbEntity
  8
svg1962
 62
   178
420
   394758
370
    25
100
AcDb2dPolyline
 66
     1
 10
0.0
 20
0.0
 30
0.0
  0
VERTEX
  5
F7
330
F6
100
AcDbEntity
  8
svg1962
 62
   178
420
   394758
370
    25
100
AcDbVertex
100
AcDb2dVertex
 10
386.0110032352168
 20
154.640029211123
 30
0.0
  0
VERTEX
  5
F8
330
F6
100
AcDbEntity
  8
svg1962
 62
   178
420
   394758
370
    25
100
AcDbVertex
100
AcDb2dVertex
 10
413.6644113810871
 20
154.640029211123
 30
0.0
  0
SEQEND
  5
F9
330
F6
100
AcDbEntity
  8
svg1962
 62
   178
420
   394758
370
    25
  0
POLYLINE
  5
FA
330
45
100
AcDbEntity
  8
svg1962
 62
   178
420
   394758
370
    25
100
AcDb2dPolyline
 66
     1
 10
0.0
 20
0.0
 30
0.0
  0
VERTEX
  5
FB
330
FA
100
AcDbEntity
  8
svg1962
 62
   178
420
   394758
370
    25
100
AcDbVertex
100
AcDb2dVertex
 10
413.6644113810871
 20
154.640029211123
 30
0.0
  0
VERTEX
  5
FC
330
FA
100
AcDbEntity
  8
svg1962
 62
   178
420
   394758
370
    25
100
AcDbVertex
100
AcDb2dVertex
 10
399.837685681523
 20
142.195980406841
 30
0.0
  0
SEQEND
  5
FD
330
FA
100
AcDbEntity
  8
svg1962
 62
   178
420
   394758
370
    25
  0
POLYLINE
  5
FE
330
45
100
AcDbEntity
  8
svg1962
 62
   178
420
   394758
370
    25
100
AcDb2dPolyline
 66
     1
 10
0.0
 20
0.0
 30
0.0
  0
VERTEX
  5
FF
330
FE
100
AcDbEntity
  8
svg1962
 62
   178
420
   394758
370
    25
100
AcDbVertex
100
AcDb2dVertex
 10
399.8377073081538
 20
142.195980406841
 30
0.0
  0
VERTEX
  5
100
330
FE
100
AcDbEntity
  8
svg1962
 62
   178
420
   394758
370
    25
100
AcDbVertex
100
AcDb2dVertex
 10
386.0110248618475
 20
154.640029211123
 30
0.0
  0
SEQEND
  5
101
330
FE
100
AcDbEntity
  8
svg1962
 62
   178
420
   394758
370
    25
  0
POLYLINE
  5
102
330
45
100
AcDbEntity
  8
svg1962
 62
   178
420
   394758
370
    25
100
AcDb2dPolyline
 66
     1
 10
0.0
 20
0.0
 30
0.0
  0
VERTEX
  5
103
330
102
100
AcDbEntity
  8
svg1962
 62
   178
420
   394758
370
    25
100
AcDbVertex
100
AcDb2dVertex
 10
419.1950973355888
 20
154.640029211123
 30
0.0
  0
VERTEX
  5
104
330
102
100
AcDbEntity
  8
svg1962
 62
   178
420
   394758
370
    25
100
AcDbVertex
100
AcDb2dVertex
 10
446.8485054814591
 20
154.640029211123
 30
0.0
  0
SEQEND
  5
105
330
102
100
AcDbEntity
  8
svg1962
 62
   178
420
   394758
370
    25
  0
POLYLINE
  5
106
330
45
100
AcDbEntity
  8
svg1962
 62
   178
420
   394758
370
    25
100
AcDb2dPolyline
 66
     1
 10
0.0
 20
0.0
 30
0.0
  0
VERTEX
  5
107
330
106
100
AcDbEntity
  8
svg1962
 62
   178
420
   394758
370
    25
100
AcDbVertex
100
AcDb2dVertex
 10
446.8485054814591
 20
154.640029211123
 30
0.0
  0
VERTEX
  5
108
330
106
100
AcDbEntity
  8
svg1962
 62
   178
420
   394758
370
    25
100
AcDbVertex
100
AcDb2dVertex
 10
433.0218230351529
 20
142.195980406841
 30
0.0
  0
SEQEND
  5
109
330
106
100
AcDbEntity
  8
svg1962
 62
   178
420
   394758
370
    25
  0
POLYLINE
  5
10A
330
45
100
AcDbEntity
  8
svg1962
 62
   178
420
   394758
370
    25
100
AcDb2dPolyline
 66
     1
 10
0.0
 20
0.0
 30
0.0
  0
VERTEX
  5
10B
330
10A
100
AcDbEntity
  8
svg1962
 62
   178
420
   394758
370
    25
100
AcDbVertex
100
AcDb2dVertex
 10
433.0218230351529
 20
142.195980406841
 30
0.0
  0
VERTEX
  5
10C
330
10A
100
AcDbEntity
  8
svg1962
 62
   178
420
   394758
370
    25
100
AcDbVertex
100
AcDb2dVertex
 10
419.1950973355888
 20
154.640029211123
 30
0.0
  0
SEQEND
  5
10D
330
10A
100
AcDbEntity
  8
svg1962
 62
   178
420
   394758
370
    25
  0
POLYLINE
  5
10E
330
45
100
AcDbEntity
  8
svg1962
 62
   178
420
   394758
370
    25
100
AcDb2dPolyline
 66
     1
 10
0.0
 20
0.0
 30
0.0
  0
VERTEX
  5
10F
330
10E
100
AcDbEntity
  8
svg1962
 62
   178
420
   394758
370
    25
100
AcDbVertex
100
AcDb2dVertex
 10
337.6175281666292
 20
396.6074045540608
 30
0.0
  0
VERTEX
  5
110
330
10E
100
AcDbEntity
  8
svg1962
 62
   178
420
   394758
370
    25
100
AcDbVertex
100
AcDb2dVertex
 10
330.704165316849
 20
396.6074045540608
 30
0.0
  0
SEQEND
  5
111
330
10E
100
AcDbEntity
  8
svg1962
 62
   178
420
   394758
370
    25
  0
POLYLINE
  5
112
330
45
100
AcDbEntity
  8
svg1962
 62
   178
420
   394758
370
    25
100
AcDb2dPolyline
 66
     1
 10
0.0
 20
0.0
 30
0.0
  0
VERTEX
  5
113
330
112
100
AcDbEntity
  8
svg1962
 62
   178
420
   394758
370
    25
100
AcDbVertex
100
AcDb2dVertex
 10
334.1608575550526
 20
396.6074045540608
 30
0.0
  0
VERTEX
  5
114
330
112
100
AcDbEntity
  8
svg1962
 62
   178
420
   394758
370
    25
100
AcDbVertex
100
AcDb2dVertex
 10
334.1608575550526
 20
400.7554352399075
 30
0.0
  0
SEQEND
  5
115
330
112
100
AcDbEntity
  8
svg1962
 62
   178
420
   394758
370
    25
  0
POLYLINE
  5
116
330
45
100
AcDbEntity
  8
svg1962
 62
   178
420
   394758
370
    25
100
AcDb2dPolyline
 66
     1
 10
0.0
 20
0.0
 30
0.0
  0
VERTEX
  5
117
330
116
100
AcDbEntity
  8
svg1962
 62
   178
420
   394758
370
    25
100
AcDbVertex
100
AcDb2dVertex
 10
334.1608575550526
 20
396.6074045540608
 30
0.0
  0
VERTEX
  5
118
330
116
100
AcDbEntity
  8
svg1962
 62
   178
420
   394758
370
    25
100
AcDbVertex
100
AcDb2dVertex
 10
334.1608575550526
 20
392.4594171214721
 30
0.0
  0
SEQEND
  5
119
330
116
100
AcDbEntity
  8
svg1962
 62
   178
420
   394758
370
    25
  0
POLYLINE
  5
11A
330
45
100
AcDbEntity
  8
svg1962
 62
   178
420
   394758
370
    25
100
AcDb2dPolyline
 66
     1
 10
0.0
 20
0.0
 30
0.0
  0
VERTEX
  5
11B
330
11A
100
AcDbEntity
  8
svg1962
 62
   178
420
   394758
370
    25
100
AcDbVertex
100
AcDb2dVertex
 10
395.6896982489343
 20
396.6074045540608
 30
0.0
  0
VERTEX
  5
11C
330
11A
100
AcDbEntity
  8
svg1962
 62
   178
420
   394758
370
    25
100
AcDbVertex
100
AcDb2dVertex
 10
388.776335399154
 20
396.6074045540608
 30
0.0
  0
SEQEND
  5
11D
330
11A
100
AcDbEntity
  8
svg1962
 62
   178
420
   394758
370
    25
  0
POLYLINE
  5
11E
330
45
100
AcDbEntity
  8
svg1962
 62
   178
420
   394758
370
    25
100
AcDb2dPolyline
 66
     1
 10
0.0
 20
0.0
 30
0.0
  0
VERTEX
  5
11F
330
11E
100
AcDbEntity
  8
svg1962
 62
   178
420
   394758
370
    25
100
AcDbVertex
100
AcDb2dVertex
 10
392.2330276373577
 20
396.6074045540608
 30
0.0
  0
VERTEX
  5
120
330
11E
100
AcDbEntity
  8
svg1962
 62
   178
420
   394758
370
    25
100
AcDbVertex
100
AcDb2dVertex
 10
392.2330276373577
 20
400.7554352399075
 30
0.0
  0
SEQEND
  5
121
330
11E
100
AcDbEntity
  8
svg1962
 62
   178
420
   394758
370
    25
  0
POLYLINE
  5
122
330
45
100
AcDbEntity
  8
svg1962
 62
   178
420
   394758
370
    25
100
AcDb2dPolyline
 66
     1
 10
0.0
 20
0.0
 30
0.0
  0
VERTEX
  5
123
330
122
100
AcDbEntity
  8
svg1962
 62
   178
420
   394758
370
    25
100
AcDbVertex
100
AcDb2dVertex
 10
392.2330276373577
 20
396.6074045540608
 30
0.0
  0
VERTEX
  5
124
330
122
100
AcDbEntity
  8
svg1962
 62
   178
420
   394758
370
    25
100
AcDbVertex
100
AcDb2dVertex
 10
392.2330276373577
 20
392.4594171214721
 30
0.0
  0
SEQEND
  5
125
330
122
100
AcDbEntity
  8
svg1962
 62
   178
420
   394758
370
    25
  0
POLYLINE
  5
126
330
45
100
AcDbEntity
  8
svg1962
 62
   178
420
   394758
370
    25
100
AcDb2dPolyline
 66
     1
 10
0.0
 20
0.0
 30
0.0
  0
VERTEX
  5
127
330
126
100
AcDbEntity
  8
svg1962
 62
   178
420
   394758
370
    25
100
AcDbVertex
100
AcDb2dVertex
 10
453.7618683312394
 20
396.6074045540608
 30
0.0
  0
VERTEX
  5
128
330
126
100
AcDbEntity
  8
svg1962
 62
   178
420
   394758
370
    25
100
AcDbVertex
100
AcDb2dVertex
 10
446.8485054814591
 20
396.6074045540608
 30
0.0
  0
SEQEND
  5
129
330
126
100
AcDbEntity
  8
svg1962
 62
   178
420
   394758
370
    25
  0
POLYLINE
  5
12A
330
45
100
AcDbEntity
  8
svg1962
 62
   178
420
   394758
370
    25
100
AcDb2dPolyline
 66
     1
 10
0.0
 20
0.0
 30
0.0
  0
VERTEX
  5
12B
330
12A
100
AcDbEntity
  8
svg1962
 62
   178
420
   394758
370
    25
100
AcDbVertex
100
AcDb2dVertex
 10
450.3051977196628
 20
396.6074045540608
 30
0.0
  0
VERTEX
  5
12C
330
12A
100
AcDbEntity
  8
svg1962
 62
   178
420
   394758
370
    25
100
AcDbVertex
100
AcDb2dVertex
 10
450.3051977196628
 20
400.7554352399075
 30
0.0
  0
SEQEND
  5
12D
330
12A
100
AcDbEntity
  8
svg1962
 62
   178
420
   394758
370
    25
  0
POLYLINE
  5
12E
330
45
100
AcDbEntity
  8
svg1962
 62
   178
420
   394758
370
    25
100
AcDb2dPolyline
 66
     1
 10
0.0
 20
0.0
 30
0.0
  0
VERTEX
  5
12F
330
12E
100
AcDbEntity
  8
svg1962
 62
   178
420
   394758
370
    25
100
AcDbVertex
100
AcDb2dVertex
 10
450.3051977196628
 20
396.6074045540608
 30
0.0
  0
VERTEX
  5
130
330
12E
100
AcDbEntity
  8
svg1962
 62
   178
420
   394758
370
    25
100
AcDbVertex
100
AcDb2dVertex
 10
450.3051977196628
 20
392.4594171214721
 30
0.0
  0
SEQEND
  5
131
330
12E
100
AcDbEntity
  8
svg1962
 62
   178
420
   394758
370
    25
  0
POLYLINE
  5
132
330
45
100
AcDbEntity
  8
svg1962
 62
   178
420
   394758
370
    25
100
AcDb2dPolyline
 66
     1
 10
0.0
 20
0.0
 30
0.0
  0
VERTEX
  5
133
330
132
100
AcDbEntity
  8
svg1962
 62
   178
420
   394758
370
    25
100
AcDbVertex
100
AcDb2dVertex
 10
417.1211036192944
 20
167.0839915088891
 30
0.0
  0
VERTEX
  5
134
330
132
100
AcDbEntity
  8
svg1962
 62
   178
420
   394758
370
    25
100
AcDbVertex
100
AcDb2dVertex
 10
410.2077407695106
 20
167.0839915088891
 30
0.0
  0
SEQEND
  5
135
330
132
100
AcDbEntity
  8
svg1962
 62
   178
420
   394758
370
    25
  0
POLYLINE
  5
136
330
45
100
AcDbEntity
  8
svg1962
 62
   178
420
   394758
370
    25
100
AcDb2dPolyline
 66
     1
 10
0.0
 20
0.0
 30
0.0
  0
VERTEX
  5
137
330
136
100
AcDbEntity
  8
svg1962
 62
   178
420
   394758
370
    25
100
AcDbVertex
100
AcDb2dVertex
 10
413.6644113810871
 20
167.0839915088891
 30
0.0
  0
VERTEX
  5
138
330
136
100
AcDbEntity
  8
svg1962
 62
   178
420
   394758
370
    25
100
AcDbVertex
100
AcDb2dVertex
 10
413.6644113810871
 20
171.2320221947357
 30
0.0
  0
SEQEND
  5
139
330
136
100
AcDbEntity
  8
svg1962
 62
   178
420
   394758
370
    25
  0
POLYLINE
  5
13A
330
45
100
AcDbEntity
  8
svg1962
 62
   178
420
   394758
370
    25
100
AcDb2dPolyline
 66
     1
 10
0.0
 20
0.0
 30
0.0
  0
VERTEX
  5
13B
330
13A
100
AcDbEntity
  8
svg1962
 62
   178
420
   394758
370
    25
100
AcDbVertex
100
AcDb2dVertex
 10
413.6644113810871
 20
167.0839915088891
 30
0.0
  0
VERTEX
  5
13C
330
13A
100
AcDbEntity
  8
svg1962
 62
   178
420
   394758
370
    25
100
AcDbVertex
100
AcDb2dVertex
 10
413.6644113810871
 20
162.9360040763004
 30
0.0
  0
SEQEND
  5
13D
330
13A
100
AcDbEntity
  8
svg1962
 62
   178
420
   394758
370
    25
  0
POLYLINE
  5
13E
330
45
100
AcDbEntity
  8
svg1962
 62
   178
420
   394758
370
    25
100
AcDb2dPolyline
 66
     1
 10
0.0
 20
0.0
 30
0.0
  0
VERTEX
  5
13F
330
13E
100
AcDbEntity
  8
svg1962
 62
   178
420
   394758
370
    25
100
AcDbVertex
100
AcDb2dVertex
 10
366.6536132077817
 20
270.7843261224752
 30
0.0
  0
VERTEX
  5
140
330
13E
100
AcDbEntity
  8
svg1962
 62
   178
420
   394758
370
    25
100
AcDbVertex
100
AcDb2dVertex
 10
359.7402503580015
 20
277.8218474490586
 30
0.0
  0
SEQEND
  5
141
330
13E
100
AcDbEntity
  8
svg1962
 62
   178
420
   394758
370
    25
  0
POLYLINE
  5
142
330
45
100
AcDbEntity
  8
svg1962
 62
   178
420
   394758
370
    25
100
AcDb2dPolyline
 66
     1
 10
0.0
 20
0.0
 30
0.0
  0
VERTEX
  5
143
330
142
100
AcDbEntity
  8
svg1962
 62
   178
420
   394758
370
    25
100
AcDbVertex
100
AcDb2dVertex
 10
359.7402719846286
 20
277.8218474490586
 30
0.0
  0
VERTEX
  5
144
330
142
100
AcDbEntity
  8
svg1962
 62
   178
420
   394758
370
    25
100
AcDbVertex
100
AcDb2dVertex
 10
359.7402719846286
 20
277.8218474490586
 30
0.0
  0
SEQEND
  5
145
330
142
100
AcDbEntity
  8
svg1962
 62
   178
420
   394758
370
    25
  0
POLYLINE
  5
146
330
45
100
AcDbEntity
  8
svg1962
 62
   178
420
   394758
370
    25
100
AcDb2dPolyline
 66
     1
 10
0.0
 20
0.0
 30
0.0
  0
VERTEX
  5
147
330
146
100
AcDbEntity
  8
svg1962
 62
   178
420
   394758
370
    25
100
AcDbVertex
100
AcDb2dVertex
 10
359.7402719846286
 20
277.8218474490586
 30
0.0
  0
VERTEX
  5
148
330
146
100
AcDbEntity
  8
svg1962
 62
   178
420
   394758
370
    25
100
AcDbVertex
100
AcDb2dVertex
 10
352.8269091348484
 20
291.5243930451925
 30
0.0
  0
SEQEND
  5
149
330
146
100
AcDbEntity
  8
svg1962
 62
   178
420
   394758
370
    25
  0
POLYLINE
  5
14A
330
45
100
AcDbEntity
  8
svg1962
 62
   178
420
   394758
370
    25
100
AcDb2dPolyline
 66
     1
 10
0.0
 20
0.0
 30
0.0
  0
VERTEX
  5
14B
330
14A
100
AcDbEntity
  8
svg1962
 62
   178
420
   394758
370
    25
100
AcDbVertex
100
AcDb2dVertex
 10
463.4405633449569
 20
270.7843261224752
 30
0.0
  0
VERTEX
  5
14C
330
14A
100
AcDbEntity
  8
svg1962
 62
   178
420
   394758
370
    25
100
AcDbVertex
100
AcDb2dVertex
 10
470.35390456811
 20
277.8218474490586
 30
0.0
  0
SEQEND
  5
14D
330
14A
100
AcDbEntity
  8
svg1962
 62
   178
420
   394758
370
    25
  0
POLYLINE
  5
14E
330
45
100
AcDbEntity
  8
svg1962
 62
   178
420
   394758
370
    25
100
AcDb2dPolyline
 66
     1
 10
0.0
 20
0.0
 30
0.0
  0
VERTEX
  5
14F
330
14E
100
AcDbEntity
  8
svg1962
 62
   178
420
   394758
370
    25
100
AcDbVertex
100
AcDb2dVertex
 10
470.3539478213679
 20
277.8218474490586
 30
0.0
  0
VERTEX
  5
150
330
14E
100
AcDbEntity
  8
svg1962
 62
   178
420
   394758
370
    25
100
AcDbVertex
100
AcDb2dVertex
 10
477.267289044521
 20
291.5243930451925
 30
0.0
  0
SEQEND
  5
151
330
14E
100
AcDbEntity
  8
svg1962
 62
   178
420
   394758
370
    25
  0
INSERT
  5
153
330
45
100
AcDbEntity
  8
svg1962
100
AcDbBlockReference
  2
block 4
 10
0.0
 20
0.0
 30
0.0
  0
POLYLINE
  5
158
330
45
100
AcDbEntity
  8
svg1962
 62
   178
420
   394758
370
    25
100
AcDb2dPolyline
 66
     1
 10
0.0
 20
0.0
 30
0.0
  0
VERTEX
  5
159
330
158
100
AcDbEntity
  8
svg1962
 62
   178
420
   394758
370
    25
100
AcDbVertex
100
AcDb2dVertex
 10
337.6175281666292
 20
396.6074045540608
 30
0.0
  0
VERTEX
  5
15A
330
158
100
AcDbEntity
  8
svg1962
 62
   178
420
   394758
370
    25
100
AcDbVertex
100
AcDb2dVertex
 10
330.704165316849
 20
396.6074045540608
 30
0.0
  0
SEQEND
  5
15B
330
158
100
AcDbEntity
  8
svg1962
 62
   178
420
   394758
370
    25
  0
POLYLINE
  5
15C
330
45
100
AcDbEntity
  8
svg1962
 62
   178
420
   394758
370
    25
100
AcDb2dPolyline
 66
     1
 10
0.0
 20
0.0
 30
0.0
  0
VERTEX
  5
15D
330
15C
100
AcDbEntity
  8
svg1962
 62
   178
420
   394758
370
    25
100
AcDbVertex
100
AcDb2dVertex
 10
334.1608575550526
 20
396.6074045540608
 30
0.0
  0
VERTEX
  5
15E
330
15C
100
AcDbEntity
  8
svg1962
 62
   178
420
   394758
370
    25
100
AcDbVertex
100
AcDb2dVertex
 10
334.1608575550526
 20
400.7554352399075
 30
0.0
  0
SEQEND
  5
15F
330
15C
100
AcDbEntity
  8
svg1962
 62
   178
420
   394758
370
    25
  0
SPLINE
  5
160
330
45
100
AcDbEntity
  8
svg1962
 62
   178
420
   394758
370
    25
100
AcDbSpline
210
0.0
220
0.0
230
1.0
 70
    11
 71
     3
 72
    23
 73
    19
 74
     0
 42
0.0000000001
 43
0.0000000001
 12
1.0
 22
0.0
 32
0.0
 13
1.0
 23
0.0
 33
0.0
 40
0.0
 40
0.0
 40
0.0
 40
0.0
 40
1.0
 40
1.0
 40
1.0
 40
2.0
 40
2.0
 40
2.0
 40
3.0
 40
3.0
 40
3.0
 40
4.0
 40
4.0
 40
4.0
 40
5.0
 40
5.0
 40
5.0
 40
6.0
 40
6.0
 40
6.0
 40
6.0
 10
336.9261897189899
 20
396.6074045540608
 30
0.0
 10
336.9269466510013
 20
398.1729562237433
 30
0.0
 10
335.6584583565746
 20
399.4426556093913
 30
0.0
 10
334.0929283135229
 20
399.4434341680335
 30
0.0
 10
332.5273982704675
 20
399.4442127266757
 30
0.0
 10
331.2576556315616
 20
398.1757244322489
 30
0.0
 10
331.2568986995502
 20
396.6101727625664
 30
0.0
 10
331.2568986995502
 20
396.6092644441505
 30
0.0
 10
331.2568986995502
 20
396.6083128724767
 30
0.0
 10
331.2568986995502
 20
396.6074045540608
 30
0.0
 10
331.2561417675352
 20
395.0418528843784
 30
0.0
 10
332.5246300619619
 20
393.7721534987304
 30
0.0
 10
334.0901601050173
 20
393.7713749400882
 30
0.0
 10
335.655690148069
 20
393.770596381446
 30
0.0
 10
336.9254327869749
 20
395.0390846758728
 30
0.0
 10
336.9261897189899
 20
396.6046363455553
 30
0.0
 10
336.9261897189899
 20
396.6055446639712
 30
0.0
 10
336.9261897189899
 20
396.606496235645
 30
0.0
 10
336.9261897189899
 20
396.6074045540608
 30
0.0
  0
SPLINE
  5
161
330
45
100
AcDbEntity
  8
svg1962
 62
   178
420
   394758
370
    25
100
AcDbSpline
210
0.0
220
0.0
230
1.0
 70
    11
 71
     3
 72
    23
 73
    19
 74
     0
 42
0.0000000001
 43
0.0000000001
 12
1.0
 22
0.0
 32
0.0
 13
1.0
 23
0.0
 33
0.0
 40
0.0
 40
0.0
 40
0.0
 40
0.0
 40
1.0
 40
1.0
 40
1.0
 40
2.0
 40
2.0
 40
2.0
 40
3.0
 40
3.0
 40
3.0
 40
4.0
 40
4.0
 40
4.0
 40
5.0
 40
5.0
 40
5.0
 40
6.0
 40
6.0
 40
6.0
 40
6.0
 10
453.0532069538094
 20
396.6074045540608
 30
0.0
 10
453.0539638858245
 20
398.1729562237433
 30
0.0
 10
451.7854755913977
 20
399.4426556093913
 30
0.0
 10
450.2199455483424
 20
399.4434341680335
 30
0.0
 10
448.6544155052907
 20
399.4442127266757
 30
0.0
 10
447.3846728663848
 20
398.1757244322489
 30
0.0
 10
447.3839159343697
 20
396.6101727625664
 30
0.0
 10
447.3839159343697
 20
396.6092644441505
 30
0.0
 10
447.3839159343697
 20
396.6083128724767
 30
0.0
 10
447.3839159343697
 20
396.6074045540608
 30
0.0
 10
447.3831590023583
 20
395.0418528843784
 30
0.0
 10
448.6516472967851
 20
393.7721534987304
 30
0.0
 10
450.2171773398368
 20
393.7713749400882
 30
0.0
 10
451.7827073828921
 20
393.770596381446
 30
0.0
 10
453.052450021798
 20
395.0390846758728
 30
0.0
 10
453.0532069538094
 20
396.6046363455553
 30
0.0
 10
453.0532069538094
 20
396.6055446639712
 30
0.0
 10
453.0532069538094
 20
396.606496235645
 30
0.0
 10
453.0532069538094
 20
396.6074045540608
 30
0.0
  0
SPLINE
  5
162
330
45
100
AcDbEntity
  8
svg1962
 62
   178
420
   394758
370
    25
100
AcDbSpline
210
0.0
220
0.0
230
1.0
 70
    11
 71
     3
 72
    23
 73
    19
 74
     0
 42
0.0000000001
 43
0.0000000001
 12
1.0
 22
0.0
 32
0.0
 13
1.0
 23
0.0
 33
0.0
 40
0.0
 40
0.0
 40
0.0
 40
0.0
 40
1.0
 40
1.0
 40
1.0
 40
2.0
 40
2.0
 40
2.0
 40
3.0
 40
3.0
 40
3.0
 40
4.0
 40
4.0
 40
4.0
 40
5.0
 40
5.0
 40
5.0
 40
6.0
 40
6.0
 40
6.0
 40
6.0
 10
394.998359801295
 20
396.6074045540608
 30
0.0
 10
395.0000683049802
 20
398.1729562237433
 30
0.0
 10
393.7323369425685
 20
399.4434341680335
 30
0.0
 10
392.1668068995132
 20
399.4451642983495
 30
0.0
 10
390.6012768564615
 20
399.4468511754076
 30
0.0
 10
389.3307772855405
 20
398.179141439623
 30
0.0
 10
389.3290687818553
 20
396.6135897699405
 30
0.0
 10
389.3290687818553
 20
396.6115136135613
 30
0.0
 10
389.3290687818553
 20
396.60948071044
 30
0.0
 10
389.3290687818553
 20
396.6074045540608
 30
0.0
 10
389.3273602781665
 20
395.0418528843784
 30
0.0
 10
390.5950916405818
 20
393.7713749400882
 30
0.0
 10
392.1606216836335
 20
393.7696448097722
 30
0.0
 10
393.7261517266888
 20
393.7679579327141
 30
0.0
 10
394.9966512976061
 20
395.0356676684987
 30
0.0
 10
394.998359801295
 20
396.6012193381812
 30
0.0
 10
394.998359801295
 20
396.6032954945604
 30
0.0
 10
394.998359801295
 20
396.6053283976817
 30
0.0
 10
394.998359801295
 20
396.6074045540608
 30
0.0
  0
SPLINE
  5
163
330
45
100
AcDbEntity
  8
svg1962
 62
   178
420
   394758
370
    25
100
AcDbSpline
210
0.0
220
0.0
230
1.0
 70
    11
 71
     3
 72
    23
 73
    19
 74
     0
 42
0.0000000001
 43
0.0000000001
 12
1.0
 22
0.0
 32
0.0
 13
1.0
 23
0.0
 33
0.0
 40
0.0
 40
0.0
 40
0.0
 40
0.0
 40
1.0
 40
1.0
 40
1.0
 40
2.0
 40
2.0
 40
2.0
 40
3.0
 40
3.0
 40
3.0
 40
4.0
 40
4.0
 40
4.0
 40
5.0
 40
5.0
 40
5.0
 40
6.0
 40
6.0
 40
6.0
 40
6.0
 10
414.840878369334
 20
396.6074045540608
 30
0.0
 10
414.8531190413196
 20
409.131644898489
 30
0.0
 10
404.7101219306751
 20
419.2944736278787
 30
0.0
 10
392.1858599596198
 20
419.3067142998643
 30
0.0
 10
379.6616196151917
 20
419.31895497185
 30
0.0
 10
369.4988125124291
 20
409.1759362345783
 30
0.0
 10
369.4865718404435
 20
396.6516958901502
 30
0.0
 10
369.4865502138164
 20
396.6369465292064
 30
0.0
 10
369.4865502138164
 20
396.6221539150047
 30
0.0
 10
369.4865718404435
 20
396.6074045540608
 30
0.0
 10
369.4865718404435
 20
384.0831642096327
 30
0.0
 10
379.6394739471471
 20
373.9302404763021
 30
0.0
 10
392.1637359182023
 20
373.9302404763021
 30
0.0
 10
404.6879978892612
 20
373.9302404763021
 30
0.0
 10
414.8408999959611
 20
384.0831642096327
 30
0.0
 10
414.8408999959611
 20
396.6074045540608
 30
0.0
 10
414.8408999959611
 20
396.6074045540608
 30
0.0
 10
414.840878369334
 20
396.6074045540608
 30
0.0
 10
414.840878369334
 20
396.6074045540608
 30
0.0
  0
SPLINE
  5
164
330
45
100
AcDbEntity
  8
svg1962
 62
   178
420
   394758
370
    25
100
AcDbSpline
210
0.0
220
0.0
230
1.0
 70
    11
 71
     3
 72
    17
 73
    13
 74
     0
 42
0.0000000001
 43
0.0000000001
 12
1.0
 22
0.0
 32
0.0
 13
1.0
 23
0.0
 33
0.0
 40
0.0
 40
0.0
 40
0.0
 40
0.0
 40
1.0
 40
1.0
 40
1.0
 40
2.0
 40
2.0
 40
2.0
 40
3.0
 40
3.0
 40
3.0
 40
4.0
 40
4.0
 40
4.0
 40
4.0
 10
472.8957255218484
 20
396.6074045540608
 30
0.0
 10
472.8957255218484
 20
409.131644898489
 30
0.0
 10
462.7428234151485
 20
419.2845686318196
 30
0.0
 10
450.2185614440896
 20
419.2845686318196
 30
0.0
 10
437.6942994730343
 20
419.2845686318196
 30
0.0
 10
427.5413973663308
 20
409.131644898489
 30
0.0
 10
427.5413973663308
 20
396.6074045540608
 30
0.0
 10
427.5413973663308
 20
384.0831642096327
 30
0.0
 10
437.6942994730343
 20
373.9302404763021
 30
0.0
 10
450.2185614440896
 20
373.9302404763021
 30
0.0
 10
462.7428234151485
 20
373.9302404763021
 30
0.0
 10
472.8957255218484
 20
384.0831642096327
 30
0.0
 10
472.8957255218484
 20
396.6074045540608
 30
0.0
  0
POLYLINE
  5
165
330
45
100
AcDbEntity
  8
svg1962
 62
   178
420
   394758
370
    25
100
AcDb2dPolyline
 66
     1
 10
0.0
 20
0.0
 30
0.0
  0
VERTEX
  5
166
330
165
100
AcDbEntity
  8
svg1962
 62
   178
420
   394758
370
    25
100
AcDbVertex
100
AcDb2dVertex
 10
337.6348510964199
 20
396.6074045540608
 30
0.0
  0
VERTEX
  5
167
330
165
100
AcDbEntity
  8
svg1962
 62
   178
420
   394758
370
    25
100
AcDbVertex
100
AcDb2dVertex
 10
330.5482373221203
 20
396.6074045540608
 30
0.0
  0
SEQEND
  5
168
330
165
100
AcDbEntity
  8
svg1962
 62
   178
420
   394758
370
    25
  0
POLYLINE
  5
169
330
45
100
AcDbEntity
  8
svg1962
 62
   178
420
   394758
370
    25
100
AcDb2dPolyline
 66
     1
 10
0.0
 20
0.0
 30
0.0
  0
VERTEX
  5
16A
330
169
100
AcDbEntity
  8
svg1962
 62
   178
420
   394758
370
    25
100
AcDbVertex
100
AcDb2dVertex
 10
334.0915442092701
 20
396.6074045540608
 30
0.0
  0
VERTEX
  5
16B
330
169
100
AcDbEntity
  8
svg1962
 62
   178
420
   394758
370
    25
100
AcDbVertex
100
AcDb2dVertex
 10
334.0915442092701
 20
400.8593728186406
 30
0.0
  0
SEQEND
  5
16C
330
169
100
AcDbEntity
  8
svg1962
 62
   178
420
   394758
370
    25
  0
POLYLINE
  5
16D
330
45
100
AcDbEntity
  8
svg1962
 62
   178
420
   394758
370
    25
100
AcDb2dPolyline
 66
     1
 10
0.0
 20
0.0
 30
0.0
  0
VERTEX
  5
16E
330
16D
100
AcDbEntity
  8
svg1962
 62
   178
420
   394758
370
    25
100
AcDbVertex
100
AcDb2dVertex
 10
334.0915442092701
 20
396.6074045540608
 30
0.0
  0
VERTEX
  5
16F
330
16D
100
AcDbEntity
  8
svg1962
 62
   178
420
   394758
370
    25
100
AcDbVertex
100
AcDb2dVertex
 10
334.0915442092701
 20
392.3554362894811
 30
0.0
  0
SEQEND
  5
170
330
16D
100
AcDbEntity
  8
svg1962
 62
   178
420
   394758
370
    25
  0
POLYLINE
  5
171
330
45
100
AcDbEntity
  8
svg1962
 62
   178
420
   394758
370
    25
100
AcDb2dPolyline
 66
     1
 10
0.0
 20
0.0
 30
0.0
  0
VERTEX
  5
172
330
171
100
AcDbEntity
  8
svg1962
 62
   178
420
   394758
370
    25
100
AcDbVertex
100
AcDb2dVertex
 10
453.7618683312394
 20
396.6074045540608
 30
0.0
  0
VERTEX
  5
173
330
171
100
AcDbEntity
  8
svg1962
 62
   178
420
   394758
370
    25
100
AcDbVertex
100
AcDb2dVertex
 10
446.6752545569398
 20
396.6074045540608
 30
0.0
  0
SEQEND
  5
174
330
171
100
AcDbEntity
  8
svg1962
 62
   178
420
   394758
370
    25
  0
POLYLINE
  5
175
330
45
100
AcDbEntity
  8
svg1962
 62
   178
420
   394758
370
    25
100
AcDb2dPolyline
 66
     1
 10
0.0
 20
0.0
 30
0.0
  0
VERTEX
  5
176
330
175
100
AcDbEntity
  8
svg1962
 62
   178
420
   394758
370
    25
100
AcDbVertex
100
AcDb2dVertex
 10
450.2185614440896
 20
396.6074045540608
 30
0.0
  0
VERTEX
  5
177
330
175
100
AcDbEntity
  8
svg1962
 62
   178
420
   394758
370
    25
100
AcDbVertex
100
AcDb2dVertex
 10
450.2185614440896
 20
400.8593728186406
 30
0.0
  0
SEQEND
  5
178
330
175
100
AcDbEntity
  8
svg1962
 62
   178
420
   394758
370
    25
  0
POLYLINE
  5
179
330
45
100
AcDbEntity
  8
svg1962
 62
   178
420
   394758
370
    25
100
AcDb2dPolyline
 66
     1
 10
0.0
 20
0.0
 30
0.0
  0
VERTEX
  5
17A
330
179
100
AcDbEntity
  8
svg1962
 62
   178
420
   394758
370
    25
100
AcDbVertex
100
AcDb2dVertex
 10
450.2185614440896
 20
396.6074045540608
 30
0.0
  0
VERTEX
  5
17B
330
179
100
AcDbEntity
  8
svg1962
 62
   178
420
   394758
370
    25
100
AcDbVertex
100
AcDb2dVertex
 10
450.2185614440896
 20
392.3554362894811
 30
0.0
  0
SEQEND
  5
17C
330
179
100
AcDbEntity
  8
svg1962
 62
   178
420
   394758
370
    25
  0
SPLINE
  5
17D
330
45
100
AcDbEntity
  8
svg1962
 62
   178
420
   394758
370
    25
100
AcDbSpline
210
0.0
220
0.0
230
1.0
 70
    11
 71
     3
 72
    17
 73
    13
 74
     0
 42
0.0000000001
 43
0.0000000001
 12
1.0
 22
0.0
 32
0.0
 13
1.0
 23
0.0
 33
0.0
 40
0.0
 40
0.0
 40
0.0
 40
0.0
 40
1.0
 40
1.0
 40
1.0
 40
2.0
 40
2.0
 40
2.0
 40
3.0
 40
3.0
 40
3.0
 40
4.0
 40
4.0
 40
4.0
 40
4.0
 10
356.7687082870289
 20
396.6074045540608
 30
0.0
 10
356.7687082870289
 20
409.131644898489
 30
0.0
 10
346.6158061803253
 20
419.2845686318196
 30
0.0
 10
334.0915442092701
 20
419.2845686318196
 30
0.0
 10
321.5672822382112
 20
419.2845686318196
 30
0.0
 10
311.4143801315113
 20
409.131644898489
 30
0.0
 10
311.4143801315113
 20
396.6074045540608
 30
0.0
 10
311.4143801315113
 20
384.0831642096327
 30
0.0
 10
321.5672822382112
 20
373.9302404763021
 30
0.0
 10
334.0915442092701
 20
373.9302404763021
 30
0.0
 10
346.6158061803253
 20
373.9302404763021
 30
0.0
 10
356.7687082870289
 20
384.0831642096327
 30
0.0
 10
356.7687082870289
 20
396.6074045540608
 30
0.0
  0
POLYLINE
  5
17E
330
45
100
AcDbEntity
  8
svg1962
 62
   178
420
   394758
370
    25
100
AcDb2dPolyline
 66
     1
 10
0.0
 20
0.0
 30
0.0
  0
VERTEX
  5
17F
330
17E
100
AcDbEntity
  8
svg1962
 62
   178
420
   394758
370
    25
100
AcDbVertex
100
AcDb2dVertex
 10
337.6348510964199
 20
396.6074045540608
 30
0.0
  0
VERTEX
  5
180
330
17E
100
AcDbEntity
  8
svg1962
 62
   178
420
   394758
370
    25
100
AcDbVertex
100
AcDb2dVertex
 10
330.5482373221203
 20
396.6074045540608
 30
0.0
  0
SEQEND
  5
181
330
17E
100
AcDbEntity
  8
svg1962
 62
   178
420
   394758
370
    25
  0
POLYLINE
  5
182
330
45
100
AcDbEntity
  8
svg1962
 62
   178
420
   394758
370
    25
100
AcDb2dPolyline
 66
     1
 10
0.0
 20
0.0
 30
0.0
  0
VERTEX
  5
183
330
182
100
AcDbEntity
  8
svg1962
 62
   178
420
   394758
370
    25
100
AcDbVertex
100
AcDb2dVertex
 10
334.0915442092701
 20
396.6074045540608
 30
0.0
  0
VERTEX
  5
184
330
182
100
AcDbEntity
  8
svg1962
 62
   178
420
   394758
370
    25
100
AcDbVertex
100
AcDb2dVertex
 10
334.0915442092701
 20
400.8593728186406
 30
0.0
  0
SEQEND
  5
185
330
182
100
AcDbEntity
  8
svg1962
 62
   178
420
   394758
370
    25
  0
INSERT
  5
187
330
45
100
AcDbEntity
  8
svg1962
100
AcDbBlockReference
  2
block 5
 10
0.0
 20
0.0
 30
0.0
  0
ENDBLK
  5
48
330
45
100
AcDbEntity
  8
0
100
AcDbBlockEnd
  0
BLOCK
  5
154
330
152
100
AcDbEntity
  8
0
100
AcDbBlockBegin
  2
block 4
 70
     0
 10
0.0
 20
0.0
 30
0.0
  3
block 4
  1

  0
MTEXT
  5
156
330
152
100
AcDbEntity
  8
svg1962
 62
     7
420
 16777215
100
AcDbMText
 10
371.1954345703125
 20
198.5032348632812
 30
0.0
 40
16.43875886535644
 41
0.0
 46
0.0
 71
     7
 72
     1
  1
\fBD Geminis|b0|i0|c0|p34;\W0.54472;The Tone Geek
 73
     1
 44
1.0
  0
MTEXT
  5
157
330
152
100
AcDbEntity
  8
svg1962
 62
     7
420
 16777215
100
AcDbMText
 10
371.1954345703125
 20
198.5032348632812
 30
0.0
 40
16.43875886535644
 41
0.0
 46
0.0
 71
     7
 72
     1
  1
\fBD Geminis|b0|i0|c0|p34;\W0.54472;The Tone Geek
 73
     1
 44
1.0
  0
ENDBLK
  5
155
330
152
100
AcDbEntity
  8
0
100
AcDbBlockEnd
  0
BLOCK
  5
188
330
186
100
AcDbEntity
  8
0
100
AcDbBlockBegin
  2
block 5
 70
     0
 10
0.0
 20
0.0
 30
0.0
  3
block 5
  1

  0
POLYLINE
  5
18A
330
186
100
AcDbEntity
  8
svg1962
 62
     7
420
 16777215
370
    18
100
AcDb2dPolyline
 66
     1
 10
0.0
 20
0.0
 30
0.0
  0
VERTEX
  5
18B
330
18A
100
AcDbEntity
  8
svg1962
 62
     7
420
 16777215
370
    18
100
AcDbVertex
100
AcDb2dVertex
 10
251.561403989841
 20
122.3259889513629
 30
0.0
  0
VERTEX
  5
18C
330
18A
100
AcDbEntity
  8
svg1962
 62
     7
420
 16777215
370
    18
100
AcDbVertex
100
AcDb2dVertex
 10
70.43153089314364
 20
122.3259889594938
 30
0.0
  0
VERTEX
  5
18D
330
18A
100
AcDbEntity
  8
svg1962
 62
     7
420
 16777215
370
    18
100
AcDbVertex
100
AcDb2dVertex
 10
70.43153090804299
 20
454.1670164697125
 30
0.0
  0
VERTEX
  5
18E
330
18A
100
AcDbEntity
  8
svg1962
 62
     7
420
 16777215
370
    18
100
AcDbVertex
100
AcDb2dVertex
 10
251.5614040047403
 20
454.1670164615798
 30
0.0
  0
VERTEX
  5
18F
330
18A
100
AcDbEntity
  8
svg1962
 62
     7
420
 16777215
370
    18
100
AcDbVertex
100
AcDb2dVertex
 10
251.561403989841
 20
122.3259889513629
 30
0.0
  0
SEQEND
  5
190
330
18A
100
AcDbEntity
  8
svg1962
 62
     7
420
 16777215
370
    18
  0
SPLINE
  5
191
330
186
100
AcDbEntity
  8
svg1962
 62
   178
420
   394758
370
    25
100
AcDbSpline
210
0.0
220
0.0
230
1.0
 70
    11
 71
     3
 72
    17
 73
    13
 74
     0
 42
0.0000000001
 43
0.0000000001
 12
1.0
 22
0.0
 32
0.0
 13
1.0
 23
0.0
 33
0.0
 40
0.0
 40
0.0
 40
0.0
 40
0.0
 40
1.0
 40
1.0
 40
1.0
 40
2.0
 40
2.0
 40
2.0
 40
3.0
 40
3.0
 40
3.0
 40
4.0
 40
4.0
 40
4.0
 40
4.0
 10
219.0686267225265
 20
390.5641387996056
 30
0.0
 10
220.5958992589676
 20
390.5641387995365
 30
0.0
 10
221.8339805131463
 20
391.8022200536034
 30
0.0
 10
221.8339805132146
 20
393.3294925900445
 30
0.0
 10
221.8339805132837
 20
394.8567651264857
 30
0.0
 10
220.5958992592159
 20
396.0948463806653
 30
0.0
 10
219.0686267227748
 20
396.0948463807345
 30
0.0
 10
217.5413758129625
 20
396.0948463808018
 30
0.0
 10
216.3032945587838
 20
394.8567651267349
 30
0.0
 10
216.3032945587147
 20
393.3294925902937
 30
0.0
 10
216.3032945586465
 20
391.8022200538526
 30
0.0
 10
217.5413758127143
 20
390.5641387996729
 30
0.0
 10
219.0686267225265
 20
390.5641387996056
 30
0.0
  0
SPLINE
  5
192
330
186
100
AcDbEntity
  8
svg1962
 62
   178
420
   394758
370
    25
100
AcDbSpline
210
0.0
220
0.0
230
1.0
 70
    11
 71
     3
 72
    17
 73
    13
 74
     0
 42
0.0000000001
 43
0.0000000001
 12
1.0
 22
0.0
 32
0.0
 13
1.0
 23
0.0
 33
0.0
 40
0.0
 40
0.0
 40
0.0
 40
0.0
 40
1.0
 40
1.0
 40
1.0
 40
2.0
 40
2.0
 40
2.0
 40
3.0
 40
3.0
 40
3.0
 40
4.0
 40
4.0
 40
4.0
 40
4.0
 10
102.9242865579163
 20
390.5641388048189
 30
0.0
 10
104.4515590943574
 20
390.5641388047516
 30
0.0
 10
105.6896403485362
 20
391.8022200588184
 30
0.0
 10
105.6896403486044
 20
393.3294925952596
 30
0.0
 10
105.6896403486735
 20
394.8567651317007
 30
0.0
 10
104.4515590946057
 20
396.0948463858804
 30
0.0
 10
102.9242865581646
 20
396.0948463859477
 30
0.0
 10
101.3970356483524
 20
396.0948463860168
 30
0.0
 10
100.1589543941736
 20
394.8567651319499
 30
0.0
 10
100.1589543941045
 20
393.3294925955088
 30
0.0
 10
100.1589543940363
 20
391.8022200590676
 30
0.0
 10
101.3970356481041
 20
390.564138804888
 30
0.0
 10
102.9242865579163
 20
390.5641388048189
 30
0.0
  0
SPLINE
  5
193
330
186
100
AcDbEntity
  8
svg1962
 62
   178
420
   394758
370
    25
100
AcDbSpline
210
0.0
220
0.0
230
1.0
 70
    11
 71
     3
 72
    23
 73
    19
 74
     0
 42
0.0000000001
 43
0.0000000001
 12
1.0
 22
0.0
 32
0.0
 13
1.0
 23
0.0
 33
0.0
 40
0.0
 40
0.0
 40
0.0
 40
0.0
 40
1.0
 40
1.0
 40
1.0
 40
2.0
 40
2.0
 40
2.0
 40
3.0
 40
3.0
 40
3.0
 40
4.0
 40
4.0
 40
4.0
 40
5.0
 40
5.0
 40
5.0
 40
6.0
 40
6.0
 40
6.0
 40
6.0
 10
158.2311244764096
 20
393.3261620920421
 30
0.0
 10
158.2320544213862
 20
391.7988895556009
 30
0.0
 10
159.4708926074672
 20
390.5615436068074
 30
0.0
 10
160.9981435172795
 20
390.5624951784121
 30
0.0
 10
162.5253944270917
 20
390.5634034967588
 30
0.0
 10
163.7627403758861
 20
391.8022200562118
 30
0.0
 10
163.7618104309095
 20
393.329492592653
 30
0.0
 10
163.7618104309095
 20
393.3306171773584
 30
0.0
 10
163.7618104309095
 20
393.3317417620638
 30
0.0
 10
163.7618104309095
 20
393.3328230935113
 30
0.0
 10
163.7608804859337
 20
394.8600956299524
 30
0.0
 10
162.5220422998527
 20
396.0974415787459
 30
0.0
 10
160.9947913900405
 20
396.0964900071413
 30
0.0
 10
159.4675404802283
 20
396.0955816887945
 30
0.0
 10
158.2301945314339
 20
394.8567651293415
 30
0.0
 10
158.2311244764096
 20
393.3294925929004
 30
0.0
 10
158.2311244764096
 20
393.328368008195
 30
0.0
 10
158.2311244764096
 20
393.3272434234896
 30
0.0
 10
158.2311244764096
 20
393.3261620920421
 30
0.0
  0
SPLINE
  5
194
330
186
100
AcDbEntity
  8
svg1962
 62
   178
420
   394758
370
    25
100
AcDbSpline
210
0.0
220
0.0
230
1.0
 70
    11
 71
     3
 72
    17
 73
    13
 74
     0
 42
0.0000000001
 43
0.0000000001
 12
1.0
 22
0.0
 32
0.0
 13
1.0
 23
0.0
 33
0.0
 40
0.0
 40
0.0
 40
0.0
 40
0.0
 40
1.0
 40
1.0
 40
1.0
 40
2.0
 40
2.0
 40
2.0
 40
3.0
 40
3.0
 40
3.0
 40
4.0
 40
4.0
 40
4.0
 40
4.0
 10
139.5650728861874
 20
161.0407257580027
 30
0.0
 10
141.0923237959996
 20
161.0407257579336
 30
0.0
 10
142.3304050501783
 20
162.2788070120023
 30
0.0
 10
142.3304050502466
 20
163.8060795484434
 30
0.0
 10
142.3304050503148
 20
165.3333520848846
 30
0.0
 10
141.0923237962479
 20
166.5714333390624
 30
0.0
 10
139.5650728864357
 20
166.5714333391315
 30
0.0
 10
138.0378003499945
 20
166.5714333392007
 30
0.0
 10
136.7997190958149
 20
165.333352085132
 30
0.0
 10
136.7997190957467
 20
163.8060795486908
 30
0.0
 10
136.7997190956785
 20
162.2788070122497
 30
0.0
 10
138.0378003497462
 20
161.0407257580719
 30
0.0
 10
139.5650728861874
 20
161.0407257580027
 30
0.0
  0
POLYLINE
  5
195
330
186
100
AcDbEntity
  8
svg1962
 62
   178
420
   394758
370
    25
100
AcDb2dPolyline
 66
     1
 10
0.0
 20
0.0
 30
0.0
  0
VERTEX
  5
196
330
195
100
AcDbEntity
  8
svg1962
 62
   178
420
   394758
370
    25
100
AcDbVertex
100
AcDb2dVertex
 10
200.4025751381387
 20
288.2465243353963
 30
0.0
  0
VERTEX
  5
197
330
195
100
AcDbEntity
  8
svg1962
 62
   178
420
   394758
370
    25
100
AcDbVertex
100
AcDb2dVertex
 10
200.402575131
 20
129.2393301768116
 30
0.0
  0
SEQEND
  5
198
330
195
100
AcDbEntity
  8
svg1962
 62
   178
420
   394758
370
    25
  0
POLYLINE
  5
199
330
186
100
AcDbEntity
  8
svg1962
 62
   178
420
   394758
370
    25
100
AcDb2dPolyline
 66
     1
 10
0.0
 20
0.0
 30
0.0
  0
VERTEX
  5
19A
330
199
100
AcDbEntity
  8
svg1962
 62
   178
420
   394758
370
    25
100
AcDbVertex
100
AcDb2dVertex
 10
75.96219522846422
 20
288.2465243409843
 30
0.0
  0
VERTEX
  5
19B
330
199
100
AcDbEntity
  8
svg1962
 62
   178
420
   394758
370
    25
100
AcDbVertex
100
AcDb2dVertex
 10
200.4025751381387
 20
288.2465243353963
 30
0.0
  0
SEQEND
  5
19C
330
199
100
AcDbEntity
  8
svg1962
 62
   178
420
   394758
370
    25
  0
POLYLINE
  5
19D
330
186
100
AcDbEntity
  8
svg1962
 62
   178
420
   394758
370
    25
100
AcDb2dPolyline
 66
     1
 10
0.0
 20
0.0
 30
0.0
  0
VERTEX
  5
19E
330
19D
100
AcDbEntity
  8
svg1962
 62
   178
420
   394758
370
    25
100
AcDbVertex
100
AcDb2dVertex
 10
75.9621952213256
 20
129.2393301823995
 30
0.0
  0
VERTEX
  5
19F
330
19D
100
AcDbEntity
  8
svg1962
 62
   178
420
   394758
370
    25
100
AcDbVertex
100
AcDb2dVertex
 10
75.96219522846422
 20
288.2465243409843
 30
0.0
  0
SEQEND
  5
1A0
330
19D
100
AcDbEntity
  8
svg1962
 62
   178
420
   394758
370
    25
  0
POLYLINE
  5
1A1
330
186
100
AcDbEntity
  8
svg1962
 62
   178
420
   394758
370
    25
100
AcDb2dPolyline
 66
     1
 10
0.0
 20
0.0
 30
0.0
  0
VERTEX
  5
1A2
330
1A1
100
AcDbEntity
  8
svg1962
 62
   178
420
   394758
370
    25
100
AcDbVertex
100
AcDb2dVertex
 10
200.402575131
 20
129.2393301768116
 30
0.0
  0
VERTEX
  5
1A3
330
1A1
100
AcDbEntity
  8
svg1962
 62
   178
420
   394758
370
    25
100
AcDbVertex
100
AcDb2dVertex
 10
75.9621952213256
 20
129.2393301823995
 30
0.0
  0
SEQEND
  5
1A4
330
1A1
100
AcDbEntity
  8
svg1962
 62
   178
420
   394758
370
    25
  0
POLYLINE
  5
1A5
330
186
100
AcDbEntity
  8
svg1962
 62
   178
420
   394758
370
    25
100
AcDb2dPolyline
 66
     1
 10
0.0
 20
0.0
 30
0.0
  0
VERTEX
  5
1A6
330
1A5
100
AcDbEntity
  8
svg1962
 62
   178
420
   394758
370
    25
100
AcDbVertex
100
AcDb2dVertex
 10
193.4892122815281
 20
136.1527146535336
 30
0.0
  0
VERTEX
  5
1A7
330
1A5
100
AcDbEntity
  8
svg1962
 62
   178
420
   394758
370
    25
100
AcDbVertex
100
AcDb2dVertex
 10
82.87553644478885
 20
136.1527146584995
 30
0.0
  0
VERTEX
  5
1A8
330
1A5
100
AcDbEntity
  8
svg1962
 62
   178
420
   394758
370
    25
100
AcDbVertex
100
AcDb2dVertex
 10
82.87553645100252
 20
274.5439354912814
 30
0.0
  0
VERTEX
  5
1A9
330
1A5
100
AcDbEntity
  8
svg1962
 62
   178
420
   394758
370
    25
100
AcDbVertex
100
AcDb2dVertex
 10
193.4892122877418
 20
274.5439354863156
 30
0.0
  0
VERTEX
  5
1AA
330
1A5
100
AcDbEntity
  8
svg1962
 62
   178
420
   394758
370
    25
100
AcDbVertex
100
AcDb2dVertex
 10
193.4892122815281
 20
136.1527146535336
 30
0.0
  0
SEQEND
  5
1AB
330
1A5
100
AcDbEntity
  8
svg1962
 62
   178
420
   394758
370
    25
  0
POLYLINE
  5
1AC
330
186
100
AcDbEntity
  8
svg1962
 62
   178
420
   394758
370
    25
100
AcDb2dPolyline
 66
     1
 10
0.0
 20
0.0
 30
0.0
  0
VERTEX
  5
1AD
330
1AC
100
AcDbEntity
  8
svg1962
 62
   178
420
   394758
370
    25
100
AcDbVertex
100
AcDb2dVertex
 10
186.575871058375
 20
136.1527146538447
 30
0.0
  0
VERTEX
  5
1AE
330
1AC
100
AcDbEntity
  8
svg1962
 62
   178
420
   394758
370
    25
100
AcDbVertex
100
AcDb2dVertex
 10
89.78892092119986
 20
136.1527146581902
 30
0.0
  0
VERTEX
  5
1AF
330
1AC
100
AcDbEntity
  8
svg1962
 62
   178
420
   394758
370
    25
100
AcDbVertex
100
AcDb2dVertex
 10
89.78892092709702
 20
267.5064141643888
 30
0.0
  0
VERTEX
  5
1B0
330
1AC
100
AcDbEntity
  8
svg1962
 62
   178
420
   394758
370
    25
100
AcDbVertex
100
AcDb2dVertex
 10
186.5758710642722
 20
267.5064141600433
 30
0.0
  0
VERTEX
  5
1B1
330
1AC
100
AcDbEntity
  8
svg1962
 62
   178
420
   394758
370
    25
100
AcDbVertex
100
AcDb2dVertex
 10
186.575871058375
 20
136.1527146538447
 30
0.0
  0
SEQEND
  5
1B2
330
1AC
100
AcDbEntity
  8
svg1962
 62
   178
420
   394758
370
    25
  0
POLYLINE
  5
1B3
330
186
100
AcDbEntity
  8
svg1962
 62
   178
420
   394758
370
    25
100
AcDb2dPolyline
 66
     1
 10
0.0
 20
0.0
 30
0.0
  0
VERTEX
  5
1B4
330
1B3
100
AcDbEntity
  8
svg1962
 62
   178
420
   394758
370
    25
100
AcDbVertex
100
AcDb2dVertex
 10
156.1571091275891
 20
261.9757498335366
 30
0.0
  0
VERTEX
  5
1B5
330
1B3
100
AcDbEntity
  8
svg1962
 62
   178
420
   394758
370
    25
100
AcDbVertex
100
AcDb2dVertex
 10
183.8105172734595
 20
261.9757498322961
 30
0.0
  0
SEQEND
  5
1B6
330
1B3
100
AcDbEntity
  8
svg1962
 62
   178
420
   394758
370
    25
  0
POLYLINE
  5
1B7
330
186
100
AcDbEntity
  8
svg1962
 62
   178
420
   394758
370
    25
100
AcDb2dPolyline
 66
     1
 10
0.0
 20
0.0
 30
0.0
  0
VERTEX
  5
1B8
330
1B7
100
AcDbEntity
  8
svg1962
 62
   178
420
   394758
370
    25
100
AcDbVertex
100
AcDb2dVertex
 10
169.9838348265948
 20
249.5317010286344
 30
0.0
  0
VERTEX
  5
1B9
330
1B7
100
AcDbEntity
  8
svg1962
 62
   178
420
   394758
370
    25
100
AcDbVertex
100
AcDb2dVertex
 10
156.1571307542181
 20
261.9757498335366
 30
0.0
  0
SEQEND
  5
1BA
330
1B7
100
AcDbEntity
  8
svg1962
 62
   178
420
   394758
370
    25
  0
POLYLINE
  5
1BB
330
186
100
AcDbEntity
  8
svg1962
 62
   178
420
   394758
370
    25
100
AcDb2dPolyline
 66
     1
 10
0.0
 20
0.0
 30
0.0
  0
VERTEX
  5
1BC
330
1BB
100
AcDbEntity
  8
svg1962
 62
   178
420
   394758
370
    25
100
AcDbVertex
100
AcDb2dVertex
 10
183.8105172734595
 20
261.9757498322961
 30
0.0
  0
VERTEX
  5
1BD
330
1BB
100
AcDbEntity
  8
svg1962
 62
   178
420
   394758
370
    25
100
AcDbVertex
100
AcDb2dVertex
 10
169.9838131999659
 20
249.5317010286344
 30
0.0
  0
SEQEND
  5
1BE
330
1BB
100
AcDbEntity
  8
svg1962
 62
   178
420
   394758
370
    25
  0
POLYLINE
  5
1BF
330
186
100
AcDbEntity
  8
svg1962
 62
   178
420
   394758
370
    25
100
AcDb2dPolyline
 66
     1
 10
0.0
 20
0.0
 30
0.0
  0
VERTEX
  5
1C0
330
1BF
100
AcDbEntity
  8
svg1962
 62
   178
420
   394758
370
    25
100
AcDbVertex
100
AcDb2dVertex
 10
124.3556919225011
 20
261.9757498349645
 30
0.0
  0
VERTEX
  5
1C1
330
1BF
100
AcDbEntity
  8
svg1962
 62
   178
420
   394758
370
    25
100
AcDbVertex
100
AcDb2dVertex
 10
152.0091000683715
 20
261.975749833724
 30
0.0
  0
SEQEND
  5
1C2
330
1BF
100
AcDbEntity
  8
svg1962
 62
   178
420
   394758
370
    25
  0
POLYLINE
  5
1C3
330
186
100
AcDbEntity
  8
svg1962
 62
   178
420
   394758
370
    25
100
AcDb2dPolyline
 66
     1
 10
0.0
 20
0.0
 30
0.0
  0
VERTEX
  5
1C4
330
1C3
100
AcDbEntity
  8
svg1962
 62
   178
420
   394758
370
    25
100
AcDbVertex
100
AcDb2dVertex
 10
138.1824176215068
 20
249.5317010300623
 30
0.0
  0
VERTEX
  5
1C5
330
1C3
100
AcDbEntity
  8
svg1962
 62
   178
420
   394758
370
    25
100
AcDbVertex
100
AcDb2dVertex
 10
124.3556919225011
 20
261.9757498349645
 30
0.0
  0
SEQEND
  5
1C6
330
1C3
100
AcDbEntity
  8
svg1962
 62
   178
420
   394758
370
    25
  0
POLYLINE
  5
1C7
330
186
100
AcDbEntity
  8
svg1962
 62
   178
420
   394758
370
    25
100
AcDb2dPolyline
 66
     1
 10
0.0
 20
0.0
 30
0.0
  0
VERTEX
  5
1C8
330
1C7
100
AcDbEntity
  8
svg1962
 62
   178
420
   394758
370
    25
100
AcDbVertex
100
AcDb2dVertex
 10
152.0091000683715
 20
261.975749833724
 30
0.0
  0
VERTEX
  5
1C9
330
1C7
100
AcDbEntity
  8
svg1962
 62
   178
420
   394758
370
    25
100
AcDbVertex
100
AcDb2dVertex
 10
138.1824176215068
 20
249.5317010300623
 30
0.0
  0
SEQEND
  5
1CA
330
1C7
100
AcDbEntity
  8
svg1962
 62
   178
420
   394758
370
    25
  0
POLYLINE
  5
1CB
330
186
100
AcDbEntity
  8
svg1962
 62
   178
420
   394758
370
    25
100
AcDb2dPolyline
 66
     1
 10
0.0
 20
0.0
 30
0.0
  0
VERTEX
  5
1CC
330
1CB
100
AcDbEntity
  8
svg1962
 62
   178
420
   394758
370
    25
100
AcDbVertex
100
AcDb2dVertex
 10
92.55425309078419
 20
261.9757498363924
 30
0.0
  0
VERTEX
  5
1CD
330
1CB
100
AcDbEntity
  8
svg1962
 62
   178
420
   394758
370
    25
100
AcDbVertex
100
AcDb2dVertex
 10
120.2076612366545
 20
261.9757498351519
 30
0.0
  0
SEQEND
  5
1CE
330
1CB
100
AcDbEntity
  8
svg1962
 62
   178
420
   394758
370
    25
  0
POLYLINE
  5
1CF
330
186
100
AcDbEntity
  8
svg1962
 62
   178
420
   394758
370
    25
100
AcDb2dPolyline
 66
     1
 10
0.0
 20
0.0
 30
0.0
  0
VERTEX
  5
1D0
330
1CF
100
AcDbEntity
  8
svg1962
 62
   178
420
   394758
370
    25
100
AcDbVertex
100
AcDb2dVertex
 10
106.3809787897899
 20
249.5317010314902
 30
0.0
  0
VERTEX
  5
1D1
330
1CF
100
AcDbEntity
  8
svg1962
 62
   178
420
   394758
370
    25
100
AcDbVertex
100
AcDb2dVertex
 10
92.55425309078419
 20
261.9757498363924
 30
0.0
  0
SEQEND
  5
1D2
330
1CF
100
AcDbEntity
  8
svg1962
 62
   178
420
   394758
370
    25
  0
POLYLINE
  5
1D3
330
186
100
AcDbEntity
  8
svg1962
 62
   178
420
   394758
370
    25
100
AcDb2dPolyline
 66
     1
 10
0.0
 20
0.0
 30
0.0
  0
VERTEX
  5
1D4
330
1D3
100
AcDbEntity
  8
svg1962
 62
   178
420
   394758
370
    25
100
AcDbVertex
100
AcDb2dVertex
 10
120.2076612366545
 20
261.9757498351519
 30
0.0
  0
VERTEX
  5
1D5
330
1D3
100
AcDbEntity
  8
svg1962
 62
   178
420
   394758
370
    25
100
AcDbVertex
100
AcDb2dVertex
 10
106.3809787897899
 20
249.5317010314902
 30
0.0
  0
SEQEND
  5
1D6
330
1D3
100
AcDbEntity
  8
svg1962
 62
   178
420
   394758
370
    25
  0
POLYLINE
  5
1D7
330
186
100
AcDbEntity
  8
svg1962
 62
   178
420
   394758
370
    25
100
AcDb2dPolyline
 66
     1
 10
0.0
 20
0.0
 30
0.0
  0
VERTEX
  5
1D8
330
1D7
100
AcDbEntity
  8
svg1962
 62
   178
420
   394758
370
    25
100
AcDbVertex
100
AcDb2dVertex
 10
140.9477497852558
 20
245.3837135973499
 30
0.0
  0
VERTEX
  5
1D9
330
1D7
100
AcDbEntity
  8
svg1962
 62
   178
420
   394758
370
    25
100
AcDbVertex
100
AcDb2dVertex
 10
168.6011363044972
 20
245.3837135961076
 30
0.0
  0
SEQEND
  5
1DA
330
1D7
100
AcDbEntity
  8
svg1962
 62
   178
420
   394758
370
    25
  0
POLYLINE
  5
1DB
330
186
100
AcDbEntity
  8
svg1962
 62
   178
420
   394758
370
    25
100
AcDb2dPolyline
 66
     1
 10
0.0
 20
0.0
 30
0.0
  0
VERTEX
  5
1DC
330
1DB
100
AcDbEntity
  8
svg1962
 62
   178
420
   394758
370
    25
100
AcDbVertex
100
AcDb2dVertex
 10
154.7744322310036
 20
232.9396647924477
 30
0.0
  0
VERTEX
  5
1DD
330
1DB
100
AcDbEntity
  8
svg1962
 62
   178
420
   394758
370
    25
100
AcDbVertex
100
AcDb2dVertex
 10
140.9477497852558
 20
245.3837135973499
 30
0.0
  0
SEQEND
  5
1DE
330
1DB
100
AcDbEntity
  8
svg1962
 62
   178
420
   394758
370
    25
  0
POLYLINE
  5
1DF
330
186
100
AcDbEntity
  8
svg1962
 62
   178
420
   394758
370
    25
100
AcDb2dPolyline
 66
     1
 10
0.0
 20
0.0
 30
0.0
  0
VERTEX
  5
1E0
330
1DF
100
AcDbEntity
  8
svg1962
 62
   178
420
   394758
370
    25
100
AcDbVertex
100
AcDb2dVertex
 10
168.6011363044972
 20
245.3837135961076
 30
0.0
  0
VERTEX
  5
1E1
330
1DF
100
AcDbEntity
  8
svg1962
 62
   178
420
   394758
370
    25
100
AcDbVertex
100
AcDb2dVertex
 10
154.7744322310036
 20
232.9396647924477
 30
0.0
  0
SEQEND
  5
1E2
330
1DF
100
AcDbEntity
  8
svg1962
 62
   178
420
   394758
370
    25
  0
POLYLINE
  5
1E3
330
186
100
AcDbEntity
  8
svg1962
 62
   178
420
   394758
370
    25
100
AcDb2dPolyline
 66
     1
 10
0.0
 20
0.0
 30
0.0
  0
VERTEX
  5
1E4
330
1E3
100
AcDbEntity
  8
svg1962
 62
   178
420
   394758
370
    25
100
AcDbVertex
100
AcDb2dVertex
 10
107.7636340582567
 20
245.3837135988397
 30
0.0
  0
VERTEX
  5
1E5
330
1E3
100
AcDbEntity
  8
svg1962
 62
   178
420
   394758
370
    25
100
AcDbVertex
100
AcDb2dVertex
 10
135.417042204127
 20
245.3837135975973
 30
0.0
  0
SEQEND
  5
1E6
330
1E3
100
AcDbEntity
  8
svg1962
 62
   178
420
   394758
370
    25
  0
POLYLINE
  5
1E7
330
186
100
AcDbEntity
  8
svg1962
 62
   178
420
   394758
370
    25
100
AcDb2dPolyline
 66
     1
 10
0.0
 20
0.0
 30
0.0
  0
VERTEX
  5
1E8
330
1E7
100
AcDbEntity
  8
svg1962
 62
   178
420
   394758
370
    25
100
AcDbVertex
100
AcDb2dVertex
 10
121.5903597572624
 20
232.9396647939375
 30
0.0
  0
VERTEX
  5
1E9
330
1E7
100
AcDbEntity
  8
svg1962
 62
   178
420
   394758
370
    25
100
AcDbVertex
100
AcDb2dVertex
 10
107.7636340582567
 20
245.3837135988397
 30
0.0
  0
SEQEND
  5
1EA
330
1E7
100
AcDbEntity
  8
svg1962
 62
   178
420
   394758
370
    25
  0
POLYLINE
  5
1EB
330
186
100
AcDbEntity
  8
svg1962
 62
   178
420
   394758
370
    25
100
AcDb2dPolyline
 66
     1
 10
0.0
 20
0.0
 30
0.0
  0
VERTEX
  5
1EC
330
1EB
100
AcDbEntity
  8
svg1962
 62
   178
420
   394758
370
    25
100
AcDbVertex
100
AcDb2dVertex
 10
135.417042204127
 20
245.3837135975973
 30
0.0
  0
VERTEX
  5
1ED
330
1EB
100
AcDbEntity
  8
svg1962
 62
   178
420
   394758
370
    25
100
AcDbVertex
100
AcDb2dVertex
 10
121.5903597572624
 20
232.9396647939375
 30
0.0
  0
SEQEND
  5
1EE
330
1EB
100
AcDbEntity
  8
svg1962
 62
   178
420
   394758
370
    25
  0
POLYLINE
  5
1EF
330
186
100
AcDbEntity
  8
svg1962
 62
   178
420
   394758
370
    25
100
AcDb2dPolyline
 66
     1
 10
0.0
 20
0.0
 30
0.0
  0
VERTEX
  5
1F0
330
1EF
100
AcDbEntity
  8
svg1962
 62
   178
420
   394758
370
    25
100
AcDbVertex
100
AcDb2dVertex
 10
156.1571091260994
 20
228.7916773597954
 30
0.0
  0
VERTEX
  5
1F1
330
1EF
100
AcDbEntity
  8
svg1962
 62
   178
420
   394758
370
    25
100
AcDbVertex
100
AcDb2dVertex
 10
183.8105172719697
 20
228.7916773585548
 30
0.0
  0
SEQEND
  5
1F2
330
1EF
100
AcDbEntity
  8
svg1962
 62
   178
420
   394758
370
    25
  0
POLYLINE
  5
1F3
330
186
100
AcDbEntity
  8
svg1962
 62
   178
420
   394758
370
    25
100
AcDb2dPolyline
 66
     1
 10
0.0
 20
0.0
 30
0.0
  0
VERTEX
  5
1F4
330
1F3
100
AcDbEntity
  8
svg1962
 62
   178
420
   394758
370
    25
100
AcDbVertex
100
AcDb2dVertex
 10
169.9838348251051
 20
216.3476285548932
 30
0.0
  0
VERTEX
  5
1F5
330
1F3
100
AcDbEntity
  8
svg1962
 62
   178
420
   394758
370
    25
100
AcDbVertex
100
AcDb2dVertex
 10
156.1571307527283
 20
228.7916773597954
 30
0.0
  0
SEQEND
  5
1F6
330
1F3
100
AcDbEntity
  8
svg1962
 62
   178
420
   394758
370
    25
  0
POLYLINE
  5
1F7
330
186
100
AcDbEntity
  8
svg1962
 62
   178
420
   394758
370
    25
100
AcDb2dPolyline
 66
     1
 10
0.0
 20
0.0
 30
0.0
  0
VERTEX
  5
1F8
330
1F7
100
AcDbEntity
  8
svg1962
 62
   178
420
   394758
370
    25
100
AcDbVertex
100
AcDb2dVertex
 10
183.8105172719697
 20
228.7916773585548
 30
0.0
  0
VERTEX
  5
1F9
330
1F7
100
AcDbEntity
  8
svg1962
 62
   178
420
   394758
370
    25
100
AcDbVertex
100
AcDb2dVertex
 10
169.9838131984761
 20
216.3476285548932
 30
0.0
  0
SEQEND
  5
1FA
330
1F7
100
AcDbEntity
  8
svg1962
 62
   178
420
   394758
370
    25
  0
POLYLINE
  5
1FB
330
186
100
AcDbEntity
  8
svg1962
 62
   178
420
   394758
370
    25
100
AcDb2dPolyline
 66
     1
 10
0.0
 20
0.0
 30
0.0
  0
VERTEX
  5
1FC
330
1FB
100
AcDbEntity
  8
svg1962
 62
   178
420
   394758
370
    25
100
AcDbVertex
100
AcDb2dVertex
 10
124.3556919210114
 20
228.7916773612233
 30
0.0
  0
VERTEX
  5
1FD
330
1FB
100
AcDbEntity
  8
svg1962
 62
   178
420
   394758
370
    25
100
AcDbVertex
100
AcDb2dVertex
 10
152.0091000668817
 20
228.7916773599827
 30
0.0
  0
SEQEND
  5
1FE
330
1FB
100
AcDbEntity
  8
svg1962
 62
   178
420
   394758
370
    25
  0
POLYLINE
  5
1FF
330
186
100
AcDbEntity
  8
svg1962
 62
   178
420
   394758
370
    25
100
AcDb2dPolyline
 66
     1
 10
0.0
 20
0.0
 30
0.0
  0
VERTEX
  5
200
330
1FF
100
AcDbEntity
  8
svg1962
 62
   178
420
   394758
370
    25
100
AcDbVertex
100
AcDb2dVertex
 10
138.1824176200171
 20
216.3476285563211
 30
0.0
  0
VERTEX
  5
201
330
1FF
100
AcDbEntity
  8
svg1962
 62
   178
420
   394758
370
    25
100
AcDbVertex
100
AcDb2dVertex
 10
124.3556919210114
 20
228.7916773612233
 30
0.0
  0
SEQEND
  5
202
330
1FF
100
AcDbEntity
  8
svg1962
 62
   178
420
   394758
370
    25
  0
POLYLINE
  5
203
330
186
100
AcDbEntity
  8
svg1962
 62
   178
420
   394758
370
    25
100
AcDb2dPolyline
 66
     1
 10
0.0
 20
0.0
 30
0.0
  0
VERTEX
  5
204
330
203
100
AcDbEntity
  8
svg1962
 62
   178
420
   394758
370
    25
100
AcDbVertex
100
AcDb2dVertex
 10
152.0091000668817
 20
228.7916773599827
 30
0.0
  0
VERTEX
  5
205
330
203
100
AcDbEntity
  8
svg1962
 62
   178
420
   394758
370
    25
100
AcDbVertex
100
AcDb2dVertex
 10
138.1824176200171
 20
216.3476285563211
 30
0.0
  0
SEQEND
  5
206
330
203
100
AcDbEntity
  8
svg1962
 62
   178
420
   394758
370
    25
  0
POLYLINE
  5
207
330
186
100
AcDbEntity
  8
svg1962
 62
   178
420
   394758
370
    25
100
AcDb2dPolyline
 66
     1
 10
0.0
 20
0.0
 30
0.0
  0
VERTEX
  5
208
330
207
100
AcDbEntity
  8
svg1962
 62
   178
420
   394758
370
    25
100
AcDbVertex
100
AcDb2dVertex
 10
92.55425308929443
 20
228.7916773626512
 30
0.0
  0
VERTEX
  5
209
330
207
100
AcDbEntity
  8
svg1962
 62
   178
420
   394758
370
    25
100
AcDbVertex
100
AcDb2dVertex
 10
120.2076612351648
 20
228.7916773614106
 30
0.0
  0
SEQEND
  5
20A
330
207
100
AcDbEntity
  8
svg1962
 62
   178
420
   394758
370
    25
  0
POLYLINE
  5
20B
330
186
100
AcDbEntity
  8
svg1962
 62
   178
420
   394758
370
    25
100
AcDb2dPolyline
 66
     1
 10
0.0
 20
0.0
 30
0.0
  0
VERTEX
  5
20C
330
20B
100
AcDbEntity
  8
svg1962
 62
   178
420
   394758
370
    25
100
AcDbVertex
100
AcDb2dVertex
 10
106.3809787883001
 20
216.347628557749
 30
0.0
  0
VERTEX
  5
20D
330
20B
100
AcDbEntity
  8
svg1962
 62
   178
420
   394758
370
    25
100
AcDbVertex
100
AcDb2dVertex
 10
92.55425308929443
 20
228.7916773626512
 30
0.0
  0
SEQEND
  5
20E
330
20B
100
AcDbEntity
  8
svg1962
 62
   178
420
   394758
370
    25
  0
POLYLINE
  5
20F
330
186
100
AcDbEntity
  8
svg1962
 62
   178
420
   394758
370
    25
100
AcDb2dPolyline
 66
     1
 10
0.0
 20
0.0
 30
0.0
  0
VERTEX
  5
210
330
20F
100
AcDbEntity
  8
svg1962
 62
   178
420
   394758
370
    25
100
AcDbVertex
100
AcDb2dVertex
 10
120.2076612351648
 20
228.7916773614106
 30
0.0
  0
VERTEX
  5
211
330
20F
100
AcDbEntity
  8
svg1962
 62
   178
420
   394758
370
    25
100
AcDbVertex
100
AcDb2dVertex
 10
106.3809787883001
 20
216.347628557749
 30
0.0
  0
SEQEND
  5
212
330
20F
100
AcDbEntity
  8
svg1962
 62
   178
420
   394758
370
    25
  0
POLYLINE
  5
213
330
186
100
AcDbEntity
  8
svg1962
 62
   178
420
   394758
370
    25
100
AcDb2dPolyline
 66
     1
 10
0.0
 20
0.0
 30
0.0
  0
VERTEX
  5
214
330
213
100
AcDbEntity
  8
svg1962
 62
   178
420
   394758
370
    25
100
AcDbVertex
100
AcDb2dVertex
 10
154.7744538547149
 20
167.9541534869895
 30
0.0
  0
VERTEX
  5
215
330
213
100
AcDbEntity
  8
svg1962
 62
   178
420
   394758
370
    25
100
AcDbVertex
100
AcDb2dVertex
 10
182.4278620005853
 20
167.9541534857472
 30
0.0
  0
SEQEND
  5
216
330
213
100
AcDbEntity
  8
svg1962
 62
   178
420
   394758
370
    25
  0
POLYLINE
  5
217
330
186
100
AcDbEntity
  8
svg1962
 62
   178
420
   394758
370
    25
100
AcDb2dPolyline
 66
     1
 10
0.0
 20
0.0
 30
0.0
  0
VERTEX
  5
218
330
217
100
AcDbEntity
  8
svg1962
 62
   178
420
   394758
370
    25
100
AcDbVertex
100
AcDb2dVertex
 10
168.6011363004627
 20
155.5101046820855
 30
0.0
  0
VERTEX
  5
219
330
217
100
AcDbEntity
  8
svg1962
 62
   178
420
   394758
370
    25
100
AcDbVertex
100
AcDb2dVertex
 10
154.774432228086
 20
167.9541534869895
 30
0.0
  0
SEQEND
  5
21A
330
217
100
AcDbEntity
  8
svg1962
 62
   178
420
   394758
370
    25
  0
POLYLINE
  5
21B
330
186
100
AcDbEntity
  8
svg1962
 62
   178
420
   394758
370
    25
100
AcDb2dPolyline
 66
     1
 10
0.0
 20
0.0
 30
0.0
  0
VERTEX
  5
21C
330
21B
100
AcDbEntity
  8
svg1962
 62
   178
420
   394758
370
    25
100
AcDbVertex
100
AcDb2dVertex
 10
182.4278403739563
 20
167.9541102324893
 30
0.0
  0
VERTEX
  5
21D
330
21B
100
AcDbEntity
  8
svg1962
 62
   178
420
   394758
370
    25
100
AcDbVertex
100
AcDb2dVertex
 10
168.6011363004627
 20
155.5100614288276
 30
0.0
  0
SEQEND
  5
21E
330
21B
100
AcDbEntity
  8
svg1962
 62
   178
420
   394758
370
    25
  0
POLYLINE
  5
21F
330
186
100
AcDbEntity
  8
svg1962
 62
   178
420
   394758
370
    25
100
AcDb2dPolyline
 66
     1
 10
0.0
 20
0.0
 30
0.0
  0
VERTEX
  5
220
330
21F
100
AcDbEntity
  8
svg1962
 62
   178
420
   394758
370
    25
100
AcDbVertex
100
AcDb2dVertex
 10
122.972993396369
 20
167.9541534884174
 30
0.0
  0
VERTEX
  5
221
330
21F
100
AcDbEntity
  8
svg1962
 62
   178
420
   394758
370
    25
100
AcDbVertex
100
AcDb2dVertex
 10
150.6264447954973
 20
167.9541534871751
 30
0.0
  0
SEQEND
  5
222
330
21F
100
AcDbEntity
  8
svg1962
 62
   178
420
   394758
370
    25
  0
POLYLINE
  5
223
330
186
100
AcDbEntity
  8
svg1962
 62
   178
420
   394758
370
    25
100
AcDb2dPolyline
 66
     1
 10
0.0
 20
0.0
 30
0.0
  0
VERTEX
  5
224
330
223
100
AcDbEntity
  8
svg1962
 62
   178
420
   394758
370
    25
100
AcDbVertex
100
AcDb2dVertex
 10
136.7997407220037
 20
155.5101046835134
 30
0.0
  0
VERTEX
  5
225
330
223
100
AcDbEntity
  8
svg1962
 62
   178
420
   394758
370
    25
100
AcDbVertex
100
AcDb2dVertex
 10
122.973015022998
 20
167.9541534884174
 30
0.0
  0
SEQEND
  5
226
330
223
100
AcDbEntity
  8
svg1962
 62
   178
420
   394758
370
    25
  0
POLYLINE
  5
227
330
186
100
AcDbEntity
  8
svg1962
 62
   178
420
   394758
370
    25
100
AcDb2dPolyline
 66
     1
 10
0.0
 20
0.0
 30
0.0
  0
VERTEX
  5
228
330
227
100
AcDbEntity
  8
svg1962
 62
   178
420
   394758
370
    25
100
AcDbVertex
100
AcDb2dVertex
 10
150.6264447954973
 20
167.9541102339172
 30
0.0
  0
VERTEX
  5
229
330
227
100
AcDbEntity
  8
svg1962
 62
   178
420
   394758
370
    25
100
AcDbVertex
100
AcDb2dVertex
 10
136.7997190953747
 20
155.5100614302555
 30
0.0
  0
SEQEND
  5
22A
330
227
100
AcDbEntity
  8
svg1962
 62
   178
420
   394758
370
    25
  0
POLYLINE
  5
22B
330
186
100
AcDbEntity
  8
svg1962
 62
   178
420
   394758
370
    25
100
AcDb2dPolyline
 66
     1
 10
0.0
 20
0.0
 30
0.0
  0
VERTEX
  5
22C
330
22B
100
AcDbEntity
  8
svg1962
 62
   178
420
   394758
370
    25
100
AcDbVertex
100
AcDb2dVertex
 10
91.17157619128102
 20
167.9541534898435
 30
0.0
  0
VERTEX
  5
22D
330
22B
100
AcDbEntity
  8
svg1962
 62
   178
420
   394758
370
    25
100
AcDbVertex
100
AcDb2dVertex
 10
118.8250059637803
 20
167.954153488603
 30
0.0
  0
SEQEND
  5
22E
330
22B
100
AcDbEntity
  8
svg1962
 62
   178
420
   394758
370
    25
  0
POLYLINE
  5
22F
330
186
100
AcDbEntity
  8
svg1962
 62
   178
420
   394758
370
    25
100
AcDb2dPolyline
 66
     1
 10
0.0
 20
0.0
 30
0.0
  0
VERTEX
  5
230
330
22F
100
AcDbEntity
  8
svg1962
 62
   178
420
   394758
370
    25
100
AcDbVertex
100
AcDb2dVertex
 10
104.9983018902867
 20
155.5101046849413
 30
0.0
  0
VERTEX
  5
231
330
22F
100
AcDbEntity
  8
svg1962
 62
   178
420
   394758
370
    25
100
AcDbVertex
100
AcDb2dVertex
 10
91.17157619128102
 20
167.9541534898435
 30
0.0
  0
SEQEND
  5
232
330
22F
100
AcDbEntity
  8
svg1962
 62
   178
420
   394758
370
    25
  0
POLYLINE
  5
233
330
186
100
AcDbEntity
  8
svg1962
 62
   178
420
   394758
370
    25
100
AcDb2dPolyline
 66
     1
 10
0.0
 20
0.0
 30
0.0
  0
VERTEX
  5
234
330
233
100
AcDbEntity
  8
svg1962
 62
   178
420
   394758
370
    25
100
AcDbVertex
100
AcDb2dVertex
 10
118.8250059637803
 20
167.9541102353451
 30
0.0
  0
VERTEX
  5
235
330
233
100
AcDbEntity
  8
svg1962
 62
   178
420
   394758
370
    25
100
AcDbVertex
100
AcDb2dVertex
 10
104.9982802636578
 20
155.5100614316834
 30
0.0
  0
SEQEND
  5
236
330
233
100
AcDbEntity
  8
svg1962
 62
   178
420
   394758
370
    25
  0
POLYLINE
  5
237
330
186
100
AcDbEntity
  8
svg1962
 62
   178
420
   394758
370
    25
100
AcDb2dPolyline
 66
     1
 10
0.0
 20
0.0
 30
0.0
  0
VERTEX
  5
238
330
237
100
AcDbEntity
  8
svg1962
 62
   178
420
   394758
370
    25
100
AcDbVertex
100
AcDb2dVertex
 10
139.5650728857527
 20
151.362117250801
 30
0.0
  0
VERTEX
  5
239
330
237
100
AcDbEntity
  8
svg1962
 62
   178
420
   394758
370
    25
100
AcDbVertex
100
AcDb2dVertex
 10
167.218481031623
 20
151.3621172495587
 30
0.0
  0
SEQEND
  5
23A
330
237
100
AcDbEntity
  8
svg1962
 62
   178
420
   394758
370
    25
  0
POLYLINE
  5
23B
330
186
100
AcDbEntity
  8
svg1962
 62
   178
420
   394758
370
    25
100
AcDb2dPolyline
 66
     1
 10
0.0
 20
0.0
 30
0.0
  0
VERTEX
  5
23C
330
23B
100
AcDbEntity
  8
svg1962
 62
   178
420
   394758
370
    25
100
AcDbVertex
100
AcDb2dVertex
 10
153.3917985847575
 20
138.9180684458988
 30
0.0
  0
VERTEX
  5
23D
330
23B
100
AcDbEntity
  8
svg1962
 62
   178
420
   394758
370
    25
100
AcDbVertex
100
AcDb2dVertex
 10
139.5650728857527
 20
151.362117250801
 30
0.0
  0
SEQEND
  5
23E
330
23B
100
AcDbEntity
  8
svg1962
 62
   178
420
   394758
370
    25
  0
POLYLINE
  5
23F
330
186
100
AcDbEntity
  8
svg1962
 62
   178
420
   394758
370
    25
100
AcDb2dPolyline
 66
     1
 10
0.0
 20
0.0
 30
0.0
  0
VERTEX
  5
240
330
23F
100
AcDbEntity
  8
svg1962
 62
   178
420
   394758
370
    25
100
AcDbVertex
100
AcDb2dVertex
 10
167.2184594049941
 20
151.3621172495587
 30
0.0
  0
VERTEX
  5
241
330
23F
100
AcDbEntity
  8
svg1962
 62
   178
420
   394758
370
    25
100
AcDbVertex
100
AcDb2dVertex
 10
153.3917769581285
 20
138.9180684458988
 30
0.0
  0
SEQEND
  5
242
330
23F
100
AcDbEntity
  8
svg1962
 62
   178
420
   394758
370
    25
  0
POLYLINE
  5
243
330
186
100
AcDbEntity
  8
svg1962
 62
   178
420
   394758
370
    25
100
AcDb2dPolyline
 66
     1
 10
0.0
 20
0.0
 30
0.0
  0
VERTEX
  5
244
330
243
100
AcDbEntity
  8
svg1962
 62
   178
420
   394758
370
    25
100
AcDbVertex
100
AcDb2dVertex
 10
106.3809787853825
 20
151.3621172522908
 30
0.0
  0
VERTEX
  5
245
330
243
100
AcDbEntity
  8
svg1962
 62
   178
420
   394758
370
    25
100
AcDbVertex
100
AcDb2dVertex
 10
134.0343869312528
 20
151.3621172510502
 30
0.0
  0
SEQEND
  5
246
330
243
100
AcDbEntity
  8
svg1962
 62
   178
420
   394758
370
    25
  0
POLYLINE
  5
247
330
186
100
AcDbEntity
  8
svg1962
 62
   178
420
   394758
370
    25
100
AcDb2dPolyline
 66
     1
 10
0.0
 20
0.0
 30
0.0
  0
VERTEX
  5
248
330
247
100
AcDbEntity
  8
svg1962
 62
   178
420
   394758
370
    25
100
AcDbVertex
100
AcDb2dVertex
 10
120.2076612311294
 20
138.9180684473886
 30
0.0
  0
VERTEX
  5
249
330
247
100
AcDbEntity
  8
svg1962
 62
   178
420
   394758
370
    25
100
AcDbVertex
100
AcDb2dVertex
 10
106.3809787853825
 20
151.3621172522908
 30
0.0
  0
SEQEND
  5
24A
330
247
100
AcDbEntity
  8
svg1962
 62
   178
420
   394758
370
    25
  0
POLYLINE
  5
24B
330
186
100
AcDbEntity
  8
svg1962
 62
   178
420
   394758
370
    25
100
AcDb2dPolyline
 66
     1
 10
0.0
 20
0.0
 30
0.0
  0
VERTEX
  5
24C
330
24B
100
AcDbEntity
  8
svg1962
 62
   178
420
   394758
370
    25
100
AcDbVertex
100
AcDb2dVertex
 10
134.0343869312528
 20
151.3621172510502
 30
0.0
  0
VERTEX
  5
24D
330
24B
100
AcDbEntity
  8
svg1962
 62
   178
420
   394758
370
    25
100
AcDbVertex
100
AcDb2dVertex
 10
120.2076612311294
 20
138.9180684473886
 30
0.0
  0
SEQEND
  5
24E
330
24B
100
AcDbEntity
  8
svg1962
 62
   178
420
   394758
370
    25
  0
POLYLINE
  5
24F
330
186
100
AcDbEntity
  8
svg1962
 62
   178
420
   394758
370
    25
100
AcDb2dPolyline
 66
     1
 10
0.0
 20
0.0
 30
0.0
  0
VERTEX
  5
250
330
24F
100
AcDbEntity
  8
svg1962
 62
   178
420
   394758
370
    25
100
AcDbVertex
100
AcDb2dVertex
 10
222.5253189608557
 20
393.3294925900136
 30
0.0
  0
VERTEX
  5
251
330
24F
100
AcDbEntity
  8
svg1962
 62
   178
420
   394758
370
    25
100
AcDbVertex
100
AcDb2dVertex
 10
215.6119561110736
 20
393.3294925903247
 30
0.0
  0
SEQEND
  5
252
330
24F
100
AcDbEntity
  8
svg1962
 62
   178
420
   394758
370
    25
  0
POLYLINE
  5
253
330
186
100
AcDbEntity
  8
svg1962
 62
   178
420
   394758
370
    25
100
AcDb2dPolyline
 66
     1
 10
0.0
 20
0.0
 30
0.0
  0
VERTEX
  5
254
330
253
100
AcDbEntity
  8
svg1962
 62
   178
420
   394758
370
    25
100
AcDbVertex
100
AcDb2dVertex
 10
219.0686267228366
 20
397.4775232760167
 30
0.0
  0
VERTEX
  5
255
330
253
100
AcDbEntity
  8
svg1962
 62
   178
420
   394758
370
    25
100
AcDbVertex
100
AcDb2dVertex
 10
219.0686267226502
 20
393.32949259017
 30
0.0
  0
SEQEND
  5
256
330
253
100
AcDbEntity
  8
svg1962
 62
   178
420
   394758
370
    25
  0
POLYLINE
  5
257
330
186
100
AcDbEntity
  8
svg1962
 62
   178
420
   394758
370
    25
100
AcDb2dPolyline
 66
     1
 10
0.0
 20
0.0
 30
0.0
  0
VERTEX
  5
258
330
257
100
AcDbEntity
  8
svg1962
 62
   178
420
   394758
370
    25
100
AcDbVertex
100
AcDb2dVertex
 10
219.0686267224646
 20
389.1815051575813
 30
0.0
  0
VERTEX
  5
259
330
257
100
AcDbEntity
  8
svg1962
 62
   178
420
   394758
370
    25
100
AcDbVertex
100
AcDb2dVertex
 10
219.0686267226502
 20
393.32949259017
 30
0.0
  0
SEQEND
  5
25A
330
257
100
AcDbEntity
  8
svg1962
 62
   178
420
   394758
370
    25
  0
POLYLINE
  5
25B
330
186
100
AcDbEntity
  8
svg1962
 62
   178
420
   394758
370
    25
100
AcDb2dPolyline
 66
     1
 10
0.0
 20
0.0
 30
0.0
  0
VERTEX
  5
25C
330
25B
100
AcDbEntity
  8
svg1962
 62
   178
420
   394758
370
    25
100
AcDbVertex
100
AcDb2dVertex
 10
164.4531488785506
 20
393.329492592622
 30
0.0
  0
VERTEX
  5
25D
330
25B
100
AcDbEntity
  8
svg1962
 62
   178
420
   394758
370
    25
100
AcDbVertex
100
AcDb2dVertex
 10
157.5397860287685
 20
393.3294925929313
 30
0.0
  0
SEQEND
  5
25E
330
25B
100
AcDbEntity
  8
svg1962
 62
   178
420
   394758
370
    25
  0
POLYLINE
  5
25F
330
186
100
AcDbEntity
  8
svg1962
 62
   178
420
   394758
370
    25
100
AcDb2dPolyline
 66
     1
 10
0.0
 20
0.0
 30
0.0
  0
VERTEX
  5
260
330
25F
100
AcDbEntity
  8
svg1962
 62
   178
420
   394758
370
    25
100
AcDbVertex
100
AcDb2dVertex
 10
160.9964566405315
 20
397.4775232786233
 30
0.0
  0
VERTEX
  5
261
330
25F
100
AcDbEntity
  8
svg1962
 62
   178
420
   394758
370
    25
100
AcDbVertex
100
AcDb2dVertex
 10
160.9964566403451
 20
393.3294925927767
 30
0.0
  0
SEQEND
  5
262
330
25F
100
AcDbEntity
  8
svg1962
 62
   178
420
   394758
370
    25
  0
POLYLINE
  5
263
330
186
100
AcDbEntity
  8
svg1962
 62
   178
420
   394758
370
    25
100
AcDb2dPolyline
 66
     1
 10
0.0
 20
0.0
 30
0.0
  0
VERTEX
  5
264
330
263
100
AcDbEntity
  8
svg1962
 62
   178
420
   394758
370
    25
100
AcDbVertex
100
AcDb2dVertex
 10
160.9964566401595
 20
389.181505160188
 30
0.0
  0
VERTEX
  5
265
330
263
100
AcDbEntity
  8
svg1962
 62
   178
420
   394758
370
    25
100
AcDbVertex
100
AcDb2dVertex
 10
160.9964566403451
 20
393.3294925927767
 30
0.0
  0
SEQEND
  5
266
330
263
100
AcDbEntity
  8
svg1962
 62
   178
420
   394758
370
    25
  0
POLYLINE
  5
267
330
186
100
AcDbEntity
  8
svg1962
 62
   178
420
   394758
370
    25
100
AcDb2dPolyline
 66
     1
 10
0.0
 20
0.0
 30
0.0
  0
VERTEX
  5
268
330
267
100
AcDbEntity
  8
svg1962
 62
   178
420
   394758
370
    25
100
AcDbVertex
100
AcDb2dVertex
 10
106.3809787962455
 20
393.3294925952287
 30
0.0
  0
VERTEX
  5
269
330
267
100
AcDbEntity
  8
svg1962
 62
   178
420
   394758
370
    25
100
AcDbVertex
100
AcDb2dVertex
 10
99.46761594646341
 20
393.3294925955397
 30
0.0
  0
SEQEND
  5
26A
330
267
100
AcDbEntity
  8
svg1962
 62
   178
420
   394758
370
    25
  0
POLYLINE
  5
26B
330
186
100
AcDbEntity
  8
svg1962
 62
   178
420
   394758
370
    25
100
AcDb2dPolyline
 66
     1
 10
0.0
 20
0.0
 30
0.0
  0
VERTEX
  5
26C
330
26B
100
AcDbEntity
  8
svg1962
 62
   178
420
   394758
370
    25
100
AcDbVertex
100
AcDb2dVertex
 10
102.9242865582264
 20
397.4775232812299
 30
0.0
  0
VERTEX
  5
26D
330
26B
100
AcDbEntity
  8
svg1962
 62
   178
420
   394758
370
    25
100
AcDbVertex
100
AcDb2dVertex
 10
102.92428655804
 20
393.3294925953833
 30
0.0
  0
SEQEND
  5
26E
330
26B
100
AcDbEntity
  8
svg1962
 62
   178
420
   394758
370
    25
  0
POLYLINE
  5
26F
330
186
100
AcDbEntity
  8
svg1962
 62
   178
420
   394758
370
    25
100
AcDb2dPolyline
 66
     1
 10
0.0
 20
0.0
 30
0.0
  0
VERTEX
  5
270
330
26F
100
AcDbEntity
  8
svg1962
 62
   178
420
   394758
370
    25
100
AcDbVertex
100
AcDb2dVertex
 10
102.9242865578544
 20
389.1815051627946
 30
0.0
  0
VERTEX
  5
271
330
26F
100
AcDbEntity
  8
svg1962
 62
   178
420
   394758
370
    25
100
AcDbVertex
100
AcDb2dVertex
 10
102.92428655804
 20
393.3294925953833
 30
0.0
  0
SEQEND
  5
272
330
26F
100
AcDbEntity
  8
svg1962
 62
   178
420
   394758
370
    25
  0
POLYLINE
  5
273
330
186
100
AcDbEntity
  8
svg1962
 62
   178
420
   394758
370
    25
100
AcDb2dPolyline
 66
     1
 10
0.0
 20
0.0
 30
0.0
  0
VERTEX
  5
274
330
273
100
AcDbEntity
  8
svg1962
 62
   178
420
   394758
370
    25
100
AcDbVertex
100
AcDb2dVertex
 10
143.0217434978877
 20
163.8060795484125
 30
0.0
  0
VERTEX
  5
275
330
273
100
AcDbEntity
  8
svg1962
 62
   178
420
   394758
370
    25
100
AcDbVertex
100
AcDb2dVertex
 10
136.1083806481056
 20
163.8060795487218
 30
0.0
  0
SEQEND
  5
276
330
273
100
AcDbEntity
  8
svg1962
 62
   178
420
   394758
370
    25
  0
POLYLINE
  5
277
330
186
100
AcDbEntity
  8
svg1962
 62
   178
420
   394758
370
    25
100
AcDb2dPolyline
 66
     1
 10
0.0
 20
0.0
 30
0.0
  0
VERTEX
  5
278
330
277
100
AcDbEntity
  8
svg1962
 62
   178
420
   394758
370
    25
100
AcDbVertex
100
AcDb2dVertex
 10
139.5650728864975
 20
167.9541102344137
 30
0.0
  0
VERTEX
  5
279
330
277
100
AcDbEntity
  8
svg1962
 62
   178
420
   394758
370
    25
100
AcDbVertex
100
AcDb2dVertex
 10
139.5650728863111
 20
163.8060795485671
 30
0.0
  0
SEQEND
  5
27A
330
277
100
AcDbEntity
  8
svg1962
 62
   178
420
   394758
370
    25
  0
POLYLINE
  5
27B
330
186
100
AcDbEntity
  8
svg1962
 62
   178
420
   394758
370
    25
100
AcDb2dPolyline
 66
     1
 10
0.0
 20
0.0
 30
0.0
  0
VERTEX
  5
27C
330
27B
100
AcDbEntity
  8
svg1962
 62
   178
420
   394758
370
    25
100
AcDbVertex
100
AcDb2dVertex
 10
139.5650728861247
 20
159.6580921159784
 30
0.0
  0
VERTEX
  5
27D
330
27B
100
AcDbEntity
  8
svg1962
 62
   178
420
   394758
370
    25
100
AcDbVertex
100
AcDb2dVertex
 10
139.5650728863111
 20
163.8060795485671
 30
0.0
  0
SEQEND
  5
27E
330
27B
100
AcDbEntity
  8
svg1962
 62
   178
420
   394758
370
    25
  0
POLYLINE
  5
27F
330
186
100
AcDbEntity
  8
svg1962
 62
   178
420
   394758
370
    25
100
AcDb2dPolyline
 66
     1
 10
0.0
 20
0.0
 30
0.0
  0
VERTEX
  5
280
330
27F
100
AcDbEntity
  8
svg1962
 62
   178
420
   394758
370
    25
100
AcDbVertex
100
AcDb2dVertex
 10
193.4892339143707
 20
274.5439354863156
 30
0.0
  0
VERTEX
  5
281
330
27F
100
AcDbEntity
  8
svg1962
 62
   178
420
   394758
370
    25
100
AcDbVertex
100
AcDb2dVertex
 10
186.5758710642722
 20
267.5064141600433
 30
0.0
  0
SEQEND
  5
282
330
27F
100
AcDbEntity
  8
svg1962
 62
   178
420
   394758
370
    25
  0
POLYLINE
  5
283
330
186
100
AcDbEntity
  8
svg1962
 62
   178
420
   394758
370
    25
100
AcDb2dPolyline
 66
     1
 10
0.0
 20
0.0
 30
0.0
  0
VERTEX
  5
284
330
283
100
AcDbEntity
  8
svg1962
 62
   178
420
   394758
370
    25
100
AcDbVertex
100
AcDb2dVertex
 10
193.4892122877418
 20
274.5439354863156
 30
0.0
  0
VERTEX
  5
285
330
283
100
AcDbEntity
  8
svg1962
 62
   178
420
   394758
370
    25
100
AcDbVertex
100
AcDb2dVertex
 10
193.4892122877418
 20
274.5439354863156
 30
0.0
  0
SEQEND
  5
286
330
283
100
AcDbEntity
  8
svg1962
 62
   178
420
   394758
370
    25
  0
POLYLINE
  5
287
330
186
100
AcDbEntity
  8
svg1962
 62
   178
420
   394758
370
    25
100
AcDb2dPolyline
 66
     1
 10
0.0
 20
0.0
 30
0.0
  0
VERTEX
  5
288
330
287
100
AcDbEntity
  8
svg1962
 62
   178
420
   394758
370
    25
100
AcDbVertex
100
AcDb2dVertex
 10
200.4025751381387
 20
288.2464810821384
 30
0.0
  0
VERTEX
  5
289
330
287
100
AcDbEntity
  8
svg1962
 62
   178
420
   394758
370
    25
100
AcDbVertex
100
AcDb2dVertex
 10
193.4892122877418
 20
274.5439354863156
 30
0.0
  0
SEQEND
  5
28A
330
287
100
AcDbEntity
  8
svg1962
 62
   178
420
   394758
370
    25
  0
POLYLINE
  5
28B
330
186
100
AcDbEntity
  8
svg1962
 62
   178
420
   394758
370
    25
100
AcDb2dPolyline
 66
     1
 10
0.0
 20
0.0
 30
0.0
  0
VERTEX
  5
28C
330
28B
100
AcDbEntity
  8
svg1962
 62
   178
420
   394758
370
    25
100
AcDbVertex
100
AcDb2dVertex
 10
82.87557970426042
 20
274.5439354912814
 30
0.0
  0
VERTEX
  5
28D
330
28B
100
AcDbEntity
  8
svg1962
 62
   178
420
   394758
370
    25
100
AcDbVertex
100
AcDb2dVertex
 10
89.78892092709702
 20
267.5064141643888
 30
0.0
  0
SEQEND
  5
28E
330
28B
100
AcDbEntity
  8
svg1962
 62
   178
420
   394758
370
    25
  0
POLYLINE
  5
28F
330
186
100
AcDbEntity
  8
svg1962
 62
   178
420
   394758
370
    25
100
AcDb2dPolyline
 66
     1
 10
0.0
 20
0.0
 30
0.0
  0
VERTEX
  5
290
330
28F
100
AcDbEntity
  8
svg1962
 62
   178
420
   394758
370
    25
100
AcDbVertex
100
AcDb2dVertex
 10
75.96219522846422
 20
288.2464810877264
 30
0.0
  0
VERTEX
  5
291
330
28F
100
AcDbEntity
  8
svg1962
 62
   178
420
   394758
370
    25
100
AcDbVertex
100
AcDb2dVertex
 10
82.87553645100252
 20
274.5439354912814
 30
0.0
  0
SEQEND
  5
292
330
28F
100
AcDbEntity
  8
svg1962
 62
   178
420
   394758
370
    25
  0
INSERT
  5
294
330
186
100
AcDbEntity
  8
svg1962
100
AcDbBlockReference
  2
block 6
 10
0.0
 20
0.0
 30
0.0
  0
POLYLINE
  5
299
330
186
100
AcDbEntity
  8
svg1962
 62
   178
420
   394758
370
    25
100
AcDb2dPolyline
 66
     1
 10
0.0
 20
0.0
 30
0.0
  0
VERTEX
  5
29A
330
299
100
AcDbEntity
  8
svg1962
 62
   178
420
   394758
370
    25
100
AcDbVertex
100
AcDb2dVertex
 10
222.5253189608557
 20
393.3294925900136
 30
0.0
  0
VERTEX
  5
29B
330
299
100
AcDbEntity
  8
svg1962
 62
   178
420
   394758
370
    25
100
AcDbVertex
100
AcDb2dVertex
 10
215.6119561110736
 20
393.3294925903247
 30
0.0
  0
SEQEND
  5
29C
330
299
100
AcDbEntity
  8
svg1962
 62
   178
420
   394758
370
    25
  0
POLYLINE
  5
29D
330
186
100
AcDbEntity
  8
svg1962
 62
   178
420
   394758
370
    25
100
AcDb2dPolyline
 66
     1
 10
0.0
 20
0.0
 30
0.0
  0
VERTEX
  5
29E
330
29D
100
AcDbEntity
  8
svg1962
 62
   178
420
   394758
370
    25
100
AcDbVertex
100
AcDb2dVertex
 10
219.0686267228366
 20
397.4775232760167
 30
0.0
  0
VERTEX
  5
29F
330
29D
100
AcDbEntity
  8
svg1962
 62
   178
420
   394758
370
    25
100
AcDbVertex
100
AcDb2dVertex
 10
219.0686267226502
 20
393.32949259017
 30
0.0
  0
SEQEND
  5
2A0
330
29D
100
AcDbEntity
  8
svg1962
 62
   178
420
   394758
370
    25
  0
SPLINE
  5
2A1
330
186
100
AcDbEntity
  8
svg1962
 62
   178
420
   394758
370
    25
100
AcDbSpline
210
0.0
220
0.0
230
1.0
 70
    11
 71
     3
 72
    23
 73
    19
 74
     0
 42
0.0000000001
 43
0.0000000001
 12
1.0
 22
0.0
 32
0.0
 13
1.0
 23
0.0
 33
0.0
 40
0.0
 40
0.0
 40
0.0
 40
0.0
 40
1.0
 40
1.0
 40
1.0
 40
2.0
 40
2.0
 40
2.0
 40
3.0
 40
3.0
 40
3.0
 40
4.0
 40
4.0
 40
4.0
 40
5.0
 40
5.0
 40
5.0
 40
6.0
 40
6.0
 40
6.0
 40
6.0
 10
216.3032945587147
 20
393.3267243817882
 30
0.0
 10
216.3040514906579
 20
391.7611727121057
 30
0.0
 10
217.5737941295065
 20
390.4926844176225
 30
0.0
 10
219.13932417256
 20
390.4934629761938
 30
0.0
 10
220.7048542156135
 20
390.494241534765
 30
0.0
 10
221.9733425100976
 20
391.7639409203566
 30
0.0
 10
221.9725855781544
 20
393.3294925900391
 30
0.0
 10
221.9725855781544
 20
393.330400908455
 30
0.0
 10
221.9725855781544
 20
393.3313524801288
 30
0.0
 10
221.9725855781544
 20
393.3322607985447
 30
0.0
 10
221.9718286462121
 20
394.8978124682271
 30
0.0
 10
220.7020860073626
 20
396.1663007627103
 30
0.0
 10
219.1365559643091
 20
396.1655222041391
 30
0.0
 10
217.5710259212556
 20
396.1647436455678
 30
0.0
 10
216.3025376267724
 20
394.8950442599762
 30
0.0
 10
216.3032945587147
 20
393.3294925902937
 30
0.0
 10
216.3032945587147
 20
393.3285842718778
 30
0.0
 10
216.3032945587147
 20
393.327632700204
 30
0.0
 10
216.3032945587147
 20
393.3267243817882
 30
0.0
  0
SPLINE
  5
2A2
330
186
100
AcDbEntity
  8
svg1962
 62
   178
420
   394758
370
    25
100
AcDbSpline
210
0.0
220
0.0
230
1.0
 70
    11
 71
     3
 72
    23
 73
    19
 74
     0
 42
0.0000000001
 43
0.0000000001
 12
1.0
 22
0.0
 32
0.0
 13
1.0
 23
0.0
 33
0.0
 40
0.0
 40
0.0
 40
0.0
 40
0.0
 40
1.0
 40
1.0
 40
1.0
 40
2.0
 40
2.0
 40
2.0
 40
3.0
 40
3.0
 40
3.0
 40
4.0
 40
4.0
 40
4.0
 40
5.0
 40
5.0
 40
5.0
 40
6.0
 40
6.0
 40
6.0
 40
6.0
 10
100.1762773238934
 20
393.3267243870014
 30
0.0
 10
100.1770342558366
 20
391.7611727173189
 30
0.0
 10
101.4467768946852
 20
390.4926844228357
 30
0.0
 10
103.0123069377387
 20
390.493462981407
 30
0.0
 10
104.5778369807922
 20
390.4942415399801
 30
0.0
 10
105.8463252752763
 20
391.7639409255698
 30
0.0
 10
105.8455683433331
 20
393.3294925952523
 30
0.0
 10
105.8455683433331
 20
393.3304009136682
 30
0.0
 10
105.8455683433331
 20
393.331352485342
 30
0.0
 10
105.8455683433331
 20
393.3322608037579
 30
0.0
 10
105.8448114113908
 20
394.8978124734404
 30
0.0
 10
104.5750687725413
 20
396.1663007679253
 30
0.0
 10
103.0095387294878
 20
396.1655222093523
 30
0.0
 10
101.4440086864342
 20
396.164743650781
 30
0.0
 10
100.1755203919511
 20
394.8950442651894
 30
0.0
 10
100.1762773238934
 20
393.329492595507
 30
0.0
 10
100.1762773238934
 20
393.3285842770911
 30
0.0
 10
100.1762773238934
 20
393.3276327054173
 30
0.0
 10
100.1762773238934
 20
393.3267243870014
 30
0.0
  0
SPLINE
  5
2A3
330
186
100
AcDbEntity
  8
svg1962
 62
   178
420
   394758
370
    25
100
AcDbSpline
210
0.0
220
0.0
230
1.0
 70
    11
 71
     3
 72
    23
 73
    19
 74
     0
 42
0.0000000001
 43
0.0000000001
 12
1.0
 22
0.0
 32
0.0
 13
1.0
 23
0.0
 33
0.0
 40
0.0
 40
0.0
 40
0.0
 40
0.0
 40
1.0
 40
1.0
 40
1.0
 40
2.0
 40
2.0
 40
2.0
 40
3.0
 40
3.0
 40
3.0
 40
4.0
 40
4.0
 40
4.0
 40
5.0
 40
5.0
 40
5.0
 40
6.0
 40
6.0
 40
6.0
 40
6.0
 10
158.2311244764096
 20
393.3233073770207
 30
0.0
 10
158.2328329800266
 20
391.7577557073382
 30
0.0
 10
159.5033325508884
 20
390.4900459714972
 30
0.0
 10
161.068862593942
 20
390.4917328484844
 30
0.0
 10
162.6343926369955
 20
390.4934629787313
 30
0.0
 10
163.9021239994663
 20
391.7639409229632
 30
0.0
 10
163.9004154958493
 20
393.3294925926457
 30
0.0
 10
163.9004154958493
 20
393.3315687490249
 30
0.0
 10
163.9004154958502
 20
393.3336016521462
 30
0.0
 10
163.9004154958502
 20
393.3356778085254
 30
0.0
 10
163.8987069922332
 20
394.9012294782078
 30
0.0
 10
162.6282074213705
 20
396.1689392140506
 30
0.0
 10
161.0626773783169
 20
396.1672523370617
 30
0.0
 10
159.4971473352634
 20
396.1655222068166
 30
0.0
 10
158.2294159727935
 20
394.8950442625828
 30
0.0
 10
158.2311244764096
 20
393.3294925929004
 30
0.0
 10
158.2311244764096
 20
393.3274164365212
 30
0.0
 10
158.2311244764096
 20
393.3253835333999
 30
0.0
 10
158.2311244764096
 20
393.3233073770207
 30
0.0
  0
SPLINE
  5
2A4
330
186
100
AcDbEntity
  8
svg1962
 62
   178
420
   394758
370
    25
100
AcDbSpline
210
0.0
220
0.0
230
1.0
 70
    11
 71
     3
 72
    23
 73
    19
 74
     0
 42
0.0000000001
 43
0.0000000001
 12
1.0
 22
0.0
 32
0.0
 13
1.0
 23
0.0
 33
0.0
 40
0.0
 40
0.0
 40
0.0
 40
0.0
 40
1.0
 40
1.0
 40
1.0
 40
2.0
 40
2.0
 40
2.0
 40
3.0
 40
3.0
 40
3.0
 40
4.0
 40
4.0
 40
4.0
 40
5.0
 40
5.0
 40
5.0
 40
6.0
 40
6.0
 40
6.0
 40
6.0
 10
138.3885842817417
 20
393.3294925937917
 30
0.0
 10
138.3885842811796
 20
380.8052522493635
 30
0.0
 10
148.5414863874257
 20
370.6523285155763
 30
0.0
 10
161.0657483584828
 20
370.6523285150142
 30
0.0
 10
173.5900103295398
 20
370.6523285144522
 30
0.0
 10
183.7429124366972
 20
380.8052522473281
 30
0.0
 10
183.7429124372593
 20
393.3294925917562
 30
0.0
 10
183.7429340638892
 20
393.3442419527
 30
0.0
 10
183.7429340638901
 20
393.3590345669018
 30
0.0
 10
183.742912437262
 20
393.3737839278456
 30
0.0
 10
183.7306717658385
 20
405.8980242722737
 30
0.0
 10
173.5678646635324
 20
416.0410430100019
 30
0.0
 10
161.0436243191043
 20
416.0288023385783
 30
0.0
 10
148.5193623480463
 20
416.0165616671547
 30
0.0
 10
138.376365236948
 20
405.8537329382198
 30
0.0
 10
138.3886059083707
 20
393.3294925937917
 30
0.0
 10
138.3886059083707
 20
393.3294925937917
 30
0.0
 10
138.3885842817417
 20
393.3294925937917
 30
0.0
 10
138.3885842817417
 20
393.3294925937917
 30
0.0
  0
SPLINE
  5
2A5
330
186
100
AcDbEntity
  8
svg1962
 62
   178
420
   394758
370
    25
100
AcDbSpline
210
0.0
220
0.0
230
1.0
 70
    11
 71
     3
 72
    17
 73
    13
 74
     0
 42
0.0000000001
 43
0.0000000001
 12
1.0
 22
0.0
 32
0.0
 13
1.0
 23
0.0
 33
0.0
 40
0.0
 40
0.0
 40
0.0
 40
0.0
 40
1.0
 40
1.0
 40
1.0
 40
2.0
 40
2.0
 40
2.0
 40
3.0
 40
3.0
 40
3.0
 40
4.0
 40
4.0
 40
4.0
 40
4.0
 10
103.0109228325955
 20
370.6523285176208
 30
0.0
 10
115.5351848036526
 20
370.6523285170588
 30
0.0
 10
125.6880869108099
 20
380.8052522499347
 30
0.0
 10
125.688086911372
 20
393.3294925943628
 30
0.0
 10
125.688086911935
 20
405.8537329387909
 30
0.0
 10
115.5351848056889
 20
416.0066566725764
 30
0.0
 10
103.0109228346319
 20
416.0066566731384
 30
0.0
 10
90.4866608635748
 20
416.0066566737005
 30
0.0
 10
80.33375875641741
 20
405.8537329408264
 30
0.0
 10
80.33375875585443
 20
393.3294925963983
 30
0.0
 10
80.33375875529237
 20
380.8052522519702
 30
0.0
 10
90.48666086153844
 20
370.6523285181829
 30
0.0
 10
103.0109228325955
 20
370.6523285176208
 30
0.0
  0
POLYLINE
  5
2A6
330
186
100
AcDbEntity
  8
svg1962
 62
   178
420
   394758
370
    25
100
AcDb2dPolyline
 66
     1
 10
0.0
 20
0.0
 30
0.0
  0
VERTEX
  5
2A7
330
2A6
100
AcDbEntity
  8
svg1962
 62
   178
420
   394758
370
    25
100
AcDbVertex
100
AcDb2dVertex
 10
222.6812469555844
 20
393.3294925900082
 30
0.0
  0
VERTEX
  5
2A8
330
2A6
100
AcDbEntity
  8
svg1962
 62
   178
420
   394758
370
    25
100
AcDbVertex
100
AcDb2dVertex
 10
215.5946331812847
 20
393.3294925903247
 30
0.0
  0
SEQEND
  5
2A9
330
2A6
100
AcDbEntity
  8
svg1962
 62
   178
420
   394758
370
    25
  0
POLYLINE
  5
2AA
330
186
100
AcDbEntity
  8
svg1962
 62
   178
420
   394758
370
    25
100
AcDb2dPolyline
 66
     1
 10
0.0
 20
0.0
 30
0.0
  0
VERTEX
  5
2AB
330
2AA
100
AcDbEntity
  8
svg1962
 62
   178
420
   394758
370
    25
100
AcDbVertex
100
AcDb2dVertex
 10
219.1379400686255
 20
397.5814608547462
 30
0.0
  0
VERTEX
  5
2AC
330
2AA
100
AcDbEntity
  8
svg1962
 62
   178
420
   394758
370
    25
100
AcDbVertex
100
AcDb2dVertex
 10
219.1379400684345
 20
393.3294925901664
 30
0.0
  0
SEQEND
  5
2AD
330
2AA
100
AcDbEntity
  8
svg1962
 62
   178
420
   394758
370
    25
  0
POLYLINE
  5
2AE
330
186
100
AcDbEntity
  8
svg1962
 62
   178
420
   394758
370
    25
100
AcDb2dPolyline
 66
     1
 10
0.0
 20
0.0
 30
0.0
  0
VERTEX
  5
2AF
330
2AE
100
AcDbEntity
  8
svg1962
 62
   178
420
   394758
370
    25
100
AcDbVertex
100
AcDb2dVertex
 10
219.1379400682436
 20
389.0775243255866
 30
0.0
  0
VERTEX
  5
2B0
330
2AE
100
AcDbEntity
  8
svg1962
 62
   178
420
   394758
370
    25
100
AcDbVertex
100
AcDb2dVertex
 10
219.1379400684345
 20
393.3294925901664
 30
0.0
  0
SEQEND
  5
2B1
330
2AE
100
AcDbEntity
  8
svg1962
 62
   178
420
   394758
370
    25
  0
POLYLINE
  5
2B2
330
186
100
AcDbEntity
  8
svg1962
 62
   178
420
   394758
370
    25
100
AcDb2dPolyline
 66
     1
 10
0.0
 20
0.0
 30
0.0
  0
VERTEX
  5
2B3
330
2B2
100
AcDbEntity
  8
svg1962
 62
   178
420
   394758
370
    25
100
AcDbVertex
100
AcDb2dVertex
 10
106.554229720763
 20
393.3294925952214
 30
0.0
  0
VERTEX
  5
2B4
330
2B2
100
AcDbEntity
  8
svg1962
 62
   178
420
   394758
370
    25
100
AcDbVertex
100
AcDb2dVertex
 10
99.46761594646341
 20
393.3294925955397
 30
0.0
  0
SEQEND
  5
2B5
330
2B2
100
AcDbEntity
  8
svg1962
 62
   178
420
   394758
370
    25
  0
POLYLINE
  5
2B6
330
186
100
AcDbEntity
  8
svg1962
 62
   178
420
   394758
370
    25
100
AcDb2dPolyline
 66
     1
 10
0.0
 20
0.0
 30
0.0
  0
VERTEX
  5
2B7
330
2B6
100
AcDbEntity
  8
svg1962
 62
   178
420
   394758
370
    25
100
AcDbVertex
100
AcDb2dVertex
 10
103.0109228338042
 20
397.5814608599594
 30
0.0
  0
VERTEX
  5
2B8
330
2B6
100
AcDbEntity
  8
svg1962
 62
   178
420
   394758
370
    25
100
AcDbVertex
100
AcDb2dVertex
 10
103.0109228336132
 20
393.3294925953796
 30
0.0
  0
SEQEND
  5
2B9
330
2B6
100
AcDbEntity
  8
svg1962
 62
   178
420
   394758
370
    25
  0
POLYLINE
  5
2BA
330
186
100
AcDbEntity
  8
svg1962
 62
   178
420
   394758
370
    25
100
AcDb2dPolyline
 66
     1
 10
0.0
 20
0.0
 30
0.0
  0
VERTEX
  5
2BB
330
2BA
100
AcDbEntity
  8
svg1962
 62
   178
420
   394758
370
    25
100
AcDbVertex
100
AcDb2dVertex
 10
103.0109228334222
 20
389.0775243307999
 30
0.0
  0
VERTEX
  5
2BC
330
2BA
100
AcDbEntity
  8
svg1962
 62
   178
420
   394758
370
    25
100
AcDbVertex
100
AcDb2dVertex
 10
103.0109228336132
 20
393.3294925953796
 30
0.0
  0
SEQEND
  5
2BD
330
2BA
100
AcDbEntity
  8
svg1962
 62
   178
420
   394758
370
    25
  0
SPLINE
  5
2BE
330
186
100
AcDbEntity
  8
svg1962
 62
   178
420
   394758
370
    25
100
AcDbSpline
210
0.0
220
0.0
230
1.0
 70
    11
 71
     3
 72
    17
 73
    13
 74
     0
 42
0.0000000001
 43
0.0000000001
 12
1.0
 22
0.0
 32
0.0
 13
1.0
 23
0.0
 33
0.0
 40
0.0
 40
0.0
 40
0.0
 40
0.0
 40
1.0
 40
1.0
 40
1.0
 40
2.0
 40
2.0
 40
2.0
 40
3.0
 40
3.0
 40
3.0
 40
4.0
 40
4.0
 40
4.0
 40
4.0
 10
219.1379400674168
 20
370.6523285124076
 30
0.0
 10
231.6622020384739
 20
370.6523285118456
 30
0.0
 10
241.8151041456313
 20
380.8052522447197
 30
0.0
 10
241.8151041461933
 20
393.3294925891478
 30
0.0
 10
241.8151041467563
 20
405.8537329335759
 30
0.0
 10
231.6622020405102
 20
416.0066566673631
 30
0.0
 10
219.1379400694532
 20
416.0066566679252
 30
0.0
 10
206.6136780983961
 20
416.0066566684873
 30
0.0
 10
196.4607759912387
 20
405.8537329356132
 30
0.0
 10
196.4607759906758
 20
393.329492591185
 30
0.0
 10
196.4607759901137
 20
380.8052522467569
 30
0.0
 10
206.6136780963598
 20
370.6523285129697
 30
0.0
 10
219.1379400674168
 20
370.6523285124076
 30
0.0
  0
POLYLINE
  5
2BF
330
186
100
AcDbEntity
  8
svg1962
 62
   178
420
   394758
370
    25
100
AcDb2dPolyline
 66
     1
 10
0.0
 20
0.0
 30
0.0
  0
VERTEX
  5
2C0
330
2BF
100
AcDbEntity
  8
svg1962
 62
   178
420
   394758
370
    25
100
AcDbVertex
100
AcDb2dVertex
 10
222.6812469555844
 20
393.3294925900082
 30
0.0
  0
VERTEX
  5
2C1
330
2BF
100
AcDbEntity
  8
svg1962
 62
   178
420
   394758
370
    25
100
AcDbVertex
100
AcDb2dVertex
 10
215.5946331812847
 20
393.3294925903247
 30
0.0
  0
SEQEND
  5
2C2
330
2BF
100
AcDbEntity
  8
svg1962
 62
   178
420
   394758
370
    25
  0
POLYLINE
  5
2C3
330
186
100
AcDbEntity
  8
svg1962
 62
   178
420
   394758
370
    25
100
AcDb2dPolyline
 66
     1
 10
0.0
 20
0.0
 30
0.0
  0
VERTEX
  5
2C4
330
2C3
100
AcDbEntity
  8
svg1962
 62
   178
420
   394758
370
    25
100
AcDbVertex
100
AcDb2dVertex
 10
219.1379400686255
 20
397.5814608547462
 30
0.0
  0
VERTEX
  5
2C5
330
2C3
100
AcDbEntity
  8
svg1962
 62
   178
420
   394758
370
    25
100
AcDbVertex
100
AcDb2dVertex
 10
219.1379400684345
 20
393.3294925901664
 30
0.0
  0
SEQEND
  5
2C6
330
2C3
100
AcDbEntity
  8
svg1962
 62
   178
420
   394758
370
    25
  0
ENDBLK
  5
189
330
186
100
AcDbEntity
  8
0
100
AcDbBlockEnd
  0
BLOCK
  5
295
330
293
100
AcDbEntity
  8
0
100
AcDbBlockBegin
  2
block 6
 70
     0
 10
0.0
 20
0.0
 30
0.0
  3
block 6
  1

  0
MTEXT
  5
297
330
293
100
AcDbEntity
  8
svg1962
 62
     7
420
 16777215
100
AcDbMText
 10
182.034179339008
 20
195.2252810552454
 30
0.0
 40
16.43875886535644
 41
0.0
 46
0.0
 71
     7
 72
     1
  1
\fBD Geminis|b0|i0|c0|p34;\W0.54472;The Tone Geek
210
0.0
220
0.0
230
-1.0
 11
-1.0
 21
4.489665340210154E-11
 31
0.0
 73
     1
 44
1.0
  0
MTEXT
  5
298
330
293
100
AcDbEntity
  8
svg1962
 62
     7
420
 16777215
100
AcDbMText
 10
182.034179339008
 20
195.2252810552454
 30
0.0
 40
16.43875886535644
 41
0.0
 46
0.0
 71
     7
 72
     1
  1
\fBD Geminis|b0|i0|c0|p34;\W0.54472;The Tone Geek
210
0.0
220
0.0
230
-1.0
 11
-1.0
 21
4.489665340210154E-11
 31
0.0
 73
     1
 44
1.0
  0
ENDBLK
  5
296
330
293
100
AcDbEntity
  8
0
100
AcDbBlockEnd
  0
BLOCK
  5
2C9
330
2C7
100
AcDbEntity
  8
0
100
AcDbBlockBegin
  2
block 7
 70
     0
 10
0.0
 20
0.0
 30
0.0
  3
block 7
  1

  0
INSERT
  5
2CC
330
2C7
100
AcDbEntity
  8
svg1962
100
AcDbBlockReference
  2
block 8
 10
0.0
 20
0.0
 30
0.0
  0
INSERT
  5
2D1
330
2C7
100
AcDbEntity
  8
svg1962
100
AcDbBlockReference
  2
block 9
 10
0.0
 20
0.0
 30
0.0
  0
INSERT
  5
2D6
330
2C7
100
AcDbEntity
  8
svg1962
100
AcDbBlockReference
  2
block 10
 10
0.0
 20
0.0
 30
0.0
  0
ENDBLK
  5
2CA
330
2C7
100
AcDbEntity
  8
0
100
AcDbBlockEnd
  0
BLOCK
  5
2CD
330
2CB
100
AcDbEntity
  8
0
100
AcDbBlockBegin
  2
block 8
 70
     0
 10
0.0
 20
0.0
 30
0.0
  3
block 8
  1

  0
MTEXT
  5
2CF
330
2CB
100
AcDbEntity
  8
svg1962
 62
   178
420
        0
100
AcDbMText
 10
209.400390625
 20
269.2510986328125
 30
0.0
 40
6.906901988983154
 41
0.0
 46
0.0
 71
     7
 72
     1
  1
\fConthraxSb-Regular|b0|i0|c0|p34;\W1;TS10
 73
     1
 44
1.0
  0
ENDBLK
  5
2CE
330
2CB
100
AcDbEntity
  8
0
100
AcDbBlockEnd
  0
BLOCK
  5
2D2
330
2D0
100
AcDbEntity
  8
0
100
AcDbBlockBegin
  2
block 9
 70
     0
 10
0.0
 20
0.0
 30
0.0
  3
block 9
  1

  0
MTEXT
  5
2D4
330
2D0
100
AcDbEntity
  8
svg1962
 62
   178
420
        0
100
AcDbMText
 10
304.2548828125
 20
289.8936767578125
 30
0.0
 40
6.906901988983154
 41
0.0
 46
0.0
 71
     7
 72
     1
  1
\fConthraxSb-Regular|b0|i0|c0|p34;\W1;CLASSIC
 73
     1
 44
1.0
  0
ENDBLK
  5
2D3
330
2D0
100
AcDbEntity
  8
0
100
AcDbBlockEnd
  0
BLOCK
  5
2D7
330
2D5
100
AcDbEntity
  8
0
100
AcDbBlockBegin
  2
block 10
 70
     0
 10
0.0
 20
0.0
 30
0.0
  3
block 10
  1

  0
MTEXT
  5
2D9
330
2D5
100
AcDbEntity
  8
svg1962
 62
   178
420
        0
100
AcDbMText
 10
207.6640625
 20
300.0850830078125
 30
0.0
 40
8.978972923278809
 41
0.0
 46
0.0
 71
     7
 72
     1
  1
\fConthraxSb-Regular|b0|i0|c0|p34;\W1;VALVE SCREAMER
 73
     1
 44
1.0
  0
ENDBLK
  5
2D8
330
2D5
100
AcDbEntity
  8
0
100
AcDbBlockEnd
  0
ENDSEC
  0
SECTION
  2
ENTITIES
  0
INSERT
  5
42
330
1F
100
AcDbEntity
  8
svg1962
100
AcDbBlockReference
  2
block 2
 10
0.0
 20
0.0
 30
0.0
  0
INSERT
  5
46
330
1F
100
AcDbEntity
  8
svg1962
100
AcDbBlockReference
  2
block 3
 10
0.0
 20
0.0
 30
0.0
  0
INSERT
  5
2C8
330
1F
100
AcDbEntity
  8
svg1962
100
AcDbBlockReference
  2
block 7
 10
0.0
 20
0.0
 30
0.0
  0
ENDSEC
  0
SECTION
  2
OBJECTS
  0
DICTIONARY
  5
C
330
0
100
AcDbDictionary
281
     1
  3
ACAD_GROUP
350
D
  3
ACAD_LAYOUT
350
1A
  3
ACAD_MATERIAL
350
3B
  3
ACAD_MLEADERSTYLE
350
2DB
  3
ACAD_MLINESTYLE
350
17
  3
ACAD_PLOTSETTINGS
350
19
  3
ACAD_PLOTSTYLENAME
350
E
  3
ACAD_TABLESTYLE
350
2DA
  3
ACAD_VISUALSTYLE
350
2A
  0
SUN
  5
3F
330
29
100
AcDbSun
 90
        1
290
     0
 63
     7
421
 16777215
 40
1.0
291
     1
 91
  2455826
 92
 54000000
292
     0
 70
     2
 71
   256
280
     1
  0
DICTIONARY
  5
D
102
{ACAD_REACTORS
330
C
102
}
330
C
100
AcDbDictionary
281
     1
  0
DICTIONARY
  5
1A
102
{ACAD_REACTORS
330
C
102
}
330
C
100
AcDbDictionary
281
     1
  3
Layout1
350
1E
  3
Layout2
350
26
  3
Model
350
22
  0
DICTIONARY
  5
3B
102
{ACAD_REACTORS
330
C
102
}
330
C
100
AcDbDictionary
281
     1
  3
ByBlock
350
3D
  3
ByLayer
350
3C
  3
Global
350
3E
  0
DICTIONARY
  5
2DB
102
{ACAD_REACTORS
330
C
102
}
330
C
100
AcDbDictionary
281
     1
  0
DICTIONARY
  5
17
102
{ACAD_REACTORS
330
C
102
}
330
C
100
AcDbDictionary
281
     1
  3
Standard
350
18
  0
DICTIONARY
  5
19
102
{ACAD_REACTORS
330
C
102
}
330
C
100
AcDbDictionary
281
     1
  0
ACDBDICTIONARYWDFLT
  5
E
102
{ACAD_REACTORS
330
C
102
}
330
C
100
AcDbDictionary
281
     1
  3
Normal
350
F
100
AcDbDictionaryWithDefault
340
F
  0
DICTIONARY
  5
2DA
102
{ACAD_REACTORS
330
C
102
}
330
C
100
AcDbDictionary
281
     1
  0
DICTIONARY
  5
2A
102
{ACAD_REACTORS
330
C
102
}
330
C
100
AcDbDictionary
281
     1
  3
2dWireframe
350
2F
  3
3D Hidden
350
31
  3
3dWireframe
350
30
  3
Basic
350
32
  3
Brighten
350
36
  3
ColorChange
350
3A
  3
Conceptual
350
34
  3
Dim
350
35
  3
Facepattern
350
39
  3
Flat
350
2B
  3
FlatWithEdges
350
2C
  3
Gouraud
350
2D
  3
GouraudWithEdges
350
2E
  3
Linepattern
350
38
  3
Realistic
350
33
  3
Thicken
350
37
  0
LAYOUT
  5
1E
102
{ACAD_REACTORS
330
1A
102
}
330
1A
100
AcDbPlotSettings
  1

  2
none_device
  4

  6

 40
0.0
 41
0.0
 42
0.0
 43
0.0
 44
0.0
 45
0.0
 46
0.0
 47
0.0
 48
0.0
 49
0.0
140
0.0
141
0.0
142
1.0
143
1.0
 70
   688
 72
     0
 73
     0
 74
     5
  7

 75
    16
 76
     0
 77
     2
 78
   300
147
1.0
148
0.0
149
0.0
100
AcDbLayout
  1
Layout1
 70
     1
 71
     1
 10
0.0
 20
0.0
 11
12.0
 21
9.0
 12
0.0
 22
0.0
 32
0.0
 14
1.000000000000000E+20
 24
1.000000000000000E+20
 34
1.000000000000000E+20
 15
-1.000000000000000E+20
 25
-1.000000000000000E+20
 35
-1.000000000000000E+20
146
0.0
 13
0.0
 23
0.0
 33
0.0
 16
1.0
 26
0.0
 36
0.0
 17
0.0
 27
1.0
 37
0.0
 76
     0
330
1B
  0
LAYOUT
  5
26
102
{ACAD_REACTORS
330
1A
102
}
330
1A
100
AcDbPlotSettings
  1

  2
none_device
  4

  6

 40
0.0
 41
0.0
 42
0.0
 43
0.0
 44
0.0
 45
0.0
 46
0.0
 47
0.0
 48
0.0
 49
0.0
140
0.0
141
0.0
142
1.0
143
1.0
 70
   688
 72
     0
 73
     0
 74
     5
  7

 75
    16
 76
     0
 77
     2
 78
   300
147
1.0
148
0.0
149
0.0
100
AcDbLayout
  1
Layout2
 70
     1
 71
     2
 10
0.0
 20
0.0
 11
0.0
 21
0.0
 12
0.0
 22
0.0
 32
0.0
 14
0.0
 24
0.0
 34
0.0
 15
0.0
 25
0.0
 35
0.0
146
0.0
 13
0.0
 23
0.0
 33
0.0
 16
1.0
 26
0.0
 36
0.0
 17
0.0
 27
1.0
 37
0.0
 76
     0
330
23
  0
LAYOUT
  5
22
102
{ACAD_REACTORS
330
1A
102
}
330
1A
100
AcDbPlotSettings
  1

  2
none_device
  4

  6

 40
0.0
 41
0.0
 42
0.0
 43
0.0
 44
0.0
 45
0.0
 46
0.0
 47
0.0
 48
0.0
 49
0.0
140
0.0
141
0.0
142
1.0
143
1.0
 70
  1712
 72
     0
 73
     0
 74
     0
  7

 75
     0
 76
     0
 77
     2
 78
   300
147
1.0
148
0.0
149
0.0
100
AcDbLayout
  1
Model
 70
     1
 71
     0
 10
0.0
 20
0.0
 11
12.0
 21
9.0
 12
0.0
 22
0.0
 32
0.0
 14
1.000000000000000E+20
 24
1.000000000000000E+20
 34
1.000000000000000E+20
 15
-1.000000000000000E+20
 25
-1.000000000000000E+20
 35
-1.000000000000000E+20
146
0.0
 13
0.0
 23
0.0
 33
0.0
 16
1.0
 26
0.0
 36
0.0
 17
0.0
 27
1.0
 37
0.0
 76
     0
330
1F
331
29
  0
MATERIAL
  5
3D
102
{ACAD_REACTORS
330
3B
102
}
330
3B
100
AcDbMaterial
  1
ByBlock
 72
     1
 94
      127
  0
MATERIAL
  5
3C
102
{ACAD_REACTORS
330
3B
102
}
330
3B
100
AcDbMaterial
  1
ByLayer
 72
     1
 94
      127
  0
MATERIAL
  5
3E
102
{ACAD_REACTORS
330
3B
102
}
330
3B
100
AcDbMaterial
  1
Global
 72
     1
 94
      127
  0
MLINESTYLE
  5
18
102
{ACAD_REACTORS
330
17
102
}
330
17
100
AcDbMlineStyle
  2
Standard
 70
     0
  3

 62
   256
 51
90.0
 52
90.0
 71
     2
 49
0.5
 62
   256
  6
BYLAYER
 49
-0.5
 62
   256
  6
BYLAYER
  0
ACDBPLACEHOLDER
  5
F
102
{ACAD_REACTORS
330
E
102
}
330
E
  0
VISUALSTYLE
  5
2F
102
{ACAD_REACTORS
330
2A
102
}
330
2A
100
AcDbVisualStyle
  2
2dWireframe
 70
     4
177
     2
291
     0
 71
     0
176
     1
 72
     2
176
     1
 73
     0
176
     1
 90
        0
176
     1
 40
-0.6
176
     1
 41
-30.0
176
     1
 62
     5
 63
     7
421
 16777215
176
     1
 74
     1
176
     1
 91
        4
176
     1
 64
     7
176
     1
 65
   257
176
     1
 75
     1
176
     1
175
     1
176
     1
 42
1.0
176
     1
 92
        0
176
     1
 66
   257
176
     1
 43
1.0
176
     1
 76
     1
176
     1
 77
     6
176
     1
 78
     2
176
     1
 67
     7
176
     1
 79
     5
176
     1
170
     0
176
     1
171
     0
176
     1
290
     0
176
     1
 93
        1
176
     1
 44
0.0
176
     1
173
     0
176
     1
  0
VISUALSTYLE
  5
31
102
{ACAD_REACTORS
330
2A
102
}
330
2A
100
AcDbVisualStyle
  2
3D Hidden
 70
     6
177
     2
291
     0
 71
     1
176
     1
 72
     2
176
     1
 73
     2
176
     1
 90
        0
176
     1
 40
-0.6
176
     1
 41
-30.0
176
     1
 62
     5
 63
     7
421
 16777215
176
     1
 74
     2
176
     1
 91
        2
176
     1
 64
     7
176
     1
 65
   257
176
     1
 75
     2
176
     1
175
     1
176
     1
 42
40.0
176
     1
 92
        0
176
     1
 66
   257
176
     1
 43
1.0
176
     1
 76
     1
176
     1
 77
     6
176
     1
 78
     2
176
     1
 67
     7
176
     1
 79
     3
176
     1
170
     0
176
     1
171
     0
176
     1
290
     0
176
     1
 93
        1
176
     1
 44
0.0
176
     1
173
     0
176
     1
  0
VISUALSTYLE
  5
30
102
{ACAD_REACTORS
330
2A
102
}
330
2A
100
AcDbVisualStyle
  2
3dWireframe
 70
     5
177
     2
291
     0
 71
     0
176
     1
 72
     2
176
     1
 73
     0
176
     1
 90
        0
176
     1
 40
-0.6
176
     1
 41
-30.0
176
     1
 62
     5
 63
     7
421
 16777215
176
     1
 74
     1
176
     1
 91
        4
176
     1
 64
     7
176
     1
 65
   257
176
     1
 75
     1
176
     1
175
     1
176
     1
 42
1.0
176
     1
 92
        0
176
     1
 66
   257
176
     1
 43
1.0
176
     1
 76
     1
176
     1
 77
     6
176
     1
 78
     2
176
     1
 67
     7
176
     1
 79
     5
176
     1
170
     0
176
     1
171
     0
176
     1
290
     0
176
     1
 93
        1
176
     1
 44
0.0
176
     1
173
     0
176
     1
  0
VISUALSTYLE
  5
32
102
{ACAD_REACTORS
330
2A
102
}
330
2A
100
AcDbVisualStyle
  2
Basic
 70
     7
177
     2
291
     1
 71
     1
176
     1
 72
     0
176
     1
 73
     1
176
     1
 90
        0
176
     1
 40
-0.6
176
     1
 41
-30.0
176
     1
 62
     5
 63
     7
421
 16777215
176
     1
 74
     0
176
     1
 91
        4
176
     1
 64
     7
176
     1
 65
   257
176
     1
 75
     1
176
     1
175
     1
176
     1
 42
1.0
176
     1
 92
        8
176
     1
 66
     7
176
     1
 43
1.0
176
     1
 76
     1
176
     1
 77
     6
176
     1
 78
     2
176
     1
 67
     7
176
     1
 79
     5
176
     1
170
     0
176
     1
171
     0
176
     1
290
     0
176
     1
 93
        1
176
     1
 44
0.0
176
     1
173
     0
176
     1
  0
VISUALSTYLE
  5
36
102
{ACAD_REACTORS
330
2A
102
}
330
2A
100
AcDbVisualStyle
  2
Brighten
 70
    12
177
     2
291
     1
 71
     2
176
     1
 72
     2
176
     1
 73
     0
176
     1
 90
        0
176
     1
 40
-0.6
176
     1
 41
-30.0
176
     1
 62
     5
 63
     7
421
 16777215
176
     1
 74
     1
176
     1
 91
        4
176
     1
 64
     7
176
     1
 65
   257
176
     1
 75
     1
176
     1
175
     1
176
     1
 42
1.0
176
     1
 92
        8
176
     1
 66
     7
176
     1
 43
1.0
176
     1
 76
     1
176
     1
 77
     6
176
     1
 78
     2
176
     1
 67
     7
176
     1
 79
     5
176
     1
170
     0
176
     1
171
     0
176
     1
290
     0
176
     1
 93
        1
176
     1
 44
50.0
176
     1
173
     0
176
     1
  0
VISUALSTYLE
  5
3A
102
{ACAD_REACTORS
330
2A
102
}
330
2A
100
AcDbVisualStyle
  2
ColorChange
 70
    16
177
     2
291
     1
 71
     2
176
     1
 72
     2
176
     1
 73
     3
176
     1
 90
        0
176
     1
 40
-0.6
176
     1
 41
-30.0
176
     1
 62
     5
 63
     8
421
  8421504
176
     1
 74
     1
176
     1
 91
        4
176
     1
 64
     7
176
     1
 65
   257
176
     1
 75
     1
176
     1
175
     1
176
     1
 42
1.0
176
     1
 92
        8
176
     1
 66
     8
424
  8421504
176
     1
 43
1.0
176
     1
 76
     1
176
     1
 77
     6
176
     1
 78
     2
176
     1
 67
     7
176
     1
 79
     5
176
     1
170
     0
176
     1
171
     0
176
     1
290
     0
176
     1
 93
        1
176
     1
 44
0.0
176
     1
173
     0
176
     1
  0
VISUALSTYLE
  5
34
102
{ACAD_REACTORS
330
2A
102
}
330
2A
100
AcDbVisualStyle
  2
Conceptual
 70
     9
177
     2
291
     0
 71
     3
176
     1
 72
     2
176
     1
 73
     0
176
     1
 90
        0
176
     1
 40
-0.6
176
     1
 41
-30.0
176
     1
 62
     5
 63
     7
421
 16777215
176
     1
 74
     2
176
     1
 91
        2
176
     1
 64
     7
176
     1
 65
   257
176
     1
 75
     1
176
     1
175
     1
176
     1
 42
40.0
176
     1
 92
        8
176
     1
 66
     7
176
     1
 43
1.0
176
     1
 76
     1
176
     1
 77
     6
176
     1
 78
     2
176
     1
 67
     7
176
     1
 79
     3
176
     1
170
     0
176
     1
171
     0
176
     1
290
     0
176
     1
 93
        1
176
     1
 44
0.0
176
     1
173
     0
176
     1
  0
VISUALSTYLE
  5
35
102
{ACAD_REACTORS
330
2A
102
}
330
2A
100
AcDbVisualStyle
  2
Dim
 70
    11
177
     2
291
     1
 71
     2
176
     1
 72
     2
176
     1
 73
     0
176
     1
 90
        0
176
     1
 40
-0.6
176
     1
 41
-30.0
176
     1
 62
     5
 63
     7
421
 16777215
176
     1
 74
     1
176
     1
 91
        4
176
     1
 64
     7
176
     1
 65
   257
176
     1
 75
     1
176
     1
175
     1
176
     1
 42
1.0
176
     1
 92
        8
176
     1
 66
     7
176
     1
 43
1.0
176
     1
 76
     1
176
     1
 77
     6
176
     1
 78
     2
176
     1
 67
     7
176
     1
 79
     5
176
     1
170
     0
176
     1
171
     0
176
     1
290
     0
176
     1
 93
        1
176
     1
 44
-50.0
176
     1
173
     0
176
     1
  0
VISUALSTYLE
  5
39
102
{ACAD_REACTORS
330
2A
102
}
330
2A
100
AcDbVisualStyle
  2
Facepattern
 70
    15
177
     2
291
     1
 71
     2
176
     1
 72
     2
176
     1
 73
     0
176
     1
 90
        0
176
     1
 40
-0.6
176
     1
 41
-30.0
176
     1
 62
     5
 63
     7
421
 16777215
176
     1
 74
     1
176
     1
 91
        4
176
     1
 64
     7
176
     1
 65
   257
176
     1
 75
     1
176
     1
175
     1
176
     1
 42
1.0
176
     1
 92
        8
176
     1
 66
     7
176
     1
 43
1.0
176
     1
 76
     1
176
     1
 77
     6
176
     1
 78
     2
176
     1
 67
     7
176
     1
 79
     5
176
     1
170
     0
176
     1
171
     0
176
     1
290
     0
176
     1
 93
        1
176
     1
 44
0.0
176
     1
173
     0
176
     1
  0
VISUALSTYLE
  5
2B
102
{ACAD_REACTORS
330
2A
102
}
330
2A
100
AcDbVisualStyle
  2
Flat
 70
     0
177
     2
291
     1
 71
     2
176
     1
 72
     1
176
     1
 73
     1
176
     1
 90
        2
176
     1
 40
-0.6
176
     1
 41
30.0
176
     1
 62
     5
 63
     7
421
 16777215
176
     1
 74
     0
176
     1
 91
        4
176
     1
 64
     7
176
     1
 65
   257
176
     1
 75
     1
176
     1
175
     1
176
     1
 42
1.0
176
     1
 92
        8
176
     1
 66
     7
176
     1
 43
1.0
176
     1
 76
     1
176
     1
 77
     6
176
     1
 78
     2
176
     1
 67
     7
176
     1
 79
     5
176
     1
170
     0
176
     1
171
     0
176
     1
290
     0
176
     1
 93
       13
176
     1
 44
0.0
176
     1
173
     0
176
     1
  0
VISUALSTYLE
  5
2C
102
{ACAD_REACTORS
330
2A
102
}
330
2A
100
AcDbVisualStyle
  2
FlatWithEdges
 70
     1
177
     2
291
     1
 71
     2
176
     1
 72
     1
176
     1
 73
     1
176
     1
 90
        2
176
     1
 40
-0.6
176
     1
 41
30.0
176
     1
 62
     5
 63
     7
421
 16777215
176
     1
 74
     1
176
     1
 91
        4
176
     1
 64
     7
176
     1
 65
   257
176
     1
 75
     1
176
     1
175
     1
176
     1
 42
1.0
176
     1
 92
        0
176
     1
 66
   257
176
     1
 43
1.0
176
     1
 76
     1
176
     1
 77
     6
176
     1
 78
     2
176
     1
 67
     7
176
     1
 79
     5
176
     1
170
     0
176
     1
171
     0
176
     1
290
     0
176
     1
 93
       13
176
     1
 44
0.0
176
     1
173
     0
176
     1
  0
VISUALSTYLE
  5
2D
102
{ACAD_REACTORS
330
2A
102
}
330
2A
100
AcDbVisualStyle
  2
Gouraud
 70
     2
177
     2
291
     1
 71
     2
176
     1
 72
     2
176
     1
 73
     1
176
     1
 90
        2
176
     1
 40
-0.6
176
     1
 41
30.0
176
     1
 62
     5
 63
     7
421
 16777215
176
     1
 74
     0
176
     1
 91
        4
176
     1
 64
     7
176
     1
 65
   257
176
     1
 75
     1
176
     1
175
     1
176
     1
 42
1.0
176
     1
 92
        0
176
     1
 66
     7
176
     1
 43
1.0
176
     1
 76
     1
176
     1
 77
     6
176
     1
 78
     2
176
     1
 67
     7
176
     1
 79
     5
176
     1
170
     0
176
     1
171
     0
176
     1
290
     0
176
     1
 93
       13
176
     1
 44
0.0
176
     1
173
     0
176
     1
  0
VISUALSTYLE
  5
2E
102
{ACAD_REACTORS
330
2A
102
}
330
2A
100
AcDbVisualStyle
  2
GouraudWithEdges
 70
     3
177
     2
291
     1
 71
     2
176
     1
 72
     2
176
     1
 73
     1
176
     1
 90
        2
176
     1
 40
-0.6
176
     1
 41
30.0
176
     1
 62
     5
 63
     7
421
 16777215
176
     1
 74
     1
176
     1
 91
        4
176
     1
 64
     7
176
     1
 65
   257
176
     1
 75
     1
176
     1
175
     1
176
     1
 42
1.0
176
     1
 92
        0
176
     1
 66
   257
176
     1
 43
1.0
176
     1
 76
     1
176
     1
 77
     6
176
     1
 78
     2
176
     1
 67
     7
176
     1
 79
     5
176
     1
170
     0
176
     1
171
     0
176
     1
290
     0
176
     1
 93
       13
176
     1
 44
0.0
176
     1
173
     0
176
     1
  0
VISUALSTYLE
  5
38
102
{ACAD_REACTORS
330
2A
102
}
330
2A
100
AcDbVisualStyle
  2
Linepattern
 70
    14
177
     2
291
     1
 71
     2
176
     1
 72
     2
176
     1
 73
     0
176
     1
 90
        0
176
     1
 40
-0.6
176
     1
 41
-30.0
176
     1
 62
     5
 63
     7
421
 16777215
176
     1
 74
     1
176
     1
 91
        4
176
     1
 64
     7
176
     1
 65
   257
176
     1
 75
     7
176
     1
175
     7
176
     1
 42
1.0
176
     1
 92
        8
176
     1
 66
     7
176
     1
 43
1.0
176
     1
 76
     1
176
     1
 77
     6
176
     1
 78
     2
176
     1
 67
     7
176
     1
 79
     5
176
     1
170
     0
176
     1
171
     0
176
     1
290
     0
176
     1
 93
        1
176
     1
 44
0.0
176
     1
173
     0
176
     1
  0
VISUALSTYLE
  5
33
102
{ACAD_REACTORS
330
2A
102
}
330
2A
100
AcDbVisualStyle
  2
Realistic
 70
     8
177
     2
291
     0
 71
     2
176
     1
 72
     2
176
     1
 73
     0
176
     1
 90
        0
176
     1
 40
-0.6
176
     1
 41
-30.0
176
     1
 62
     5
 63
     7
421
 16777215
176
     1
 74
     1
176
     1
 91
        0
176
     1
 64
     7
176
     1
 65
   257
176
     1
 75
     1
176
     1
175
     1
176
     1
 42
1.0
176
     1
 92
        8
176
     1
 66
     8
424
  7895160
176
     1
 43
1.0
176
     1
 76
     1
176
     1
 77
     6
176
     1
 78
     2
176
     1
 67
     7
176
     1
 79
     5
176
     1
170
     0
176
     1
171
     0
176
     1
290
     0
176
     1
 93
       13
176
     1
 44
0.0
176
     1
173
     0
176
     1
  0
VISUALSTYLE
  5
37
102
{ACAD_REACTORS
330
2A
102
}
330
2A
100
AcDbVisualStyle
  2
Thicken
 70
    13
177
     2
291
     1
 71
     2
176
     1
 72
     2
176
     1
 73
     0
176
     1
 90
        0
176
     1
 40
-0.6
176
     1
 41
-30.0
176
     1
 62
     5
 63
     7
421
 16777215
176
     1
 74
     1
176
     1
 91
        4
176
     1
 64
     7
176
     1
 65
   257
176
     1
 75
     1
176
     1
175
     1
176
     1
 42
1.0
176
     1
 92
       12
176
     1
 66
     7
176
     1
 43
1.0
176
     1
 76
     1
176
     1
 77
     6
176
     1
 78
     2
176
     1
 67
     7
176
     1
 79
     5
176
     1
170
     0
176
     1
171
     0
176
     1
290
     0
176
     1
 93
        1
176
     1
 44
0.0
176
     1
173
     0
176
     1
  0
ENDSEC
  0
EOF
