<?xml version="1.0" encoding="utf-8"?>
<!-- Generator: Adobe Illustrator 24.3.0, SVG Export Plug-In . SVG Version: 6.00 Build 0)  -->
<svg version="1.1"
	 id="svg1962" inkscape:version="0.92.3 (2405546, 2018-03-11)" sodipodi:docname="A4.svg" xmlns:cc="http://creativecommons.org/ns#" xmlns:dc="http://purl.org/dc/elements/1.1/" xmlns:inkscape="http://www.inkscape.org/namespaces/inkscape" xmlns:rdf="http://www.w3.org/1999/02/22-rdf-syntax-ns#" xmlns:sodipodi="http://sodipodi.sourceforge.net/DTD/sodipodi-0.dtd" xmlns:svg="http://www.w3.org/2000/svg"
	 xmlns="http://www.w3.org/2000/svg" xmlns:xlink="http://www.w3.org/1999/xlink" x="0px" y="0px" viewBox="0 0 595.3 841.9"
	 style="enable-background:new 0 0 595.3 841.9;" xml:space="preserve">
<style type="text/css">
	.st0{fill:none;stroke:#000000;stroke-width:0.5;stroke-miterlimit:11.3386;}
	.st1{fill:none;stroke:#060606;stroke-width:0.6913;stroke-miterlimit:11.3386;}
	.st2{font-family:'BDGeminis';}
	.st3{font-size:23.2186px;}
	.st4{fill:none;stroke:#FFFFFF;stroke-width:0.1951;stroke-linecap:square;stroke-linejoin:bevel;}
	.st5{fill:none;stroke:#060606;stroke-width:0.7087;stroke-miterlimit:11.3386;}
	.st6{fill:#FFFFFF;}
	.st7{font-family:'ConthraxSb-Regular';}
	.st8{font-size:9.7555px;}
	.st9{font-size:12.6822px;}
</style>
<sodipodi:namedview  bordercolor="#666666" borderopacity="1.0" id="base" inkscape:current-layer="layer1" inkscape:cx="252.73631" inkscape:cy="377.85714" inkscape:document-units="mm" inkscape:pageopacity="0.0" inkscape:pageshadow="2" inkscape:window-height="1147" inkscape:window-maximized="1" inkscape:window-width="1920" inkscape:window-x="-8" inkscape:window-y="-8" inkscape:zoom="1.4" pagecolor="#ffffff" showgrid="false">
	</sodipodi:namedview>
<g id="layer1" inkscape:groupmode="layer" inkscape:label="Layer 1">
	<path id="path3736" inkscape:connector-curvature="0" class="st0" d="M301.7,384.4h181.1v331.8H301.7V384.4z"/>
	<path id="path3738" inkscape:connector-curvature="0" class="st1" d="M336.9,445.3c0-1.5-1.2-2.8-2.8-2.8c-1.5,0-2.8,1.2-2.8,2.8
		c0,1.5,1.2,2.8,2.8,2.8C335.7,448,336.9,446.8,336.9,445.3z"/>
	<path id="path3740" inkscape:connector-curvature="0" class="st1" d="M453.1,445.3c0-1.5-1.2-2.8-2.8-2.8c-1.5,0-2.8,1.2-2.8,2.8
		c0,1.5,1.2,2.8,2.8,2.8C451.8,448,453.1,446.8,453.1,445.3z"/>
	<path id="path3742" inkscape:connector-curvature="0" class="st1" d="M395,445.3c0-1.5-1.2-2.8-2.8-2.8c-1.5,0-2.8,1.2-2.8,2.8
		c0,0,0,0,0,0c0,1.5,1.2,2.8,2.8,2.8C393.8,448.1,395,446.8,395,445.3C395,445.3,395,445.3,395,445.3z"/>
	<path id="path3744" inkscape:connector-curvature="0" class="st1" d="M416.4,674.8c0-1.5-1.2-2.8-2.8-2.8c-1.5,0-2.8,1.2-2.8,2.8
		s1.2,2.8,2.8,2.8C415.2,677.6,416.4,676.3,416.4,674.8z"/>
	<path id="path3768" inkscape:connector-curvature="0" class="st1" d="M352.8,709.4v-159"/>
	<path id="path3770" inkscape:connector-curvature="0" class="st1" d="M352.8,550.4h124.4"/>
	<path id="path3772" inkscape:connector-curvature="0" class="st1" d="M477.3,550.4v159"/>
	<path id="path3774" inkscape:connector-curvature="0" class="st1" d="M477.3,709.4H352.8"/>
	<path id="path3776" inkscape:connector-curvature="0" class="st1" d="M359.7,564.1h110.6v138.4H359.7V564.1z"/>
	<path id="path3778" inkscape:connector-curvature="0" class="st1" d="M366.7,571.1h96.8v131.4h-96.8V571.1z"/>
	<path id="path3780" inkscape:connector-curvature="0" class="st1" d="M369.4,576.6h27.7"/>
	<path id="path3782" inkscape:connector-curvature="0" class="st1" d="M397.1,576.6l-13.8,12.4"/>
	<path id="path3784" inkscape:connector-curvature="0" class="st1" d="M383.2,589.1l-13.8-12.4"/>
	<path id="path3786" inkscape:connector-curvature="0" class="st1" d="M401.2,576.6h27.7"/>
	<path id="path3788" inkscape:connector-curvature="0" class="st1" d="M428.9,576.6L415,589.1"/>
	<path id="path3790" inkscape:connector-curvature="0" class="st1" d="M415,589.1l-13.8-12.4"/>
	<path id="path3792" inkscape:connector-curvature="0" class="st1" d="M433,576.6h27.7"/>
	<path id="path3794" inkscape:connector-curvature="0" class="st1" d="M460.7,576.6l-13.8,12.4"/>
	<path id="path3796" inkscape:connector-curvature="0" class="st1" d="M446.8,589.1L433,576.6"/>
	<path id="path3798" inkscape:connector-curvature="0" class="st1" d="M384.6,593.2h27.7"/>
	<path id="path3800" inkscape:connector-curvature="0" class="st1" d="M412.3,593.2l-13.8,12.4"/>
	<path id="path3802" inkscape:connector-curvature="0" class="st1" d="M398.5,605.7l-13.8-12.4"/>
	<path id="path3804" inkscape:connector-curvature="0" class="st1" d="M417.8,593.2h27.7"/>
	<path id="path3806" inkscape:connector-curvature="0" class="st1" d="M445.5,593.2l-13.8,12.4"/>
	<path id="path3808" inkscape:connector-curvature="0" class="st1" d="M431.6,605.7l-13.8-12.4"/>
	<path id="path3810" inkscape:connector-curvature="0" class="st1" d="M369.4,609.8h27.7"/>
	<path id="path3812" inkscape:connector-curvature="0" class="st1" d="M397.1,609.8l-13.8,12.4"/>
	<path id="path3814" inkscape:connector-curvature="0" class="st1" d="M383.2,622.3l-13.8-12.4"/>
	<path id="path3816" inkscape:connector-curvature="0" class="st1" d="M401.2,609.8h27.7"/>
	<path id="path3818" inkscape:connector-curvature="0" class="st1" d="M428.9,609.8L415,622.3"/>
	<path id="path3820" inkscape:connector-curvature="0" class="st1" d="M415,622.3l-13.8-12.4"/>
	<path id="path3822" inkscape:connector-curvature="0" class="st1" d="M433,609.8h27.7"/>
	<path id="path3824" inkscape:connector-curvature="0" class="st1" d="M460.7,609.8l-13.8,12.4"/>
	<path id="path3826" inkscape:connector-curvature="0" class="st1" d="M446.8,622.3L433,609.8"/>
	<path id="path3828" inkscape:connector-curvature="0" class="st1" d="M370.8,670.7h27.7"/>
	<path id="path3830" inkscape:connector-curvature="0" class="st1" d="M398.5,670.7l-13.8,12.4"/>
	<path id="path3832" inkscape:connector-curvature="0" class="st1" d="M384.6,683.1l-13.8-12.4"/>
	<path id="path3834" inkscape:connector-curvature="0" class="st1" d="M402.6,670.7h27.7"/>
	<path id="path3836" inkscape:connector-curvature="0" class="st1" d="M430.3,670.7l-13.8,12.4"/>
	<path id="path3838" inkscape:connector-curvature="0" class="st1" d="M416.4,683.1l-13.8-12.4"/>
	<path id="path3840" inkscape:connector-curvature="0" class="st1" d="M434.4,670.7h27.7"/>
	<path id="path3842" inkscape:connector-curvature="0" class="st1" d="M462.1,670.7l-13.8,12.4"/>
	<path id="path3844" inkscape:connector-curvature="0" class="st1" d="M448.2,683.1l-13.8-12.4"/>
	<path id="path3846" inkscape:connector-curvature="0" class="st1" d="M386,687.2h27.7"/>
	<path id="path3848" inkscape:connector-curvature="0" class="st1" d="M413.7,687.2l-13.8,12.4"/>
	<path id="path3850" inkscape:connector-curvature="0" class="st1" d="M399.8,699.7L386,687.2"/>
	<path id="path3852" inkscape:connector-curvature="0" class="st1" d="M419.2,687.2h27.7"/>
	<path id="path3854" inkscape:connector-curvature="0" class="st1" d="M446.8,687.2L433,699.7"/>
	<path id="path3856" inkscape:connector-curvature="0" class="st1" d="M433,699.7l-13.8-12.4"/>
	<path id="path4040" inkscape:connector-curvature="0" class="st1" d="M337.6,445.3h-6.9"/>
	<path id="path4042" inkscape:connector-curvature="0" class="st1" d="M334.2,445.3v-4.1"/>
	<path id="path4044" inkscape:connector-curvature="0" class="st1" d="M334.2,445.3v4.1"/>
	<path id="path4046" inkscape:connector-curvature="0" class="st1" d="M395.7,445.3h-6.9"/>
	<path id="path4048" inkscape:connector-curvature="0" class="st1" d="M392.2,445.3v-4.1"/>
	<path id="path4050" inkscape:connector-curvature="0" class="st1" d="M392.2,445.3v4.1"/>
	<path id="path4052" inkscape:connector-curvature="0" class="st1" d="M453.8,445.3h-6.9"/>
	<path id="path4054" inkscape:connector-curvature="0" class="st1" d="M450.3,445.3v-4.1"/>
	<path id="path4056" inkscape:connector-curvature="0" class="st1" d="M450.3,445.3v4.1"/>
	<path id="path4058" inkscape:connector-curvature="0" class="st1" d="M417.1,674.8h-6.9"/>
	<path id="path4060" inkscape:connector-curvature="0" class="st1" d="M413.7,674.8v-4.1"/>
	<path id="path4062" inkscape:connector-curvature="0" class="st1" d="M413.7,674.8v4.1"/>
	<path id="path4070" inkscape:connector-curvature="0" class="st1" d="M366.7,571.1l-6.9-7"/>
	<path id="path4072" inkscape:connector-curvature="0" class="st1" d="M359.7,564.1L359.7,564.1"/>
	<path id="path4074" inkscape:connector-curvature="0" class="st1" d="M359.7,564.1l-6.9-13.7"/>
	<path id="path4076" inkscape:connector-curvature="0" class="st1" d="M463.4,571.1l6.9-7"/>
	<path id="path4078" inkscape:connector-curvature="0" class="st1" d="M470.4,564.1l6.9-13.7"/>
	<text transform="matrix(0.5447 0 0 1 371.1954 643.3865)" class="st2 st3">The Tone Geek</text>
	<text transform="matrix(0.5447 0 0 1 371.1954 643.3865)" class="st4 st2 st3">The Tone Geek</text>
	<path id="path4176" inkscape:connector-curvature="0" class="st1" d="M337.6,445.3h-6.9"/>
	<path id="path4178" inkscape:connector-curvature="0" class="st1" d="M334.2,445.3v-4.1"/>
	<path id="path1844" inkscape:connector-curvature="0" class="st5" d="M336.9,445.3c0-1.6-1.3-2.8-2.8-2.8c-1.6,0-2.8,1.3-2.8,2.8
		c0,0,0,0,0,0c0,1.6,1.3,2.8,2.8,2.8C335.7,448.1,336.9,446.9,336.9,445.3C336.9,445.3,336.9,445.3,336.9,445.3z"/>
	<path id="path1846" inkscape:connector-curvature="0" class="st5" d="M453.1,445.3c0-1.6-1.3-2.8-2.8-2.8c-1.6,0-2.8,1.3-2.8,2.8
		c0,0,0,0,0,0c0,1.6,1.3,2.8,2.8,2.8C451.8,448.1,453.1,446.9,453.1,445.3C453.1,445.3,453.1,445.3,453.1,445.3z"/>
	<path id="path1848" inkscape:connector-curvature="0" class="st5" d="M395,445.3c0-1.6-1.3-2.8-2.8-2.8c-1.6,0-2.8,1.3-2.8,2.8
		c0,0,0,0,0,0c0,1.6,1.3,2.8,2.8,2.8C393.7,448.1,395,446.9,395,445.3C395,445.3,395,445.3,395,445.3z"/>
	<path id="path1850" inkscape:connector-curvature="0" class="st5" d="M414.8,445.3c0-12.5-10.1-22.7-22.7-22.7
		c-12.5,0-22.7,10.1-22.7,22.7c0,0,0,0,0,0c0,12.5,10.2,22.7,22.7,22.7S414.8,457.8,414.8,445.3L414.8,445.3z"/>
	<path id="path1852" inkscape:connector-curvature="0" class="st5" d="M472.9,445.3c0-12.5-10.2-22.7-22.7-22.7
		s-22.7,10.2-22.7,22.7c0,12.5,10.2,22.7,22.7,22.7S472.9,457.8,472.9,445.3z"/>
	<path id="path1876" inkscape:connector-curvature="0" class="st5" d="M337.6,445.3h-7.1"/>
	<path id="path1878" inkscape:connector-curvature="0" class="st5" d="M334.1,445.3V441"/>
	<path id="path1880" inkscape:connector-curvature="0" class="st5" d="M334.1,445.3v4.3"/>
	<path id="path1888" inkscape:connector-curvature="0" class="st5" d="M453.8,445.3h-7.1"/>
	<path id="path1890" inkscape:connector-curvature="0" class="st5" d="M450.2,445.3V441"/>
	<path id="path1892" inkscape:connector-curvature="0" class="st5" d="M450.2,445.3v4.3"/>
	<path id="path1894" inkscape:connector-curvature="0" class="st5" d="M356.8,445.3c0-12.5-10.2-22.7-22.7-22.7
		s-22.7,10.2-22.7,22.7c0,12.5,10.2,22.7,22.7,22.7S356.8,457.8,356.8,445.3z"/>
	<path id="path1906" inkscape:connector-curvature="0" class="st5" d="M337.6,445.3h-7.1"/>
	<path id="path1908" inkscape:connector-curvature="0" class="st5" d="M334.1,445.3V441"/>
	<g id="layer1_1_" inkscape:groupmode="layer" inkscape:label="Layer 1">
		<path id="path3736_1_" inkscape:connector-curvature="0" class="st0" d="M251.6,719.6H70.4V387.7h181.1V719.6z"/>
		<path id="path3738_1_" inkscape:connector-curvature="0" class="st1" d="M219.1,451.3c1.5,0,2.8-1.2,2.8-2.8
			c0-1.5-1.2-2.8-2.8-2.8c-1.5,0-2.8,1.2-2.8,2.8C216.3,450.1,217.5,451.3,219.1,451.3z"/>
		<path id="path3740_1_" inkscape:connector-curvature="0" class="st1" d="M102.9,451.3c1.5,0,2.8-1.2,2.8-2.8
			c0-1.5-1.2-2.8-2.8-2.8c-1.5,0-2.8,1.2-2.8,2.8C100.2,450.1,101.4,451.3,102.9,451.3z"/>
		<path id="path3742_1_" inkscape:connector-curvature="0" class="st1" d="M158.2,448.6c0,1.5,1.2,2.8,2.8,2.8
			c1.5,0,2.8-1.2,2.8-2.8c0,0,0,0,0,0c0-1.5-1.2-2.8-2.8-2.8C159.5,445.8,158.2,447,158.2,448.6
			C158.2,448.6,158.2,448.6,158.2,448.6z"/>
		<path id="path3744_1_" inkscape:connector-curvature="0" class="st1" d="M139.6,680.8c1.5,0,2.8-1.2,2.8-2.8s-1.2-2.8-2.8-2.8
			c-1.5,0-2.8,1.2-2.8,2.8S138,680.8,139.6,680.8z"/>
		<path id="path3768_1_" inkscape:connector-curvature="0" class="st1" d="M200.4,553.6v159"/>
		<path id="path3770_1_" inkscape:connector-curvature="0" class="st1" d="M76,553.6h124.4"/>
		<path id="path3772_1_" inkscape:connector-curvature="0" class="st1" d="M76,712.7v-159"/>
		<path id="path3774_1_" inkscape:connector-curvature="0" class="st1" d="M200.4,712.7H76"/>
		<path id="path3776_1_" inkscape:connector-curvature="0" class="st1" d="M193.5,705.7H82.9V567.3h110.6V705.7z"/>
		<path id="path3778_1_" inkscape:connector-curvature="0" class="st1" d="M186.6,705.7H89.8V574.4h96.8V705.7z"/>
		<path id="path3780_1_" inkscape:connector-curvature="0" class="st1" d="M156.2,579.9h27.7"/>
		<path id="path3782_1_" inkscape:connector-curvature="0" class="st1" d="M170,592.4l-13.8-12.4"/>
		<path id="path3784_1_" inkscape:connector-curvature="0" class="st1" d="M183.8,579.9L170,592.4"/>
		<path id="path3786_1_" inkscape:connector-curvature="0" class="st1" d="M124.4,579.9H152"/>
		<path id="path3788_1_" inkscape:connector-curvature="0" class="st1" d="M138.2,592.4l-13.8-12.4"/>
		<path id="path3790_1_" inkscape:connector-curvature="0" class="st1" d="M152,579.9l-13.8,12.4"/>
		<path id="path3792_1_" inkscape:connector-curvature="0" class="st1" d="M92.6,579.9h27.7"/>
		<path id="path3794_1_" inkscape:connector-curvature="0" class="st1" d="M106.4,592.4l-13.8-12.4"/>
		<path id="path3796_1_" inkscape:connector-curvature="0" class="st1" d="M120.2,579.9l-13.8,12.4"/>
		<path id="path3798_1_" inkscape:connector-curvature="0" class="st1" d="M140.9,596.5h27.7"/>
		<path id="path3800_1_" inkscape:connector-curvature="0" class="st1" d="M154.8,609l-13.8-12.4"/>
		<path id="path3802_1_" inkscape:connector-curvature="0" class="st1" d="M168.6,596.5L154.8,609"/>
		<path id="path3804_1_" inkscape:connector-curvature="0" class="st1" d="M107.8,596.5h27.7"/>
		<path id="path3806_1_" inkscape:connector-curvature="0" class="st1" d="M121.6,609l-13.8-12.4"/>
		<path id="path3808_1_" inkscape:connector-curvature="0" class="st1" d="M135.4,596.5L121.6,609"/>
		<path id="path3810_1_" inkscape:connector-curvature="0" class="st1" d="M156.2,613.1h27.7"/>
		<path id="path3812_1_" inkscape:connector-curvature="0" class="st1" d="M170,625.5l-13.8-12.4"/>
		<path id="path3814_1_" inkscape:connector-curvature="0" class="st1" d="M183.8,613.1L170,625.5"/>
		<path id="path3816_1_" inkscape:connector-curvature="0" class="st1" d="M124.4,613.1H152"/>
		<path id="path3818_1_" inkscape:connector-curvature="0" class="st1" d="M138.2,625.5l-13.8-12.4"/>
		<path id="path3820_1_" inkscape:connector-curvature="0" class="st1" d="M152,613.1l-13.8,12.4"/>
		<path id="path3822_1_" inkscape:connector-curvature="0" class="st1" d="M92.6,613.1h27.7"/>
		<path id="path3824_1_" inkscape:connector-curvature="0" class="st1" d="M106.4,625.5l-13.8-12.4"/>
		<path id="path3826_1_" inkscape:connector-curvature="0" class="st1" d="M120.2,613.1l-13.8,12.4"/>
		<path id="path3828_1_" inkscape:connector-curvature="0" class="st1" d="M154.8,673.9h27.7"/>
		<path id="path3830_1_" inkscape:connector-curvature="0" class="st1" d="M168.6,686.4l-13.8-12.4"/>
		<path id="path3832_1_" inkscape:connector-curvature="0" class="st1" d="M182.4,673.9l-13.8,12.4"/>
		<path id="path3834_1_" inkscape:connector-curvature="0" class="st1" d="M123,673.9h27.7"/>
		<path id="path3836_1_" inkscape:connector-curvature="0" class="st1" d="M136.8,686.4L123,673.9"/>
		<path id="path3838_1_" inkscape:connector-curvature="0" class="st1" d="M150.6,673.9l-13.8,12.4"/>
		<path id="path3840_1_" inkscape:connector-curvature="0" class="st1" d="M91.2,673.9h27.7"/>
		<path id="path3842_1_" inkscape:connector-curvature="0" class="st1" d="M105,686.4l-13.8-12.4"/>
		<path id="path3844_1_" inkscape:connector-curvature="0" class="st1" d="M118.8,673.9L105,686.4"/>
		<path id="path3846_1_" inkscape:connector-curvature="0" class="st1" d="M139.6,690.5h27.7"/>
		<path id="path3848_1_" inkscape:connector-curvature="0" class="st1" d="M153.4,703l-13.8-12.4"/>
		<path id="path3850_1_" inkscape:connector-curvature="0" class="st1" d="M167.2,690.5L153.4,703"/>
		<path id="path3852_1_" inkscape:connector-curvature="0" class="st1" d="M106.4,690.5H134"/>
		<path id="path3854_1_" inkscape:connector-curvature="0" class="st1" d="M120.2,703l-13.8-12.4"/>
		<path id="path3856_1_" inkscape:connector-curvature="0" class="st1" d="M134,690.5L120.2,703"/>
		<path id="path4040_1_" inkscape:connector-curvature="0" class="st1" d="M222.5,448.6h-6.9"/>
		<path id="path4042_1_" inkscape:connector-curvature="0" class="st1" d="M219.1,444.4v4.1"/>
		<path id="path4044_1_" inkscape:connector-curvature="0" class="st1" d="M219.1,452.7v-4.1"/>
		<path id="path4046_1_" inkscape:connector-curvature="0" class="st1" d="M164.5,448.6h-6.9"/>
		<path id="path4048_1_" inkscape:connector-curvature="0" class="st1" d="M161,444.4v4.1"/>
		<path id="path4050_1_" inkscape:connector-curvature="0" class="st1" d="M161,452.7v-4.1"/>
		<path id="path4052_1_" inkscape:connector-curvature="0" class="st1" d="M106.4,448.6h-6.9"/>
		<path id="path4054_1_" inkscape:connector-curvature="0" class="st1" d="M102.9,444.4v4.1"/>
		<path id="path4056_1_" inkscape:connector-curvature="0" class="st1" d="M102.9,452.7v-4.1"/>
		<path id="path4058_1_" inkscape:connector-curvature="0" class="st1" d="M143,678.1h-6.9"/>
		<path id="path4060_1_" inkscape:connector-curvature="0" class="st1" d="M139.6,673.9v4.1"/>
		<path id="path4062_1_" inkscape:connector-curvature="0" class="st1" d="M139.6,682.2v-4.1"/>
		<path id="path4070_1_" inkscape:connector-curvature="0" class="st1" d="M193.5,567.3l-6.9,7"/>
		<path id="path4072_1_" inkscape:connector-curvature="0" class="st1" d="M193.5,567.3L193.5,567.3"/>
		<path id="path4074_1_" inkscape:connector-curvature="0" class="st1" d="M200.4,553.6l-6.9,13.7"/>
		<path id="path4076_1_" inkscape:connector-curvature="0" class="st1" d="M82.9,567.3l6.9,7"/>
		<path id="path4078_1_" inkscape:connector-curvature="0" class="st1" d="M76,553.6l6.9,13.7"/>
		<text transform="matrix(-0.5447 0 0 1 182.0342 646.6645)" class="st2 st3">The Tone Geek</text>
		<text transform="matrix(-0.5447 0 0 1 182.0342 646.6645)" class="st4 st2 st3">The Tone Geek</text>
		<path id="path4176_1_" inkscape:connector-curvature="0" class="st1" d="M222.5,448.6h-6.9"/>
		<path id="path4178_1_" inkscape:connector-curvature="0" class="st1" d="M219.1,444.4v4.1"/>
		<path id="path1844_1_" inkscape:connector-curvature="0" class="st5" d="M216.3,448.6c0,1.6,1.3,2.8,2.8,2.8
			c1.6,0,2.8-1.3,2.8-2.8c0,0,0,0,0,0c0-1.6-1.3-2.8-2.8-2.8C217.6,445.7,216.3,447,216.3,448.6
			C216.3,448.6,216.3,448.6,216.3,448.6z"/>
		<path id="path1846_1_" inkscape:connector-curvature="0" class="st5" d="M100.2,448.6c0,1.6,1.3,2.8,2.8,2.8
			c1.6,0,2.8-1.3,2.8-2.8c0,0,0,0,0,0c0-1.6-1.3-2.8-2.8-2.8C101.4,445.7,100.2,447,100.2,448.6
			C100.2,448.6,100.2,448.6,100.2,448.6z"/>
		<path id="path1848_1_" inkscape:connector-curvature="0" class="st5" d="M158.2,448.6c0,1.6,1.3,2.8,2.8,2.8
			c1.6,0,2.8-1.3,2.8-2.8c0,0,0,0,0,0c0-1.6-1.3-2.8-2.8-2.8C159.5,445.7,158.2,447,158.2,448.6
			C158.2,448.6,158.2,448.6,158.2,448.6z"/>
		<path id="path1850_1_" inkscape:connector-curvature="0" class="st5" d="M138.4,448.6c0,12.5,10.2,22.7,22.7,22.7
			s22.7-10.2,22.7-22.7c0,0,0,0,0,0c0-12.5-10.2-22.7-22.7-22.7C148.5,425.9,138.4,436,138.4,448.6L138.4,448.6z"/>
		<path id="path1852_1_" inkscape:connector-curvature="0" class="st5" d="M103,471.2c12.5,0,22.7-10.2,22.7-22.7
			s-10.2-22.7-22.7-22.7S80.3,436,80.3,448.6S90.5,471.2,103,471.2z"/>
		<path id="path1876_1_" inkscape:connector-curvature="0" class="st5" d="M222.7,448.6h-7.1"/>
		<path id="path1878_1_" inkscape:connector-curvature="0" class="st5" d="M219.1,444.3v4.3"/>
		<path id="path1880_1_" inkscape:connector-curvature="0" class="st5" d="M219.1,452.8v-4.3"/>
		<path id="path1888_1_" inkscape:connector-curvature="0" class="st5" d="M106.6,448.6h-7.1"/>
		<path id="path1890_1_" inkscape:connector-curvature="0" class="st5" d="M103,444.3v4.3"/>
		<path id="path1892_1_" inkscape:connector-curvature="0" class="st5" d="M103,452.8v-4.3"/>
		<path id="path1894_1_" inkscape:connector-curvature="0" class="st5" d="M219.1,471.2c12.5,0,22.7-10.2,22.7-22.7
			s-10.2-22.7-22.7-22.7s-22.7,10.2-22.7,22.7S206.6,471.2,219.1,471.2z"/>
		<path id="path1906_1_" inkscape:connector-curvature="0" class="st5" d="M222.7,448.6h-7.1"/>
		<path id="path1908_1_" inkscape:connector-curvature="0" class="st5" d="M219.1,444.3v4.3"/>
	</g>
</g>
<g id="layer3" inkscape:groupmode="layer" inkscape:label="Layer 2">
	<text transform="matrix(1 0 0 1 209.4004 572.6387)" class="st6 st7 st8">TS10</text>
	<text transform="matrix(1 0 0 1 304.2549 551.9961)" class="st6 st7 st8">CLASSIC</text>
	<text transform="matrix(1 0 0 1 207.6641 541.8047)" class="st6 st7 st9">VALVE SCREAMER</text>
</g>
</svg>
